<?xml version="1.0" encoding="UTF-8" standalone="no"?><!DOCTYPE svg PUBLIC "-//W3C//DTD SVG 1.1//EN" "http://www.w3.org/Graphics/SVG/1.1/DTD/svg11.dtd"><!-- Generated by graphviz version 2.40.1 (20161225.0304)
 --><!-- Title: %0 Pages: 1 --><svg xmlns="http://www.w3.org/2000/svg" xmlns:xlink="http://www.w3.org/1999/xlink" width="2101pt" height="612pt" viewBox="0.00 0.00 2101.48 611.54">
<g id="graph0" class="graph" transform="scale(1 1) rotate(0) translate(4 607.5379)">
<title>%0</title>
<polygon fill="#ffffff" stroke="transparent" points="-4,4 -4,-607.5379 2097.4846,-607.5379 2097.4846,4 -4,4"/>
<!-- Created -->
<g id="node1" class="node">
<title>Created</title>
<path fill="none" stroke="#000000" d="M52.6,-32.7379C52.6,-32.7379 88.1316,-32.7379 88.1316,-32.7379 94.1316,-32.7379 100.1316,-38.7379 100.1316,-44.7379 100.1316,-44.7379 100.1316,-56.7379 100.1316,-56.7379 100.1316,-62.7379 94.1316,-68.7379 88.1316,-68.7379 88.1316,-68.7379 52.6,-68.7379 52.6,-68.7379 46.6,-68.7379 40.6,-62.7379 40.6,-56.7379 40.6,-56.7379 40.6,-44.7379 40.6,-44.7379 40.6,-38.7379 46.6,-32.7379 52.6,-32.7379"/>
<text text-anchor="middle" x="70.3658" y="-46.6379" font-family="Times,serif" font-size="14.00" fill="#000000">Created</text>
</g>
<!-- NotConnected -->
<g id="node2" class="node">
<title>NotConnected</title>
<path fill="none" stroke="#000000" d="M204.8946,-117.7379C204.8946,-117.7379 277.7628,-117.7379 277.7628,-117.7379 283.7628,-117.7379 289.7628,-123.7379 289.7628,-129.7379 289.7628,-129.7379 289.7628,-141.7379 289.7628,-141.7379 289.7628,-147.7379 283.7628,-153.7379 277.7628,-153.7379 277.7628,-153.7379 204.8946,-153.7379 204.8946,-153.7379 198.8946,-153.7379 192.8946,-147.7379 192.8946,-141.7379 192.8946,-141.7379 192.8946,-129.7379 192.8946,-129.7379 192.8946,-123.7379 198.8946,-117.7379 204.8946,-117.7379"/>
<text text-anchor="middle" x="241.3287" y="-131.6379" font-family="Times,serif" font-size="14.00" fill="#000000">NotConnected</text>
</g>
<!-- Created&#45;&gt;NotConnected -->
<g id="edge1" class="edge">
<title>Created-&gt;NotConnected</title>
<path fill="none" stroke="#000000" d="M100.1453,-65.5437C126.5885,-78.6909 165.6278,-98.1006 195.9563,-113.1794"/>
<polygon fill="#000000" stroke="#000000" points="194.5528,-116.3903 205.0653,-117.7083 197.6692,-110.1223 194.5528,-116.3903"/>
<text text-anchor="middle" x="146.5131" y="-105.9379" font-family="Times,serif" font-size="14.00" fill="#000000">Configure</text>
</g>
<!-- Connecting -->
<g id="node3" class="node">
<title>Connecting</title>
<path fill="none" stroke="#000000" d="M469.6781,-117.7379C469.6781,-117.7379 526.2251,-117.7379 526.2251,-117.7379 532.2251,-117.7379 538.2251,-123.7379 538.2251,-129.7379 538.2251,-129.7379 538.2251,-141.7379 538.2251,-141.7379 538.2251,-147.7379 532.2251,-153.7379 526.2251,-153.7379 526.2251,-153.7379 469.6781,-153.7379 469.6781,-153.7379 463.6781,-153.7379 457.6781,-147.7379 457.6781,-141.7379 457.6781,-141.7379 457.6781,-129.7379 457.6781,-129.7379 457.6781,-123.7379 463.6781,-117.7379 469.6781,-117.7379"/>
<text text-anchor="middle" x="497.9516" y="-131.6379" font-family="Times,serif" font-size="14.00" fill="#000000">Connecting</text>
</g>
<!-- NotConnected&#45;&gt;Connecting -->
<g id="edge2" class="edge">
<title>NotConnected-&gt;Connecting</title>
<path fill="none" stroke="#000000" d="M289.8992,-135.7379C334.9248,-135.7379 401.6544,-135.7379 447.326,-135.7379"/>
<polygon fill="#000000" stroke="#000000" points="447.5952,-139.2379 457.5952,-135.7379 447.5951,-132.2379 447.5952,-139.2379"/>
<text text-anchor="middle" x="364.8996" y="-139.9379" font-family="Times,serif" font-size="14.00" fill="#000000">StartLogin</text>
</g>
<!-- ConnectionFailed -->
<g id="node4" class="node">
<title>ConnectionFailed</title>
<path fill="none" stroke="#000000" d="M746.9258,-155.7379C746.9258,-155.7379 838.4658,-155.7379 838.4658,-155.7379 844.4658,-155.7379 850.4658,-161.7379 850.4658,-167.7379 850.4658,-167.7379 850.4658,-179.7379 850.4658,-179.7379 850.4658,-185.7379 844.4658,-191.7379 838.4658,-191.7379 838.4658,-191.7379 746.9258,-191.7379 746.9258,-191.7379 740.9258,-191.7379 734.9258,-185.7379 734.9258,-179.7379 734.9258,-179.7379 734.9258,-167.7379 734.9258,-167.7379 734.9258,-161.7379 740.9258,-155.7379 746.9258,-155.7379"/>
<text text-anchor="middle" x="792.6958" y="-169.6379" font-family="Times,serif" font-size="14.00" fill="#000000">ConnectionFailed</text>
</g>
<!-- Connecting&#45;&gt;ConnectionFailed -->
<g id="edge3" class="edge">
<title>Connecting-&gt;ConnectionFailed</title>
<path fill="none" stroke="#000000" d="M538.4187,-139.3534C582.448,-143.4868 654.8587,-150.8674 716.9258,-159.9379 719.5636,-160.3233 722.2501,-160.7325 724.9618,-161.1593"/>
<polygon fill="#000000" stroke="#000000" points="724.4152,-164.6163 734.8481,-162.771 725.5415,-157.7075 724.4152,-164.6163"/>
<text text-anchor="middle" x="645.3963" y="-164.9379" font-family="Times,serif" font-size="14.00" fill="#000000">Disconnect</text>
</g>
<!-- Authenticated -->
<g id="node5" class="node">
<title>Authenticated</title>
<path fill="none" stroke="#000000" d="M757.4321,-100.7379C757.4321,-100.7379 827.9595,-100.7379 827.9595,-100.7379 833.9595,-100.7379 839.9595,-106.7379 839.9595,-112.7379 839.9595,-112.7379 839.9595,-124.7379 839.9595,-124.7379 839.9595,-130.7379 833.9595,-136.7379 827.9595,-136.7379 827.9595,-136.7379 757.4321,-136.7379 757.4321,-136.7379 751.4321,-136.7379 745.4321,-130.7379 745.4321,-124.7379 745.4321,-124.7379 745.4321,-112.7379 745.4321,-112.7379 745.4321,-106.7379 751.4321,-100.7379 757.4321,-100.7379"/>
<text text-anchor="middle" x="792.6958" y="-114.6379" font-family="Times,serif" font-size="14.00" fill="#000000">Authenticated</text>
</g>
<!-- Connecting&#45;&gt;Authenticated -->
<g id="edge4" class="edge">
<title>Connecting-&gt;Authenticated</title>
<path fill="none" stroke="#000000" d="M538.2952,-125.782C549.7212,-123.3886 562.2197,-121.1693 573.8668,-119.9379 628.2561,-114.1872 690.6743,-114.5247 734.8921,-115.9216"/>
<polygon fill="#000000" stroke="#000000" points="735.0478,-119.429 745.1624,-116.2755 735.2888,-112.4331 735.0478,-119.429"/>
<text text-anchor="middle" x="645.3963" y="-124.9379" font-family="Times,serif" font-size="14.00" fill="#000000">AuthenticationSucceeded</text>
</g>
<!-- ConnectionFailed&#45;&gt;Created -->
<g id="edge6" class="edge">
<title>ConnectionFailed-&gt;Created</title>
<path fill="none" stroke="#000000" d="M747.8811,-155.6793C743.2124,-152.7591 738.7754,-149.4529 734.9258,-145.7379 722.6224,-133.8647 731.143,-121.2361 716.9258,-111.7379 522.341,18.2608 218.2746,-22.4388 110.1602,-42.4982"/>
<polygon fill="#000000" stroke="#000000" points="109.4901,-39.0628 100.3195,-44.3686 110.7972,-45.9397 109.4901,-39.0628"/>
<text text-anchor="middle" x="364.8996" y="-26.9379" font-family="Times,serif" font-size="14.00" fill="#000000">IncorrectCredentials</text>
</g>
<!-- ConnectionFailed&#45;&gt;NotConnected -->
<g id="edge5" class="edge">
<title>ConnectionFailed-&gt;NotConnected</title>
<path fill="none" stroke="#000000" d="M734.7864,-176.2667C728.7561,-176.4594 722.7172,-176.6232 716.9258,-176.7379 534.8941,-180.3401 486.5334,-191.2285 307.7628,-156.7379 305.1257,-156.2291 302.4463,-155.6506 299.7518,-155.0183"/>
<polygon fill="#000000" stroke="#000000" points="300.5325,-151.6054 289.9774,-152.5219 298.8003,-158.3877 300.5325,-151.6054"/>
<text text-anchor="middle" x="497.9516" y="-185.9379" font-family="Times,serif" font-size="14.00" fill="#000000">ServerNotReachable</text>
</g>
<!-- Initialized -->
<g id="node6" class="node">
<title>Initialized</title>
<path fill="none" stroke="#000000" d="M1029.0886,-156.7379C1029.0886,-156.7379 1077.846,-156.7379 1077.846,-156.7379 1083.846,-156.7379 1089.846,-162.7379 1089.846,-168.7379 1089.846,-168.7379 1089.846,-180.7379 1089.846,-180.7379 1089.846,-186.7379 1083.846,-192.7379 1077.846,-192.7379 1077.846,-192.7379 1029.0886,-192.7379 1029.0886,-192.7379 1023.0886,-192.7379 1017.0886,-186.7379 1017.0886,-180.7379 1017.0886,-180.7379 1017.0886,-168.7379 1017.0886,-168.7379 1017.0886,-162.7379 1023.0886,-156.7379 1029.0886,-156.7379"/>
<text text-anchor="middle" x="1053.4673" y="-170.6379" font-family="Times,serif" font-size="14.00" fill="#000000">Initialized</text>
</g>
<!-- Authenticated&#45;&gt;Initialized -->
<g id="edge7" class="edge">
<title>Authenticated-&gt;Initialized</title>
<path fill="none" stroke="#000000" d="M840.1551,-134.0813C849.4864,-136.832 859.2423,-139.5235 868.4658,-141.7379 915.152,-152.946 969.2984,-162.1732 1006.8998,-167.9931"/>
<polygon fill="#000000" stroke="#000000" points="1006.6328,-171.4929 1017.0467,-169.5431 1007.6899,-164.5731 1006.6328,-171.4929"/>
<text text-anchor="middle" x="933.7772" y="-170.9379" font-family="Times,serif" font-size="14.00" fill="#000000">InitializationPerformed</text>
</g>
<!-- AutoReconnection -->
<g id="node8" class="node">
<title>AutoReconnection</title>
<path fill="none" stroke="#000000" d="M1963.5154,-89.7379C1963.5154,-89.7379 2060.4888,-89.7379 2060.4888,-89.7379 2066.4888,-89.7379 2072.4888,-95.7379 2072.4888,-101.7379 2072.4888,-101.7379 2072.4888,-113.7379 2072.4888,-113.7379 2072.4888,-119.7379 2066.4888,-125.7379 2060.4888,-125.7379 2060.4888,-125.7379 1963.5154,-125.7379 1963.5154,-125.7379 1957.5154,-125.7379 1951.5154,-119.7379 1951.5154,-113.7379 1951.5154,-113.7379 1951.5154,-101.7379 1951.5154,-101.7379 1951.5154,-95.7379 1957.5154,-89.7379 1963.5154,-89.7379"/>
<text text-anchor="middle" x="2012.0021" y="-103.6379" font-family="Times,serif" font-size="14.00" fill="#000000">AutoReconnection</text>
</g>
<!-- Authenticated&#45;&gt;AutoReconnection -->
<g id="edge8" class="edge">
<title>Authenticated-&gt;AutoReconnection</title>
<path fill="none" stroke="#000000" d="M840.1198,-118.31C1027.4438,-116.6201 1716.553,-110.4033 1940.8986,-108.3793"/>
<polygon fill="#000000" stroke="#000000" points="1941.2586,-111.8763 1951.2266,-108.2861 1941.1954,-104.8766 1941.2586,-111.8763"/>
<text text-anchor="middle" x="1179.3755" y="-120.9379" font-family="Times,serif" font-size="14.00" fill="#000000">Disconnect</text>
</g>
<!-- Connected -->
<g id="node7" class="node">
<title>Connected</title>
<path fill="none" stroke="#000000" d="M1280.905,-329.9379C1280.905,-329.9379 1551.2852,-329.9379 1551.2852,-329.9379 1557.2852,-329.9379 1563.2852,-335.9379 1563.2852,-341.9379 1563.2852,-341.9379 1563.2852,-367.5379 1563.2852,-367.5379 1563.2852,-373.5379 1557.2852,-379.5379 1551.2852,-379.5379 1551.2852,-379.5379 1280.905,-379.5379 1280.905,-379.5379 1274.905,-379.5379 1268.905,-373.5379 1268.905,-367.5379 1268.905,-367.5379 1268.905,-341.9379 1268.905,-341.9379 1268.905,-335.9379 1274.905,-329.9379 1280.905,-329.9379"/>
<text text-anchor="middle" x="1416.0951" y="-362.9379" font-family="Times,serif" font-size="14.00" fill="#000000">Connected</text>
<polyline fill="none" stroke="#000000" points="1268.905,-354.7379 1563.2852,-354.7379 "/>
<text text-anchor="middle" x="1416.0951" y="-338.1379" font-family="Times,serif" font-size="14.00" fill="#000000">entry / CheckConnectionInvitationsAndMessages</text>
</g>
<!-- Initialized&#45;&gt;Connected -->
<g id="edge9" class="edge">
<title>Initialized-&gt;Connected</title>
<path fill="none" stroke="#000000" d="M1089.8978,-192.8211C1152.4201,-223.8557 1280.7154,-287.5385 1356.4427,-325.1278"/>
<polygon fill="#000000" stroke="#000000" points="1355.3481,-328.4919 1365.8615,-329.8031 1358.4605,-322.2218 1355.3481,-328.4919"/>
<text text-anchor="middle" x="1179.3755" y="-273.9379" font-family="Times,serif" font-size="14.00" fill="#000000">Connect</text>
</g>
<!-- Initialized&#45;&gt;AutoReconnection -->
<g id="edge10" class="edge">
<title>Initialized-&gt;AutoReconnection</title>
<path fill="none" stroke="#000000" d="M1090.0705,-174.653C1232.6565,-174.1114 1750.9865,-170.1197 1912.5196,-140.7379 1927.2112,-138.0655 1942.7063,-133.7155 1956.9801,-129.038"/>
<polygon fill="#000000" stroke="#000000" points="1958.2943,-132.2882 1966.642,-125.764 1956.0477,-125.6585 1958.2943,-132.2882"/>
<text text-anchor="middle" x="1416.0951" y="-177.9379" font-family="Times,serif" font-size="14.00" fill="#000000">Disconnect</text>
</g>
<!-- Connected&#45;&gt;AutoReconnection -->
<g id="edge11" class="edge">
<title>Connected-&gt;AutoReconnection</title>
<path fill="none" stroke="#000000" d="M1432.6186,-329.9151C1459.0015,-292.6812 1514.5302,-223.5827 1581.2852,-193.9379 1648.6953,-164.002 1842.5366,-196.033 1912.5196,-172.7379 1938.6088,-164.0536 1964.4968,-146.7941 1983.322,-132.2419"/>
<polygon fill="#000000" stroke="#000000" points="1985.5353,-134.9536 1991.1931,-125.9959 1981.1841,-129.4703 1985.5353,-134.9536"/>
<text text-anchor="middle" x="1746.9024" y="-197.9379" font-family="Times,serif" font-size="14.00" fill="#000000">Disconnect</text>
</g>
<!-- StopMessageReceived -->
<g id="node9" class="node">
<title>StopMessageReceived</title>
<path fill="none" stroke="#000000" d="M1952.6339,-540.9379C1952.6339,-540.9379 2071.3703,-540.9379 2071.3703,-540.9379 2077.3703,-540.9379 2083.3703,-546.9379 2083.3703,-552.9379 2083.3703,-552.9379 2083.3703,-578.5379 2083.3703,-578.5379 2083.3703,-584.5379 2077.3703,-590.5379 2071.3703,-590.5379 2071.3703,-590.5379 1952.6339,-590.5379 1952.6339,-590.5379 1946.6339,-590.5379 1940.6339,-584.5379 1940.6339,-578.5379 1940.6339,-578.5379 1940.6339,-552.9379 1940.6339,-552.9379 1940.6339,-546.9379 1946.6339,-540.9379 1952.6339,-540.9379"/>
<text text-anchor="middle" x="2012.0021" y="-573.9379" font-family="Times,serif" font-size="14.00" fill="#000000">StopMessageReceived</text>
<polyline fill="none" stroke="#000000" points="1940.6339,-565.7379 2083.3703,-565.7379 "/>
<text text-anchor="middle" x="2012.0021" y="-549.1379" font-family="Times,serif" font-size="14.00" fill="#000000">entry / LogoutBot</text>
</g>
<!-- Connected&#45;&gt;StopMessageReceived -->
<g id="edge12" class="edge">
<title>Connected-&gt;StopMessageReceived</title>
<path fill="none" stroke="#000000" d="M1430.5757,-379.6314C1455.5172,-419.8419 1510.7658,-497.9845 1581.2852,-531.7379 1647.8563,-563.6014 1838.9858,-549.6308 1912.5196,-555.9379 1918.3352,-556.4367 1924.3398,-556.9736 1930.3833,-557.5299"/>
<polygon fill="#000000" stroke="#000000" points="1930.2822,-561.0356 1940.5645,-558.4813 1930.9335,-554.066 1930.2822,-561.0356"/>
<text text-anchor="middle" x="1746.9024" y="-559.9379" font-family="Times,serif" font-size="14.00" fill="#000000">StopMessage</text>
</g>
<!-- MessageFromBubble -->
<g id="node10" class="node">
<title>MessageFromBubble</title>
<path fill="none" stroke="#000000" d="M1956.1255,-484.7379C1956.1255,-484.7379 2067.8787,-484.7379 2067.8787,-484.7379 2073.8787,-484.7379 2079.8787,-490.7379 2079.8787,-496.7379 2079.8787,-496.7379 2079.8787,-508.7379 2079.8787,-508.7379 2079.8787,-514.7379 2073.8787,-520.7379 2067.8787,-520.7379 2067.8787,-520.7379 1956.1255,-520.7379 1956.1255,-520.7379 1950.1255,-520.7379 1944.1255,-514.7379 1944.1255,-508.7379 1944.1255,-508.7379 1944.1255,-496.7379 1944.1255,-496.7379 1944.1255,-490.7379 1950.1255,-484.7379 1956.1255,-484.7379"/>
<text text-anchor="middle" x="2012.0021" y="-498.6379" font-family="Times,serif" font-size="14.00" fill="#000000">MessageFromBubble</text>
</g>
<!-- Connected&#45;&gt;MessageFromBubble -->
<g id="edge13" class="edge">
<title>Connected-&gt;MessageFromBubble</title>
<path fill="none" stroke="#000000" d="M1436.1309,-379.6829C1464.4173,-412.725 1519.5465,-469.5285 1581.2852,-492.7379 1643.6,-516.1638 1827.5069,-511.8466 1933.7802,-507.0418"/>
<polygon fill="#000000" stroke="#000000" points="1933.9886,-510.536 1943.8156,-506.5762 1933.6642,-503.5435 1933.9886,-510.536"/>
<text text-anchor="middle" x="1746.9024" y="-514.9379" font-family="Times,serif" font-size="14.00" fill="#000000">MessageReceivedFromBubble / AnswerToBubbleMessage</text>
</g>
<!-- MessageFromPeer -->
<g id="node11" class="node">
<title>MessageFromPeer</title>
<path fill="none" stroke="#000000" d="M1963.9102,-396.7379C1963.9102,-396.7379 2060.094,-396.7379 2060.094,-396.7379 2066.094,-396.7379 2072.094,-402.7379 2072.094,-408.7379 2072.094,-408.7379 2072.094,-420.7379 2072.094,-420.7379 2072.094,-426.7379 2066.094,-432.7379 2060.094,-432.7379 2060.094,-432.7379 1963.9102,-432.7379 1963.9102,-432.7379 1957.9102,-432.7379 1951.9102,-426.7379 1951.9102,-420.7379 1951.9102,-420.7379 1951.9102,-408.7379 1951.9102,-408.7379 1951.9102,-402.7379 1957.9102,-396.7379 1963.9102,-396.7379"/>
<text text-anchor="middle" x="2012.0021" y="-410.6379" font-family="Times,serif" font-size="14.00" fill="#000000">MessageFromPeer</text>
</g>
<!-- Connected&#45;&gt;MessageFromPeer -->
<g id="edge14" class="edge">
<title>Connected-&gt;MessageFromPeer</title>
<path fill="none" stroke="#000000" d="M1472.1825,-379.6737C1503.5844,-392.2868 1543.8463,-406.2667 1581.2852,-412.7379 1706.7908,-434.4308 1855.9561,-428.1429 1941.7399,-421.5046"/>
<polygon fill="#000000" stroke="#000000" points="1942.1915,-424.9798 1951.8813,-420.6952 1941.6345,-418.002 1942.1915,-424.9798"/>
<text text-anchor="middle" x="1746.9024" y="-431.9379" font-family="Times,serif" font-size="14.00" fill="#000000">MessageReceivedFromPeer / AnswerToPeerMessage</text>
</g>
<!-- BubbleInvitationReceived -->
<g id="node12" class="node">
<title>BubbleInvitationReceived</title>
<path fill="none" stroke="#000000" d="M1942.5196,-242.7379C1942.5196,-242.7379 2081.4846,-242.7379 2081.4846,-242.7379 2087.4846,-242.7379 2093.4846,-248.7379 2093.4846,-254.7379 2093.4846,-254.7379 2093.4846,-266.7379 2093.4846,-266.7379 2093.4846,-272.7379 2087.4846,-278.7379 2081.4846,-278.7379 2081.4846,-278.7379 1942.5196,-278.7379 1942.5196,-278.7379 1936.5196,-278.7379 1930.5196,-272.7379 1930.5196,-266.7379 1930.5196,-266.7379 1930.5196,-254.7379 1930.5196,-254.7379 1930.5196,-248.7379 1936.5196,-242.7379 1942.5196,-242.7379"/>
<text text-anchor="middle" x="2012.0021" y="-256.6379" font-family="Times,serif" font-size="14.00" fill="#000000">BubbleInvitationReceived</text>
</g>
<!-- Connected&#45;&gt;BubbleInvitationReceived -->
<g id="edge15" class="edge">
<title>Connected-&gt;BubbleInvitationReceived</title>
<path fill="none" stroke="#000000" d="M1440.1452,-329.7605C1470.0366,-300.7014 1524.1269,-254.3569 1581.2852,-235.9379 1701.2431,-197.282 1849.588,-220.1562 1937.1784,-240.3751"/>
<polygon fill="#000000" stroke="#000000" points="1936.4934,-243.8095 1947.0297,-242.6973 1938.0995,-236.9962 1936.4934,-243.8095"/>
<text text-anchor="middle" x="1746.9024" y="-239.9379" font-family="Times,serif" font-size="14.00" fill="#000000">BubbleInvitationReceived / AnswerToBubbleInvitation</text>
</g>
<!-- InvitationReceived -->
<g id="node13" class="node">
<title>InvitationReceived</title>
<path fill="none" stroke="#000000" d="M1962.7405,-309.7379C1962.7405,-309.7379 2061.2637,-309.7379 2061.2637,-309.7379 2067.2637,-309.7379 2073.2637,-315.7379 2073.2637,-321.7379 2073.2637,-321.7379 2073.2637,-333.7379 2073.2637,-333.7379 2073.2637,-339.7379 2067.2637,-345.7379 2061.2637,-345.7379 2061.2637,-345.7379 1962.7405,-345.7379 1962.7405,-345.7379 1956.7405,-345.7379 1950.7405,-339.7379 1950.7405,-333.7379 1950.7405,-333.7379 1950.7405,-321.7379 1950.7405,-321.7379 1950.7405,-315.7379 1956.7405,-309.7379 1962.7405,-309.7379"/>
<text text-anchor="middle" x="2012.0021" y="-323.6379" font-family="Times,serif" font-size="14.00" fill="#000000">InvitationReceived</text>
</g>
<!-- Connected&#45;&gt;InvitationReceived -->
<g id="edge16" class="edge">
<title>Connected-&gt;InvitationReceived</title>
<path fill="none" stroke="#000000" d="M1563.5428,-348.4327C1662.3006,-344.1532 1795.2165,-338.2849 1912.5196,-332.7379 1921.5897,-332.3089 1931.1242,-331.8456 1940.5512,-331.3801"/>
<polygon fill="#000000" stroke="#000000" points="1940.897,-334.8673 1950.7111,-330.8755 1940.5497,-327.8759 1940.897,-334.8673"/>
<text text-anchor="middle" x="1746.9024" y="-350.9379" font-family="Times,serif" font-size="14.00" fill="#000000">InvitationReceived / AnswerToInvitation</text>
</g>
<!-- AutoReconnection&#45;&gt;Created -->
<g id="edge19" class="edge">
<title>AutoReconnection-&gt;Created</title>
<path fill="none" stroke="#000000" d="M1988.5343,-89.6837C1969.2457,-75.9042 1940.6138,-57.7947 1912.5196,-48.7379 1701.7053,19.2233 1637.5932,-4.7379 1416.0951,-4.7379 241.3287,-4.7379 241.3287,-4.7379 241.3287,-4.7379 185.5451,-4.7379 171.2219,-11.6139 118.1316,-28.7379 115.3619,-29.6312 112.5414,-30.6431 109.7257,-31.7303"/>
<polygon fill="#000000" stroke="#000000" points="108.1519,-28.5938 100.2517,-35.6534 110.83,-35.0612 108.1519,-28.5938"/>
<text text-anchor="middle" x="792.6958" y="-8.9379" font-family="Times,serif" font-size="14.00" fill="#000000">IncorrectCredentials</text>
</g>
<!-- AutoReconnection&#45;&gt;NotConnected -->
<g id="edge18" class="edge">
<title>AutoReconnection-&gt;NotConnected</title>
<path fill="none" stroke="#000000" d="M1951.4385,-94.338C1938.6361,-91.8498 1925.1714,-89.4872 1912.5196,-87.7379 1693.3264,-57.4304 1637.3737,-49.7379 1416.0951,-49.7379 792.6958,-49.7379 792.6958,-49.7379 792.6958,-49.7379 611.2216,-49.7379 400.1202,-95.7818 299.9087,-120.4884"/>
<polygon fill="#000000" stroke="#000000" points="298.8424,-117.1468 289.982,-122.9556 300.531,-123.9401 298.8424,-117.1468"/>
<text text-anchor="middle" x="933.7772" y="-53.9379" font-family="Times,serif" font-size="14.00" fill="#000000">TooManyAttempts</text>
</g>
<!-- AutoReconnection&#45;&gt;Authenticated -->
<g id="edge20" class="edge">
<title>AutoReconnection-&gt;Authenticated</title>
<path fill="none" stroke="#000000" d="M1951.3929,-104.5332C1805.8832,-97.337 1425.3093,-81.4661 1107.846,-93.9379 1017.7154,-97.4787 913.4202,-106.6946 850.2955,-112.8395"/>
<polygon fill="#000000" stroke="#000000" points="849.7556,-109.3756 840.1453,-113.8357 850.4394,-116.3421 849.7556,-109.3756"/>
<text text-anchor="middle" x="1179.3755" y="-98.9379" font-family="Times,serif" font-size="14.00" fill="#000000">AuthenticationSucceeded</text>
</g>
<!-- AutoReconnection&#45;&gt;AutoReconnection -->
<g id="edge17" class="edge">
<title>AutoReconnection-&gt;AutoReconnection</title>
<path fill="none" stroke="#000000" d="M1964.5445,-125.7666C1956.4798,-135.4322 1972.299,-144.2379 2012.0021,-144.2379 2036.8166,-144.2379 2052.3014,-140.7981 2058.4565,-135.8586"/>
<polygon fill="#000000" stroke="#000000" points="2061.9533,-136.0638 2059.4597,-125.7666 2054.9876,-135.3712 2061.9533,-136.0638"/>
<text text-anchor="middle" x="2012.0021" y="-148.4379" font-family="Times,serif" font-size="14.00" fill="#000000">Disconnect</text>
</g>
<!-- StopMessageReceived&#45;&gt;NotConnected -->
<g id="edge21" class="edge">
<title>StopMessageReceived-&gt;NotConnected</title>
<path fill="none" stroke="#000000" d="M1940.5661,-571.1276C1931.1375,-571.7324 1921.5984,-572.2906 1912.5196,-572.7379 1692.0661,-583.5976 1636.8159,-586.7379 1416.0951,-586.7379 497.9516,-586.7379 497.9516,-586.7379 497.9516,-586.7379 302.5806,-586.7379 254.0579,-263.0726 243.789,-164.1275"/>
<polygon fill="#000000" stroke="#000000" points="247.2526,-163.5851 242.7897,-153.9762 240.2863,-164.271 247.2526,-163.5851"/>
<text text-anchor="middle" x="933.7772" y="-590.9379" font-family="Times,serif" font-size="14.00" fill="#000000">Disconnect</text>
</g>
<!-- MessageFromBubble&#45;&gt;Connected -->
<g id="edge22" class="edge">
<title>MessageFromBubble-&gt;Connected</title>
<path fill="none" stroke="#000000" d="M1961.704,-484.7005C1946.1261,-479.7852 1928.7803,-474.9823 1912.5196,-471.9379 1767.4642,-444.7795 1722.5446,-491.4514 1581.2852,-448.7379 1536.055,-435.0613 1489.7369,-407.2718 1457.7012,-385.4382"/>
<polygon fill="#000000" stroke="#000000" points="1459.6813,-382.5521 1449.466,-379.7419 1455.6992,-388.3091 1459.6813,-382.5521"/>
<text text-anchor="middle" x="1746.9024" y="-475.9379" font-family="Times,serif" font-size="14.00" fill="#000000">MessageManaged</text>
</g>
<!-- MessageFromPeer&#45;&gt;Connected -->
<g id="edge23" class="edge">
<title>MessageFromPeer-&gt;Connected</title>
<path fill="none" stroke="#000000" d="M1951.7834,-399.3883C1938.8966,-396.5391 1925.311,-393.8595 1912.5196,-391.9379 1766.5499,-370.0091 1728.4698,-378.9059 1581.2852,-367.7379 1578.7125,-367.5426 1576.1173,-367.3452 1573.5044,-367.1458"/>
<polygon fill="#000000" stroke="#000000" points="1573.5859,-363.6419 1563.3479,-366.3683 1573.0516,-370.6215 1573.5859,-363.6419"/>
<text text-anchor="middle" x="1746.9024" y="-395.9379" font-family="Times,serif" font-size="14.00" fill="#000000">MessageManaged</text>
</g>
<!-- BubbleInvitationReceived&#45;&gt;Connected -->
<g id="edge24" class="edge">
<title>BubbleInvitationReceived-&gt;Connected</title>
<path fill="none" stroke="#000000" d="M1930.135,-254.9137C1842.5147,-250.8173 1700.075,-250.344 1581.2852,-278.9379 1541.2178,-288.5825 1499.0368,-308.1159 1467.328,-324.9375"/>
<polygon fill="#000000" stroke="#000000" points="1465.3979,-322.0017 1458.2561,-329.8276 1468.7194,-328.1636 1465.3979,-322.0017"/>
<text text-anchor="middle" x="1746.9024" y="-282.9379" font-family="Times,serif" font-size="14.00" fill="#000000">BubbleInvitationManaged</text>
</g>
<!-- InvitationReceived&#45;&gt;Connected -->
<g id="edge25" class="edge">
<title>InvitationReceived-&gt;Connected</title>
<path fill="none" stroke="#000000" d="M1950.6238,-316.4401C1938.0616,-314.565 1924.8974,-312.9147 1912.5196,-311.9379 1765.7606,-300.3562 1727.3193,-293.3267 1581.2852,-311.9379 1556.2307,-315.1309 1529.5433,-320.9439 1505.0893,-327.2778"/>
<polygon fill="#000000" stroke="#000000" points="1503.8887,-323.9751 1495.119,-329.92 1505.6819,-330.7415 1503.8887,-323.9751"/>
<text text-anchor="middle" x="1746.9024" y="-315.9379" font-family="Times,serif" font-size="14.00" fill="#000000">InvitationManaged</text>
</g>
<!-- init -->
<g id="node14" class="node">
<title>init</title>
<ellipse fill="#000000" stroke="#000000" cx="1.8" cy="-50.7379" rx="1.8" ry="1.8"/>
</g>
<!-- init&#45;&gt;Created -->
<g id="edge26" class="edge">
<title>init-&gt;Created</title>
<path fill="none" stroke="#000000" d="M3.7781,-50.7379C8.0577,-50.7379 18.7285,-50.7379 30.3044,-50.7379"/>
<polygon fill="#000000" stroke="#000000" points="30.5723,-54.2379 40.5723,-50.7379 30.5723,-47.2379 30.5723,-54.2379"/>
</g>
</g>
</svg>