<?xml version="1.0" encoding="UTF-8" standalone="no"?><!DOCTYPE svg PUBLIC "-//W3C//DTD SVG 1.1//EN" "http://www.w3.org/Graphics/SVG/1.1/DTD/svg11.dtd"><!-- Generated by graphviz version 2.40.1 (20161225.0304)
 --><!-- Title: %0 Pages: 1 --><svg xmlns="http://www.w3.org/2000/svg" xmlns:xlink="http://www.w3.org/1999/xlink" width="1400" viewBox="0.00 0.00 2000 609.95">
<g id="graph0" class="graph" transform="scale(1 1) rotate(0) translate(4 605.9522)">
<title>%0</title>
<polygon fill="#ffffff" stroke="transparent" points="-4,4 -4,-605.9522 1982.3906,-605.9522 1982.3906,4 -4,4"/>
<!-- Created -->
<g id="node1" class="node">
<title>Created</title>
<path fill="none" stroke="#000000" d="M52.6,-31.1522C52.6,-31.1522 88.1316,-31.1522 88.1316,-31.1522 94.1316,-31.1522 100.1316,-37.1522 100.1316,-43.1522 100.1316,-43.1522 100.1316,-55.1522 100.1316,-55.1522 100.1316,-61.1522 94.1316,-67.1522 88.1316,-67.1522 88.1316,-67.1522 52.6,-67.1522 52.6,-67.1522 46.6,-67.1522 40.6,-61.1522 40.6,-55.1522 40.6,-55.1522 40.6,-43.1522 40.6,-43.1522 40.6,-37.1522 46.6,-31.1522 52.6,-31.1522"/>
<text text-anchor="middle" x="70.3658" y="-45.0522" font-family="Times,serif" font-size="14.00" fill="#000000">Created</text>
</g>
<!-- NotConnected -->
<g id="node2" class="node">
<title>NotConnected</title>
<path fill="none" stroke="#000000" d="M204.8946,-116.1522C204.8946,-116.1522 277.7628,-116.1522 277.7628,-116.1522 283.7628,-116.1522 289.7628,-122.1522 289.7628,-128.1522 289.7628,-128.1522 289.7628,-140.1522 289.7628,-140.1522 289.7628,-146.1522 283.7628,-152.1522 277.7628,-152.1522 277.7628,-152.1522 204.8946,-152.1522 204.8946,-152.1522 198.8946,-152.1522 192.8946,-146.1522 192.8946,-140.1522 192.8946,-140.1522 192.8946,-128.1522 192.8946,-128.1522 192.8946,-122.1522 198.8946,-116.1522 204.8946,-116.1522"/>
<text text-anchor="middle" x="241.3287" y="-130.0522" font-family="Times,serif" font-size="14.00" fill="#000000">NotConnected</text>
</g>
<!-- Created&#45;&gt;NotConnected -->
<g id="edge1" class="edge">
<title>Created-&gt;NotConnected</title>
<path fill="none" stroke="#000000" d="M100.1453,-63.9581C126.5885,-77.1053 165.6278,-96.515 195.9563,-111.5938"/>
<polygon fill="#000000" stroke="#000000" points="194.5528,-114.8047 205.0653,-116.1227 197.6692,-108.5366 194.5528,-114.8047"/>
<text text-anchor="middle" x="146.5131" y="-104.3522" font-family="Times,serif" font-size="14.00" fill="#000000">Configure</text>
</g>
<!-- Connecting -->
<g id="node3" class="node">
<title>Connecting</title>
<path fill="none" stroke="#000000" d="M469.6781,-116.1522C469.6781,-116.1522 526.2251,-116.1522 526.2251,-116.1522 532.2251,-116.1522 538.2251,-122.1522 538.2251,-128.1522 538.2251,-128.1522 538.2251,-140.1522 538.2251,-140.1522 538.2251,-146.1522 532.2251,-152.1522 526.2251,-152.1522 526.2251,-152.1522 469.6781,-152.1522 469.6781,-152.1522 463.6781,-152.1522 457.6781,-146.1522 457.6781,-140.1522 457.6781,-140.1522 457.6781,-128.1522 457.6781,-128.1522 457.6781,-122.1522 463.6781,-116.1522 469.6781,-116.1522"/>
<text text-anchor="middle" x="497.9516" y="-130.0522" font-family="Times,serif" font-size="14.00" fill="#000000">Connecting</text>
</g>
<!-- NotConnected&#45;&gt;Connecting -->
<g id="edge2" class="edge">
<title>NotConnected-&gt;Connecting</title>
<path fill="none" stroke="#000000" d="M289.8992,-134.1522C334.9248,-134.1522 401.6544,-134.1522 447.326,-134.1522"/>
<polygon fill="#000000" stroke="#000000" points="447.5952,-137.6523 457.5952,-134.1522 447.5951,-130.6523 447.5952,-137.6523"/>
<text text-anchor="middle" x="364.8996" y="-138.3522" font-family="Times,serif" font-size="14.00" fill="#000000">StartLogin</text>
</g>
<!-- ConnectionFailed -->
<g id="node4" class="node">
<title>ConnectionFailed</title>
<path fill="none" stroke="#000000" d="M746.9258,-154.1522C746.9258,-154.1522 838.4658,-154.1522 838.4658,-154.1522 844.4658,-154.1522 850.4658,-160.1522 850.4658,-166.1522 850.4658,-166.1522 850.4658,-178.1522 850.4658,-178.1522 850.4658,-184.1522 844.4658,-190.1522 838.4658,-190.1522 838.4658,-190.1522 746.9258,-190.1522 746.9258,-190.1522 740.9258,-190.1522 734.9258,-184.1522 734.9258,-178.1522 734.9258,-178.1522 734.9258,-166.1522 734.9258,-166.1522 734.9258,-160.1522 740.9258,-154.1522 746.9258,-154.1522"/>
<text text-anchor="middle" x="792.6958" y="-168.0522" font-family="Times,serif" font-size="14.00" fill="#000000">ConnectionFailed</text>
</g>
<!-- Connecting&#45;&gt;ConnectionFailed -->
<g id="edge3" class="edge">
<title>Connecting-&gt;ConnectionFailed</title>
<path fill="none" stroke="#000000" d="M538.4187,-137.7678C582.448,-141.9012 654.8587,-149.2818 716.9258,-158.3522 719.5636,-158.7377 722.2501,-159.1469 724.9618,-159.5737"/>
<polygon fill="#000000" stroke="#000000" points="724.4152,-163.0307 734.8481,-161.1854 725.5415,-156.1219 724.4152,-163.0307"/>
<text text-anchor="middle" x="645.3963" y="-163.3522" font-family="Times,serif" font-size="14.00" fill="#000000">Disconnect</text>
</g>
<!-- Authenticated -->
<g id="node5" class="node">
<title>Authenticated</title>
<path fill="none" stroke="#000000" d="M757.4321,-99.1522C757.4321,-99.1522 827.9595,-99.1522 827.9595,-99.1522 833.9595,-99.1522 839.9595,-105.1522 839.9595,-111.1522 839.9595,-111.1522 839.9595,-123.1522 839.9595,-123.1522 839.9595,-129.1522 833.9595,-135.1522 827.9595,-135.1522 827.9595,-135.1522 757.4321,-135.1522 757.4321,-135.1522 751.4321,-135.1522 745.4321,-129.1522 745.4321,-123.1522 745.4321,-123.1522 745.4321,-111.1522 745.4321,-111.1522 745.4321,-105.1522 751.4321,-99.1522 757.4321,-99.1522"/>
<text text-anchor="middle" x="792.6958" y="-113.0522" font-family="Times,serif" font-size="14.00" fill="#000000">Authenticated</text>
</g>
<!-- Connecting&#45;&gt;Authenticated -->
<g id="edge4" class="edge">
<title>Connecting-&gt;Authenticated</title>
<path fill="none" stroke="#000000" d="M538.2952,-124.1964C549.7212,-121.803 562.2197,-119.5837 573.8668,-118.3522 628.2561,-112.6015 690.6743,-112.9391 734.8921,-114.336"/>
<polygon fill="#000000" stroke="#000000" points="735.0478,-117.8434 745.1624,-114.6898 735.2888,-110.8475 735.0478,-117.8434"/>
<text text-anchor="middle" x="645.3963" y="-123.3522" font-family="Times,serif" font-size="14.00" fill="#000000">AuthenticationSucceeded</text>
</g>
<!-- ConnectionFailed&#45;&gt;Created -->
<g id="edge6" class="edge">
<title>ConnectionFailed-&gt;Created</title>
<path fill="none" stroke="#000000" d="M747.8811,-154.0937C743.2124,-151.1735 738.7754,-147.8672 734.9258,-144.1522 722.6224,-132.279 731.143,-119.6505 716.9258,-110.1522 522.341,19.8464 218.2746,-20.8532 110.1602,-40.9126"/>
<polygon fill="#000000" stroke="#000000" points="109.4901,-37.4772 100.3195,-42.783 110.7972,-44.3541 109.4901,-37.4772"/>
<text text-anchor="middle" x="364.8996" y="-25.3522" font-family="Times,serif" font-size="14.00" fill="#000000">IncorrectCredentials</text>
</g>
<!-- ConnectionFailed&#45;&gt;NotConnected -->
<g id="edge5" class="edge">
<title>ConnectionFailed-&gt;NotConnected</title>
<path fill="none" stroke="#000000" d="M734.7864,-174.681C728.7561,-174.8738 722.7172,-175.0376 716.9258,-175.1522 534.8941,-178.7545 486.5334,-189.6429 307.7628,-155.1522 305.1257,-154.6435 302.4463,-154.065 299.7518,-153.4327"/>
<polygon fill="#000000" stroke="#000000" points="300.5325,-150.0198 289.9774,-150.9363 298.8003,-156.8021 300.5325,-150.0198"/>
<text text-anchor="middle" x="497.9516" y="-184.3522" font-family="Times,serif" font-size="14.00" fill="#000000">ServerNotReachable</text>
</g>
<!-- Initialized -->
<g id="node6" class="node">
<title>Initialized</title>
<path fill="none" stroke="#000000" d="M1029.0886,-155.1522C1029.0886,-155.1522 1077.846,-155.1522 1077.846,-155.1522 1083.846,-155.1522 1089.846,-161.1522 1089.846,-167.1522 1089.846,-167.1522 1089.846,-179.1522 1089.846,-179.1522 1089.846,-185.1522 1083.846,-191.1522 1077.846,-191.1522 1077.846,-191.1522 1029.0886,-191.1522 1029.0886,-191.1522 1023.0886,-191.1522 1017.0886,-185.1522 1017.0886,-179.1522 1017.0886,-179.1522 1017.0886,-167.1522 1017.0886,-167.1522 1017.0886,-161.1522 1023.0886,-155.1522 1029.0886,-155.1522"/>
<text text-anchor="middle" x="1053.4673" y="-169.0522" font-family="Times,serif" font-size="14.00" fill="#000000">Initialized</text>
</g>
<!-- Authenticated&#45;&gt;Initialized -->
<g id="edge7" class="edge">
<title>Authenticated-&gt;Initialized</title>
<path fill="none" stroke="#000000" d="M840.1551,-132.4957C849.4864,-135.2464 859.2423,-137.9379 868.4658,-140.1522 915.152,-151.3604 969.2984,-160.5876 1006.8998,-166.4075"/>
<polygon fill="#000000" stroke="#000000" points="1006.6328,-169.9073 1017.0467,-167.9575 1007.6899,-162.9875 1006.6328,-169.9073"/>
<text text-anchor="middle" x="933.7772" y="-169.3522" font-family="Times,serif" font-size="14.00" fill="#000000">InitializationPerformed</text>
</g>
<!-- AutoReconnection -->
<g id="node8" class="node">
<title>AutoReconnection</title>
<path fill="none" stroke="#000000" d="M1848.4214,-88.1522C1848.4214,-88.1522 1945.3948,-88.1522 1945.3948,-88.1522 1951.3948,-88.1522 1957.3948,-94.1522 1957.3948,-100.1522 1957.3948,-100.1522 1957.3948,-112.1522 1957.3948,-112.1522 1957.3948,-118.1522 1951.3948,-124.1522 1945.3948,-124.1522 1945.3948,-124.1522 1848.4214,-124.1522 1848.4214,-124.1522 1842.4214,-124.1522 1836.4214,-118.1522 1836.4214,-112.1522 1836.4214,-112.1522 1836.4214,-100.1522 1836.4214,-100.1522 1836.4214,-94.1522 1842.4214,-88.1522 1848.4214,-88.1522"/>
<text text-anchor="middle" x="1896.9081" y="-102.0522" font-family="Times,serif" font-size="14.00" fill="#000000">AutoReconnection</text>
</g>
<!-- Authenticated&#45;&gt;AutoReconnection -->
<g id="edge8" class="edge">
<title>Authenticated-&gt;AutoReconnection</title>
<path fill="none" stroke="#000000" d="M840.1424,-116.6796C1014.1918,-114.9457 1618.2301,-108.9284 1826.0334,-106.8583"/>
<polygon fill="#000000" stroke="#000000" points="1826.2503,-110.3564 1836.2149,-106.7569 1826.1805,-103.3567 1826.2503,-110.3564"/>
<text text-anchor="middle" x="1179.3755" y="-118.3522" font-family="Times,serif" font-size="14.00" fill="#000000">Disconnect</text>
</g>
<!-- Connected -->
<g id="node7" class="node">
<title>Connected</title>
<path fill="none" stroke="#000000" d="M1280.905,-328.3522C1280.905,-328.3522 1436.1912,-328.3522 1436.1912,-328.3522 1442.1912,-328.3522 1448.1912,-334.3522 1448.1912,-340.3522 1448.1912,-340.3522 1448.1912,-365.9522 1448.1912,-365.9522 1448.1912,-371.9522 1442.1912,-377.9522 1436.1912,-377.9522 1436.1912,-377.9522 1280.905,-377.9522 1280.905,-377.9522 1274.905,-377.9522 1268.905,-371.9522 1268.905,-365.9522 1268.905,-365.9522 1268.905,-340.3522 1268.905,-340.3522 1268.905,-334.3522 1274.905,-328.3522 1280.905,-328.3522"/>
<text text-anchor="middle" x="1358.5481" y="-361.3522" font-family="Times,serif" font-size="14.00" fill="#000000">Connected</text>
<polyline fill="none" stroke="#000000" points="1268.905,-353.1522 1448.1912,-353.1522 "/>
<text text-anchor="middle" x="1358.5481" y="-336.5522" font-family="Times,serif" font-size="14.00" fill="#000000">entry / CheckConnectedState</text>
</g>
<!-- Initialized&#45;&gt;Connected -->
<g id="edge9" class="edge">
<title>Initialized-&gt;Connected</title>
<path fill="none" stroke="#000000" d="M1084.1164,-191.2355C1136.5026,-222.1437 1243.774,-285.4347 1307.5815,-323.0816"/>
<polygon fill="#000000" stroke="#000000" points="1305.8951,-326.1503 1316.2863,-328.2175 1309.4522,-320.1214 1305.8951,-326.1503"/>
<text text-anchor="middle" x="1179.3755" y="-288.3522" font-family="Times,serif" font-size="14.00" fill="#000000">Connect</text>
</g>
<!-- Initialized&#45;&gt;AutoReconnection -->
<g id="edge10" class="edge">
<title>Initialized-&gt;AutoReconnection</title>
<path fill="none" stroke="#000000" d="M1089.9513,-172.8077C1219.8355,-171.3749 1659.3244,-164.7082 1797.4256,-139.1522 1811.9636,-136.4619 1827.2944,-132.1552 1841.4504,-127.5291"/>
<polygon fill="#000000" stroke="#000000" points="1842.6841,-130.8067 1851.0388,-124.2913 1840.4446,-124.1746 1842.6841,-130.8067"/>
<text text-anchor="middle" x="1358.5481" y="-174.3522" font-family="Times,serif" font-size="14.00" fill="#000000">Disconnect</text>
</g>
<!-- Connected&#45;&gt;Connected -->
<g id="edge11" class="edge">
<title>Connected-&gt;Connected</title>
<path fill="none" stroke="#000000" d="M1325.3768,-378.07C1323.5027,-388.0639 1334.5598,-396.4522 1358.5481,-396.4522 1373.9156,-396.4522 1383.9761,-393.0097 1388.7297,-387.9078"/>
<polygon fill="#000000" stroke="#000000" points="1392.1604,-388.6557 1391.7194,-378.07 1385.4629,-386.6202 1392.1604,-388.6557"/>
<text text-anchor="middle" x="1358.5481" y="-400.6522" font-family="Times,serif" font-size="14.00" fill="#000000">DequeueInvitationsAndMessages / CheckConnectedState</text>
</g>
<!-- Connected&#45;&gt;AutoReconnection -->
<g id="edge12" class="edge">
<title>Connected-&gt;AutoReconnection</title>
<path fill="none" stroke="#000000" d="M1367.6956,-328.2199C1382.3468,-292.2759 1414.7687,-226.9703 1466.1912,-197.3522 1530.1745,-160.4995 1727.5445,-194.9978 1797.4256,-171.1522 1823.4488,-162.2723 1849.3396,-145.0209 1868.1825,-130.5214"/>
<polygon fill="#000000" stroke="#000000" points="1870.3817,-133.2444 1876.0623,-124.3012 1866.0445,-127.75 1870.3817,-133.2444"/>
<text text-anchor="middle" x="1631.8084" y="-201.3522" font-family="Times,serif" font-size="14.00" fill="#000000">Disconnect</text>
</g>
<!-- StopMessageReceived -->
<g id="node9" class="node">
<title>StopMessageReceived</title>
<path fill="none" stroke="#000000" d="M1837.5399,-539.3522C1837.5399,-539.3522 1956.2763,-539.3522 1956.2763,-539.3522 1962.2763,-539.3522 1968.2763,-545.3522 1968.2763,-551.3522 1968.2763,-551.3522 1968.2763,-576.9522 1968.2763,-576.9522 1968.2763,-582.9522 1962.2763,-588.9522 1956.2763,-588.9522 1956.2763,-588.9522 1837.5399,-588.9522 1837.5399,-588.9522 1831.5399,-588.9522 1825.5399,-582.9522 1825.5399,-576.9522 1825.5399,-576.9522 1825.5399,-551.3522 1825.5399,-551.3522 1825.5399,-545.3522 1831.5399,-539.3522 1837.5399,-539.3522"/>
<text text-anchor="middle" x="1896.9081" y="-572.3522" font-family="Times,serif" font-size="14.00" fill="#000000">StopMessageReceived</text>
<polyline fill="none" stroke="#000000" points="1825.5399,-564.1522 1968.2763,-564.1522 "/>
<text text-anchor="middle" x="1896.9081" y="-547.5522" font-family="Times,serif" font-size="14.00" fill="#000000">entry / LogoutBot</text>
</g>
<!-- Connected&#45;&gt;StopMessageReceived -->
<g id="edge13" class="edge">
<title>Connected-&gt;StopMessageReceived</title>
<path fill="none" stroke="#000000" d="M1365.5359,-378.2694C1378.1855,-418.4557 1409.0238,-496.2272 1466.1912,-531.1522 1497.6748,-550.3863 1760.6619,-551.2546 1797.4256,-554.3522 1803.2419,-554.8423 1809.2471,-555.3728 1815.291,-555.9245"/>
<polygon fill="#000000" stroke="#000000" points="1815.1919,-559.4303 1825.4727,-556.8699 1815.8391,-552.4603 1815.1919,-559.4303"/>
<text text-anchor="middle" x="1631.8084" y="-558.3522" font-family="Times,serif" font-size="14.00" fill="#000000">StopMessage</text>
</g>
<!-- MessageFromBubble -->
<g id="node10" class="node">
<title>MessageFromBubble</title>
<path fill="none" stroke="#000000" d="M1841.0315,-483.1522C1841.0315,-483.1522 1952.7847,-483.1522 1952.7847,-483.1522 1958.7847,-483.1522 1964.7847,-489.1522 1964.7847,-495.1522 1964.7847,-495.1522 1964.7847,-507.1522 1964.7847,-507.1522 1964.7847,-513.1522 1958.7847,-519.1522 1952.7847,-519.1522 1952.7847,-519.1522 1841.0315,-519.1522 1841.0315,-519.1522 1835.0315,-519.1522 1829.0315,-513.1522 1829.0315,-507.1522 1829.0315,-507.1522 1829.0315,-495.1522 1829.0315,-495.1522 1829.0315,-489.1522 1835.0315,-483.1522 1841.0315,-483.1522"/>
<text text-anchor="middle" x="1896.9081" y="-497.0522" font-family="Times,serif" font-size="14.00" fill="#000000">MessageFromBubble</text>
</g>
<!-- Connected&#45;&gt;MessageFromBubble -->
<g id="edge14" class="edge">
<title>Connected-&gt;MessageFromBubble</title>
<path fill="none" stroke="#000000" d="M1369.516,-378.1225C1385.4502,-410.9144 1418.4107,-467.1342 1466.1912,-491.1522 1525.8336,-521.1329 1711.6938,-514.1678 1818.7705,-507.202"/>
<polygon fill="#000000" stroke="#000000" points="1819.1344,-510.6856 1828.8799,-506.5291 1818.6695,-503.7011 1819.1344,-510.6856"/>
<text text-anchor="middle" x="1631.8084" y="-517.3522" font-family="Times,serif" font-size="14.00" fill="#000000">MessageReceivedFromBubble / AnswerToBubbleMessage</text>
</g>
<!-- MessageFromPeer -->
<g id="node11" class="node">
<title>MessageFromPeer</title>
<path fill="none" stroke="#000000" d="M1848.8162,-395.1522C1848.8162,-395.1522 1945,-395.1522 1945,-395.1522 1951,-395.1522 1957,-401.1522 1957,-407.1522 1957,-407.1522 1957,-419.1522 1957,-419.1522 1957,-425.1522 1951,-431.1522 1945,-431.1522 1945,-431.1522 1848.8162,-431.1522 1848.8162,-431.1522 1842.8162,-431.1522 1836.8162,-425.1522 1836.8162,-419.1522 1836.8162,-419.1522 1836.8162,-407.1522 1836.8162,-407.1522 1836.8162,-401.1522 1842.8162,-395.1522 1848.8162,-395.1522"/>
<text text-anchor="middle" x="1896.9081" y="-409.0522" font-family="Times,serif" font-size="14.00" fill="#000000">MessageFromPeer</text>
</g>
<!-- Connected&#45;&gt;MessageFromPeer -->
<g id="edge15" class="edge">
<title>Connected-&gt;MessageFromPeer</title>
<path fill="none" stroke="#000000" d="M1394.0613,-378.0259C1414.2103,-390.6202 1440.4771,-404.602 1466.1912,-411.1522 1589.9159,-442.6693 1740.1974,-433.0353 1826.5756,-423.1222"/>
<polygon fill="#000000" stroke="#000000" points="1827.0095,-426.5953 1836.5296,-421.9459 1826.1879,-419.6437 1827.0095,-426.5953"/>
<text text-anchor="middle" x="1631.8084" y="-436.3522" font-family="Times,serif" font-size="14.00" fill="#000000">MessageReceivedFromPeer / AnswerToPeerMessage</text>
</g>
<!-- BubbleInvitationReceived -->
<g id="node12" class="node">
<title>BubbleInvitationReceived</title>
<path fill="none" stroke="#000000" d="M1827.4256,-241.1522C1827.4256,-241.1522 1966.3906,-241.1522 1966.3906,-241.1522 1972.3906,-241.1522 1978.3906,-247.1522 1978.3906,-253.1522 1978.3906,-253.1522 1978.3906,-265.1522 1978.3906,-265.1522 1978.3906,-271.1522 1972.3906,-277.1522 1966.3906,-277.1522 1966.3906,-277.1522 1827.4256,-277.1522 1827.4256,-277.1522 1821.4256,-277.1522 1815.4256,-271.1522 1815.4256,-265.1522 1815.4256,-265.1522 1815.4256,-253.1522 1815.4256,-253.1522 1815.4256,-247.1522 1821.4256,-241.1522 1827.4256,-241.1522"/>
<text text-anchor="middle" x="1896.9081" y="-255.0522" font-family="Times,serif" font-size="14.00" fill="#000000">BubbleInvitationReceived</text>
</g>
<!-- Connected&#45;&gt;BubbleInvitationReceived -->
<g id="edge16" class="edge">
<title>Connected-&gt;BubbleInvitationReceived</title>
<path fill="none" stroke="#000000" d="M1372.3404,-328.1769C1389.8572,-299.3542 1423.0641,-253.4728 1466.1912,-234.3522 1533.4819,-204.5186 1724.3665,-225.383 1797.4256,-234.3522 1806.313,-235.4433 1815.549,-237.0632 1824.6534,-238.9619"/>
<polygon fill="#000000" stroke="#000000" points="1823.9396,-242.3885 1834.4582,-241.1199 1825.4443,-235.5522 1823.9396,-242.3885"/>
<text text-anchor="middle" x="1631.8084" y="-238.3522" font-family="Times,serif" font-size="14.00" fill="#000000">BubbleInvitationReceived / AnswerToBubbleInvitation</text>
</g>
<!-- InvitationReceived -->
<g id="node13" class="node">
<title>InvitationReceived</title>
<path fill="none" stroke="#000000" d="M1847.6465,-308.1522C1847.6465,-308.1522 1946.1697,-308.1522 1946.1697,-308.1522 1952.1697,-308.1522 1958.1697,-314.1522 1958.1697,-320.1522 1958.1697,-320.1522 1958.1697,-332.1522 1958.1697,-332.1522 1958.1697,-338.1522 1952.1697,-344.1522 1946.1697,-344.1522 1946.1697,-344.1522 1847.6465,-344.1522 1847.6465,-344.1522 1841.6465,-344.1522 1835.6465,-338.1522 1835.6465,-332.1522 1835.6465,-332.1522 1835.6465,-320.1522 1835.6465,-320.1522 1835.6465,-314.1522 1841.6465,-308.1522 1847.6465,-308.1522"/>
<text text-anchor="middle" x="1896.9081" y="-322.0522" font-family="Times,serif" font-size="14.00" fill="#000000">InvitationReceived</text>
</g>
<!-- Connected&#45;&gt;InvitationReceived -->
<g id="edge17" class="edge">
<title>Connected-&gt;InvitationReceived</title>
<path fill="none" stroke="#000000" d="M1448.4858,-348.6473C1537.1979,-344.203 1676.6585,-337.214 1797.4256,-331.1522 1806.4944,-330.697 1816.0282,-330.2182 1825.4547,-329.7446"/>
<polygon fill="#000000" stroke="#000000" points="1825.8026,-333.2317 1835.6143,-329.2341 1825.4513,-326.2405 1825.8026,-333.2317"/>
<text text-anchor="middle" x="1631.8084" y="-351.3522" font-family="Times,serif" font-size="14.00" fill="#000000">InvitationReceived / AnswerToInvitation</text>
</g>
<!-- AutoReconnection&#45;&gt;Created -->
<g id="edge20" class="edge">
<title>AutoReconnection-&gt;Created</title>
<path fill="none" stroke="#000000" d="M1873.8584,-88.1428C1854.5819,-74.1333 1825.7591,-55.5476 1797.4256,-46.1522 1611.3959,15.5349 1554.5388,-3.1522 1358.5481,-3.1522 241.3287,-3.1522 241.3287,-3.1522 241.3287,-3.1522 185.5451,-3.1522 171.2219,-10.0283 118.1316,-27.1522 115.3619,-28.0456 112.5414,-29.0575 109.7257,-30.1447"/>
<polygon fill="#000000" stroke="#000000" points="108.1519,-27.0081 100.2517,-34.0678 110.83,-33.4756 108.1519,-27.0081"/>
<text text-anchor="middle" x="792.6958" y="-7.3522" font-family="Times,serif" font-size="14.00" fill="#000000">IncorrectCredentials</text>
</g>
<!-- AutoReconnection&#45;&gt;NotConnected -->
<g id="edge19" class="edge">
<title>AutoReconnection-&gt;NotConnected</title>
<path fill="none" stroke="#000000" d="M1836.3308,-92.8495C1823.5294,-90.3546 1810.0686,-87.9646 1797.4256,-86.1522 1603.6204,-58.3698 1554.3346,-48.1522 1358.5481,-48.1522 792.6958,-48.1522 792.6958,-48.1522 792.6958,-48.1522 611.2216,-48.1522 400.1202,-94.1962 299.9087,-118.9027"/>
<polygon fill="#000000" stroke="#000000" points="298.8424,-115.5612 289.982,-121.37 300.531,-122.3545 298.8424,-115.5612"/>
<text text-anchor="middle" x="933.7772" y="-52.3522" font-family="Times,serif" font-size="14.00" fill="#000000">TooManyAttempts</text>
</g>
<!-- AutoReconnection&#45;&gt;Authenticated -->
<g id="edge21" class="edge">
<title>AutoReconnection-&gt;Authenticated</title>
<path fill="none" stroke="#000000" d="M1836.2474,-102.7475C1703.9237,-95.8355 1379.4319,-81.6828 1107.846,-92.3522 1017.7154,-95.8931 913.4202,-105.109 850.2955,-111.2539"/>
<polygon fill="#000000" stroke="#000000" points="849.7556,-107.79 840.1453,-112.2501 850.4394,-114.7565 849.7556,-107.79"/>
<text text-anchor="middle" x="1179.3755" y="-97.3522" font-family="Times,serif" font-size="14.00" fill="#000000">AuthenticationSucceeded</text>
</g>
<!-- AutoReconnection&#45;&gt;AutoReconnection -->
<g id="edge18" class="edge">
<title>AutoReconnection-&gt;AutoReconnection</title>
<path fill="none" stroke="#000000" d="M1849.4505,-124.1809C1841.3858,-133.8466 1857.205,-142.6522 1896.9081,-142.6522 1921.7226,-142.6522 1937.2074,-139.2125 1943.3625,-134.273"/>
<polygon fill="#000000" stroke="#000000" points="1946.8593,-134.4781 1944.3657,-124.1809 1939.8936,-133.7856 1946.8593,-134.4781"/>
<text text-anchor="middle" x="1896.9081" y="-146.8522" font-family="Times,serif" font-size="14.00" fill="#000000">Disconnect</text>
</g>
<!-- StopMessageReceived&#45;&gt;NotConnected -->
<g id="edge22" class="edge">
<title>StopMessageReceived-&gt;NotConnected</title>
<path fill="none" stroke="#000000" d="M1825.4705,-569.5102C1816.0421,-570.1201 1806.5036,-570.6882 1797.4256,-571.1522 1602.5241,-581.1142 1553.704,-585.1522 1358.5481,-585.1522 497.9516,-585.1522 497.9516,-585.1522 497.9516,-585.1522 302.5806,-585.1522 254.0579,-261.487 243.789,-162.5418"/>
<polygon fill="#000000" stroke="#000000" points="247.2526,-161.9995 242.7897,-152.3906 240.2863,-162.6854 247.2526,-161.9995"/>
<text text-anchor="middle" x="933.7772" y="-589.3522" font-family="Times,serif" font-size="14.00" fill="#000000">Disconnect</text>
</g>
<!-- MessageFromBubble&#45;&gt;Connected -->
<g id="edge23" class="edge">
<title>MessageFromBubble-&gt;Connected</title>
<path fill="none" stroke="#000000" d="M1846.8875,-483.0744C1831.2449,-478.1261 1813.7933,-473.315 1797.4256,-470.3522 1724.8734,-457.2195 1534.1531,-479.7436 1466.1912,-451.1522 1433.0582,-437.2133 1403.5148,-408.5125 1383.7996,-385.7556"/>
<polygon fill="#000000" stroke="#000000" points="1386.3698,-383.3742 1377.2463,-377.988 1381.0196,-387.8881 1386.3698,-383.3742"/>
<text text-anchor="middle" x="1631.8084" y="-474.3522" font-family="Times,serif" font-size="14.00" fill="#000000">MessageManaged</text>
</g>
<!-- MessageFromPeer&#45;&gt;Connected -->
<g id="edge24" class="edge">
<title>MessageFromPeer-&gt;Connected</title>
<path fill="none" stroke="#000000" d="M1836.6981,-397.7437C1823.8108,-394.8986 1810.2227,-392.2354 1797.4256,-390.3522 1651.4521,-368.8712 1612.9595,-383.2771 1466.1912,-368.1522 1463.6456,-367.8899 1461.0676,-367.6133 1458.4678,-367.3246"/>
<polygon fill="#000000" stroke="#000000" points="1458.6899,-363.8271 1448.3543,-366.1561 1457.8865,-370.7808 1458.6899,-363.8271"/>
<text text-anchor="middle" x="1631.8084" y="-394.3522" font-family="Times,serif" font-size="14.00" fill="#000000">MessageManaged</text>
</g>
<!-- BubbleInvitationReceived&#45;&gt;Connected -->
<g id="edge25" class="edge">
<title>BubbleInvitationReceived-&gt;Connected</title>
<path fill="none" stroke="#000000" d="M1815.2644,-256.8929C1708.7141,-254.8922 1528.4982,-255.0237 1466.1912,-276.3522 1438.7023,-285.762 1412.0838,-304.6389 1392.1939,-321.3222"/>
<polygon fill="#000000" stroke="#000000" points="1389.6623,-318.8834 1384.3712,-328.0625 1394.2316,-324.1864 1389.6623,-318.8834"/>
<text text-anchor="middle" x="1631.8084" y="-280.3522" font-family="Times,serif" font-size="14.00" fill="#000000">BubbleInvitationManaged</text>
</g>
<!-- InvitationReceived&#45;&gt;Connected -->
<g id="edge26" class="edge">
<title>InvitationReceived-&gt;Connected</title>
<path fill="none" stroke="#000000" d="M1835.6213,-315.3402C1751.4947,-302.4336 1595.9044,-285.5104 1466.1912,-310.3522 1450.5554,-313.3467 1434.2969,-318.5817 1419.2959,-324.3852"/>
<polygon fill="#000000" stroke="#000000" points="1417.6142,-321.2888 1409.6388,-328.2632 1420.2228,-327.7846 1417.6142,-321.2888"/>
<text text-anchor="middle" x="1631.8084" y="-314.3522" font-family="Times,serif" font-size="14.00" fill="#000000">InvitationManaged</text>
</g>
<!-- init -->
<g id="node14" class="node">
<title>init</title>
<ellipse fill="#000000" stroke="#000000" cx="1.8" cy="-49.1522" rx="1.8" ry="1.8"/>
</g>
<!-- init&#45;&gt;Created -->
<g id="edge27" class="edge">
<title>init-&gt;Created</title>
<path fill="none" stroke="#000000" d="M3.7781,-49.1522C8.0577,-49.1522 18.7285,-49.1522 30.3044,-49.1522"/>
<polygon fill="#000000" stroke="#000000" points="30.5723,-52.6523 40.5723,-49.1522 30.5723,-45.6523 30.5723,-52.6523"/>
</g>
</g>
</svg>
