<?xml version="1.0" encoding="UTF-8" standalone="no"?><!DOCTYPE svg PUBLIC "-//W3C//DTD SVG 1.1//EN" "http://www.w3.org/Graphics/SVG/1.1/DTD/svg11.dtd"><!-- Generated by graphviz version 2.40.1 (20161225.0304)
 --><!-- Title: %0 Pages: 1 --><svg xmlns="http://www.w3.org/2000/svg" xmlns:xlink="http://www.w3.org/1999/xlink" width="1935pt" height="444pt" viewBox="0.00 0.00 1935.02 444.10">
<g id="graph0" class="graph" transform="scale(1 1) rotate(0) translate(4 440.1)">
<title>%0</title>
<polygon fill="#ffffff" stroke="transparent" points="-4,4 -4,-440.1 1931.0232,-440.1 1931.0232,4 -4,4"/>
<!-- Created -->
<g id="node1" class="node">
<title>Created</title>
<path fill="none" stroke="#000000" d="M52.6,-193.3C52.6,-193.3 88.1316,-193.3 88.1316,-193.3 94.1316,-193.3 100.1316,-199.3 100.1316,-205.3 100.1316,-205.3 100.1316,-217.3 100.1316,-217.3 100.1316,-223.3 94.1316,-229.3 88.1316,-229.3 88.1316,-229.3 52.6,-229.3 52.6,-229.3 46.6,-229.3 40.6,-223.3 40.6,-217.3 40.6,-217.3 40.6,-205.3 40.6,-205.3 40.6,-199.3 46.6,-193.3 52.6,-193.3"/>
<text text-anchor="middle" x="70.3658" y="-207.2" font-family="Times,serif" font-size="14.00" fill="#000000">Created</text>
</g>
<!-- NotConnected -->
<g id="node2" class="node">
<title>NotConnected</title>
<path fill="none" stroke="#000000" d="M204.8946,-296.3C204.8946,-296.3 277.7628,-296.3 277.7628,-296.3 283.7628,-296.3 289.7628,-302.3 289.7628,-308.3 289.7628,-308.3 289.7628,-320.3 289.7628,-320.3 289.7628,-326.3 283.7628,-332.3 277.7628,-332.3 277.7628,-332.3 204.8946,-332.3 204.8946,-332.3 198.8946,-332.3 192.8946,-326.3 192.8946,-320.3 192.8946,-320.3 192.8946,-308.3 192.8946,-308.3 192.8946,-302.3 198.8946,-296.3 204.8946,-296.3"/>
<text text-anchor="middle" x="241.3287" y="-310.2" font-family="Times,serif" font-size="14.00" fill="#000000">NotConnected</text>
</g>
<!-- Created&#45;&gt;NotConnected -->
<g id="edge1" class="edge">
<title>Created-&gt;NotConnected</title>
<path fill="none" stroke="#000000" d="M95.8697,-229.5321C102.991,-234.4543 110.7904,-239.6909 118.1316,-244.3 144.4569,-260.8281 174.8086,-278.0939 198.7985,-291.3426"/>
<polygon fill="#000000" stroke="#000000" points="197.2104,-294.4635 207.6597,-296.2136 200.5825,-288.3292 197.2104,-294.4635"/>
<text text-anchor="middle" x="146.5131" y="-281.5" font-family="Times,serif" font-size="14.00" fill="#000000">Configure</text>
</g>
<!-- Connecting -->
<g id="node3" class="node">
<title>Connecting</title>
<path fill="none" stroke="#000000" d="M469.6781,-349.3C469.6781,-349.3 526.2251,-349.3 526.2251,-349.3 532.2251,-349.3 538.2251,-355.3 538.2251,-361.3 538.2251,-361.3 538.2251,-373.3 538.2251,-373.3 538.2251,-379.3 532.2251,-385.3 526.2251,-385.3 526.2251,-385.3 469.6781,-385.3 469.6781,-385.3 463.6781,-385.3 457.6781,-379.3 457.6781,-373.3 457.6781,-373.3 457.6781,-361.3 457.6781,-361.3 457.6781,-355.3 463.6781,-349.3 469.6781,-349.3"/>
<text text-anchor="middle" x="497.9516" y="-363.2" font-family="Times,serif" font-size="14.00" fill="#000000">Connecting</text>
</g>
<!-- NotConnected&#45;&gt;Connecting -->
<g id="edge2" class="edge">
<title>NotConnected-&gt;Connecting</title>
<path fill="none" stroke="#000000" d="M289.9411,-324.5762C295.9422,-325.8354 301.9927,-327.1004 307.7628,-328.3 355.1718,-338.1561 409.2657,-349.2321 447.6114,-357.0549"/>
<polygon fill="#000000" stroke="#000000" points="447.0003,-360.5023 457.498,-359.071 448.399,-353.6434 447.0003,-360.5023"/>
<text text-anchor="middle" x="364.8996" y="-355.5" font-family="Times,serif" font-size="14.00" fill="#000000">StartLogin</text>
</g>
<!-- ConnectionFailed -->
<g id="node4" class="node">
<title>ConnectionFailed</title>
<path fill="none" stroke="#000000" d="M746.9258,-296.3C746.9258,-296.3 838.4658,-296.3 838.4658,-296.3 844.4658,-296.3 850.4658,-302.3 850.4658,-308.3 850.4658,-308.3 850.4658,-320.3 850.4658,-320.3 850.4658,-326.3 844.4658,-332.3 838.4658,-332.3 838.4658,-332.3 746.9258,-332.3 746.9258,-332.3 740.9258,-332.3 734.9258,-326.3 734.9258,-320.3 734.9258,-320.3 734.9258,-308.3 734.9258,-308.3 734.9258,-302.3 740.9258,-296.3 746.9258,-296.3"/>
<text text-anchor="middle" x="792.6958" y="-310.2" font-family="Times,serif" font-size="14.00" fill="#000000">ConnectionFailed</text>
</g>
<!-- Connecting&#45;&gt;ConnectionFailed -->
<g id="edge3" class="edge">
<title>Connecting-&gt;ConnectionFailed</title>
<path fill="none" stroke="#000000" d="M538.3477,-355.9273C549.7742,-352.9388 562.2598,-349.8873 573.8668,-347.5 588.4989,-344.4905 666.0984,-332.887 724.7688,-324.2406"/>
<polygon fill="#000000" stroke="#000000" points="725.3618,-327.6911 734.7453,-322.7719 724.3422,-320.7658 725.3618,-327.6911"/>
<text text-anchor="middle" x="645.3963" y="-351.5" font-family="Times,serif" font-size="14.00" fill="#000000">Disconnect</text>
</g>
<!-- Authenticated -->
<g id="node5" class="node">
<title>Authenticated</title>
<path fill="none" stroke="#000000" d="M757.4321,-353.3C757.4321,-353.3 827.9595,-353.3 827.9595,-353.3 833.9595,-353.3 839.9595,-359.3 839.9595,-365.3 839.9595,-365.3 839.9595,-377.3 839.9595,-377.3 839.9595,-383.3 833.9595,-389.3 827.9595,-389.3 827.9595,-389.3 757.4321,-389.3 757.4321,-389.3 751.4321,-389.3 745.4321,-383.3 745.4321,-377.3 745.4321,-377.3 745.4321,-365.3 745.4321,-365.3 745.4321,-359.3 751.4321,-353.3 757.4321,-353.3"/>
<text text-anchor="middle" x="792.6958" y="-367.2" font-family="Times,serif" font-size="14.00" fill="#000000">Authenticated</text>
</g>
<!-- Connecting&#45;&gt;Authenticated -->
<g id="edge4" class="edge">
<title>Connecting-&gt;Authenticated</title>
<path fill="none" stroke="#000000" d="M538.3165,-367.8478C589.2572,-368.5391 677.2069,-369.7327 735.1699,-370.5193"/>
<polygon fill="#000000" stroke="#000000" points="735.225,-374.0203 745.2717,-370.6564 735.3201,-367.0209 735.225,-374.0203"/>
<text text-anchor="middle" x="645.3963" y="-373.5" font-family="Times,serif" font-size="14.00" fill="#000000">AuthenticationSucceeded</text>
</g>
<!-- ConnectionFailed&#45;&gt;Created -->
<g id="edge6" class="edge">
<title>ConnectionFailed-&gt;Created</title>
<path fill="none" stroke="#000000" d="M734.7925,-306.0433C593.0369,-285.8298 231.3588,-234.2567 110.4323,-217.0132"/>
<polygon fill="#000000" stroke="#000000" points="110.8778,-213.5414 100.4838,-215.5946 109.8895,-220.4713 110.8778,-213.5414"/>
<text text-anchor="middle" x="364.8996" y="-264.5" font-family="Times,serif" font-size="14.00" fill="#000000">IncorrectCredentials</text>
</g>
<!-- ConnectionFailed&#45;&gt;NotConnected -->
<g id="edge5" class="edge">
<title>ConnectionFailed-&gt;NotConnected</title>
<path fill="none" stroke="#000000" d="M734.7421,-314.3C629.0659,-314.3 406.1828,-314.3 299.9876,-314.3"/>
<polygon fill="#000000" stroke="#000000" points="299.7757,-310.8001 289.7756,-314.3 299.7756,-317.8001 299.7757,-310.8001"/>
<text text-anchor="middle" x="497.9516" y="-318.5" font-family="Times,serif" font-size="14.00" fill="#000000">ServerNotReachable</text>
</g>
<!-- Initialized -->
<g id="node6" class="node">
<title>Initialized</title>
<path fill="none" stroke="#000000" d="M1029.0886,-276.3C1029.0886,-276.3 1077.846,-276.3 1077.846,-276.3 1083.846,-276.3 1089.846,-282.3 1089.846,-288.3 1089.846,-288.3 1089.846,-300.3 1089.846,-300.3 1089.846,-306.3 1083.846,-312.3 1077.846,-312.3 1077.846,-312.3 1029.0886,-312.3 1029.0886,-312.3 1023.0886,-312.3 1017.0886,-306.3 1017.0886,-300.3 1017.0886,-300.3 1017.0886,-288.3 1017.0886,-288.3 1017.0886,-282.3 1023.0886,-276.3 1029.0886,-276.3"/>
<text text-anchor="middle" x="1053.4673" y="-290.2" font-family="Times,serif" font-size="14.00" fill="#000000">Initialized</text>
</g>
<!-- Authenticated&#45;&gt;Initialized -->
<g id="edge7" class="edge">
<title>Authenticated-&gt;Initialized</title>
<path fill="none" stroke="#000000" d="M835.9338,-353.2479C841.1555,-350.0448 846.1566,-346.3996 850.4658,-342.3 862.2321,-331.106 854.8064,-319.2848 868.4658,-310.5 909.6262,-284.0283 967.0148,-283.2526 1006.9175,-287.0078"/>
<polygon fill="#000000" stroke="#000000" points="1006.6027,-290.494 1016.9183,-288.0775 1007.3472,-283.5337 1006.6027,-290.494"/>
<text text-anchor="middle" x="933.7772" y="-314.5" font-family="Times,serif" font-size="14.00" fill="#000000">InitializationPerformed</text>
</g>
<!-- AutoReconnection -->
<g id="node8" class="node">
<title>AutoReconnection</title>
<path fill="none" stroke="#000000" d="M1807.1683,-300.3C1807.1683,-300.3 1904.1417,-300.3 1904.1417,-300.3 1910.1417,-300.3 1916.1417,-306.3 1916.1417,-312.3 1916.1417,-312.3 1916.1417,-324.3 1916.1417,-324.3 1916.1417,-330.3 1910.1417,-336.3 1904.1417,-336.3 1904.1417,-336.3 1807.1683,-336.3 1807.1683,-336.3 1801.1683,-336.3 1795.1683,-330.3 1795.1683,-324.3 1795.1683,-324.3 1795.1683,-312.3 1795.1683,-312.3 1795.1683,-306.3 1801.1683,-300.3 1807.1683,-300.3"/>
<text text-anchor="middle" x="1855.655" y="-314.2" font-family="Times,serif" font-size="14.00" fill="#000000">AutoReconnection</text>
</g>
<!-- Authenticated&#45;&gt;AutoReconnection -->
<g id="edge8" class="edge">
<title>Authenticated-&gt;AutoReconnection</title>
<path fill="none" stroke="#000000" d="M840.2112,-372.8652C1010.0328,-378.0945 1586.3795,-392.6093 1766.2868,-355.3 1781.3832,-352.1693 1797.1461,-346.5251 1811.1557,-340.573"/>
<polygon fill="#000000" stroke="#000000" points="1812.8087,-343.6692 1820.5448,-336.4302 1809.9829,-337.2649 1812.8087,-343.6692"/>
<text text-anchor="middle" x="1179.3755" y="-383.5" font-family="Times,serif" font-size="14.00" fill="#000000">Disconnect</text>
</g>
<!-- Connected -->
<g id="node7" class="node">
<title>Connected</title>
<path fill="none" stroke="#000000" d="M1280.905,-127.5C1280.905,-127.5 1436.1912,-127.5 1436.1912,-127.5 1442.1912,-127.5 1448.1912,-133.5 1448.1912,-139.5 1448.1912,-139.5 1448.1912,-165.1 1448.1912,-165.1 1448.1912,-171.1 1442.1912,-177.1 1436.1912,-177.1 1436.1912,-177.1 1280.905,-177.1 1280.905,-177.1 1274.905,-177.1 1268.905,-171.1 1268.905,-165.1 1268.905,-165.1 1268.905,-139.5 1268.905,-139.5 1268.905,-133.5 1274.905,-127.5 1280.905,-127.5"/>
<text text-anchor="middle" x="1358.5481" y="-160.5" font-family="Times,serif" font-size="14.00" fill="#000000">Connected</text>
<polyline fill="none" stroke="#000000" points="1268.905,-152.3 1448.1912,-152.3 "/>
<text text-anchor="middle" x="1358.5481" y="-135.7" font-family="Times,serif" font-size="14.00" fill="#000000">entry / CheckConnectedState</text>
</g>
<!-- Initialized&#45;&gt;Connected -->
<g id="edge9" class="edge">
<title>Initialized-&gt;Connected</title>
<path fill="none" stroke="#000000" d="M1086.6564,-276.298C1093.6154,-272.6431 1100.9388,-268.8844 1107.846,-265.5 1169.4133,-235.3336 1240.7715,-203.4009 1291.5765,-181.1702"/>
<polygon fill="#000000" stroke="#000000" points="1293.0534,-184.3445 1300.8167,-177.1347 1290.2518,-177.9296 1293.0534,-184.3445"/>
<text text-anchor="middle" x="1179.3755" y="-269.5" font-family="Times,serif" font-size="14.00" fill="#000000">Connect</text>
</g>
<!-- Initialized&#45;&gt;AutoReconnection -->
<g id="edge10" class="edge">
<title>Initialized-&gt;AutoReconnection</title>
<path fill="none" stroke="#000000" d="M1090.0201,-295.3936C1214.0113,-299.1032 1620.0236,-311.2503 1785.0061,-316.1863"/>
<polygon fill="#000000" stroke="#000000" points="1784.9469,-319.686 1795.0471,-316.4867 1785.1563,-312.6891 1784.9469,-319.686"/>
<text text-anchor="middle" x="1358.5481" y="-309.5" font-family="Times,serif" font-size="14.00" fill="#000000">Disconnect</text>
</g>
<!-- Connected&#45;&gt;Created -->
<g id="edge16" class="edge">
<title>Connected-&gt;Created</title>
<path fill="none" stroke="#000000" d="M1268.7834,-149.6071C1208.0134,-148.0121 1125.9115,-146.3 1053.4673,-146.3 241.3287,-146.3 241.3287,-146.3 241.3287,-146.3 184.7575,-146.3 169.5682,-154.7505 118.1316,-178.3 112.6129,-180.8267 107.0475,-183.9906 101.7627,-187.3523"/>
<polygon fill="#000000" stroke="#000000" points="99.535,-184.6326 93.1916,-193.1186 103.4424,-190.4406 99.535,-184.6326"/>
<text text-anchor="middle" x="645.3963" y="-150.5" font-family="Times,serif" font-size="14.00" fill="#000000">AllMCQTestPassed</text>
</g>
<!-- Connected&#45;&gt;Connected -->
<g id="edge11" class="edge">
<title>Connected-&gt;Connected</title>
<path fill="none" stroke="#000000" d="M1325.3768,-177.2178C1323.5027,-187.2117 1334.5598,-195.6 1358.5481,-195.6 1373.9156,-195.6 1383.9761,-192.1574 1388.7297,-187.0556"/>
<polygon fill="#000000" stroke="#000000" points="1392.1604,-187.8034 1391.7194,-177.2178 1385.4629,-185.768 1392.1604,-187.8034"/>
<text text-anchor="middle" x="1358.5481" y="-199.8" font-family="Times,serif" font-size="14.00" fill="#000000">DequeueMessages / CheckConnectedState</text>
</g>
<!-- Connected&#45;&gt;AutoReconnection -->
<g id="edge12" class="edge">
<title>Connected-&gt;AutoReconnection</title>
<path fill="none" stroke="#000000" d="M1397.6687,-177.1654C1417.4563,-188.5483 1442.2944,-201.083 1466.1912,-208.3 1594.6042,-247.0818 1643.3486,-186.8334 1766.2868,-240.5 1792.9356,-252.1331 1817.402,-274.6389 1833.9715,-292.464"/>
<polygon fill="#000000" stroke="#000000" points="1831.7125,-295.1853 1841.0083,-300.2686 1836.9114,-290.4979 1831.7125,-295.1853"/>
<text text-anchor="middle" x="1616.239" y="-245.5" font-family="Times,serif" font-size="14.00" fill="#000000">Disconnect</text>
</g>
<!-- StopMessageReceived -->
<g id="node9" class="node">
<title>StopMessageReceived</title>
<path fill="none" stroke="#000000" d="M1796.2868,-.5C1796.2868,-.5 1915.0232,-.5 1915.0232,-.5 1921.0232,-.5 1927.0232,-6.5 1927.0232,-12.5 1927.0232,-12.5 1927.0232,-38.1 1927.0232,-38.1 1927.0232,-44.1 1921.0232,-50.1 1915.0232,-50.1 1915.0232,-50.1 1796.2868,-50.1 1796.2868,-50.1 1790.2868,-50.1 1784.2868,-44.1 1784.2868,-38.1 1784.2868,-38.1 1784.2868,-12.5 1784.2868,-12.5 1784.2868,-6.5 1790.2868,-.5 1796.2868,-.5"/>
<text text-anchor="middle" x="1855.655" y="-33.5" font-family="Times,serif" font-size="14.00" fill="#000000">StopMessageReceived</text>
<polyline fill="none" stroke="#000000" points="1784.2868,-25.3 1927.0232,-25.3 "/>
<text text-anchor="middle" x="1855.655" y="-8.7" font-family="Times,serif" font-size="14.00" fill="#000000">entry / LogoutBot</text>
</g>
<!-- Connected&#45;&gt;StopMessageReceived -->
<g id="edge13" class="edge">
<title>Connected-&gt;StopMessageReceived</title>
<path fill="none" stroke="#000000" d="M1390.1092,-127.3169C1408.3149,-111.9999 1430.9425,-91.3428 1448.1912,-70.3 1458.0002,-58.3334 1452.8662,-48.365 1466.1912,-40.5 1491.9122,-25.3184 1667.4,-23.8475 1773.8423,-24.3967"/>
<polygon fill="#000000" stroke="#000000" points="1773.8999,-27.897 1783.9203,-24.4558 1773.941,-20.8972 1773.8999,-27.897"/>
<text text-anchor="middle" x="1616.239" y="-45.5" font-family="Times,serif" font-size="14.00" fill="#000000">StopMessage</text>
</g>
<!-- MessageFromPeer -->
<g id="node10" class="node">
<title>MessageFromPeer</title>
<path fill="none" stroke="#000000" d="M1807.5631,-161.3C1807.5631,-161.3 1903.7469,-161.3 1903.7469,-161.3 1909.7469,-161.3 1915.7469,-167.3 1915.7469,-173.3 1915.7469,-173.3 1915.7469,-185.3 1915.7469,-185.3 1915.7469,-191.3 1909.7469,-197.3 1903.7469,-197.3 1903.7469,-197.3 1807.5631,-197.3 1807.5631,-197.3 1801.5631,-197.3 1795.5631,-191.3 1795.5631,-185.3 1795.5631,-185.3 1795.5631,-173.3 1795.5631,-173.3 1795.5631,-167.3 1801.5631,-161.3 1807.5631,-161.3"/>
<text text-anchor="middle" x="1855.655" y="-175.2" font-family="Times,serif" font-size="14.00" fill="#000000">MessageFromPeer</text>
</g>
<!-- Connected&#45;&gt;MessageFromPeer -->
<g id="edge14" class="edge">
<title>Connected-&gt;MessageFromPeer</title>
<path fill="none" stroke="#000000" d="M1448.4432,-174.7344C1454.4245,-175.7451 1460.3794,-176.6189 1466.1912,-177.3 1577.0584,-190.2938 1706.8984,-187.3606 1785.1354,-183.6386"/>
<polygon fill="#000000" stroke="#000000" points="1785.5399,-187.123 1795.355,-183.1338 1785.1945,-180.1315 1785.5399,-187.123"/>
<text text-anchor="middle" x="1616.239" y="-191.5" font-family="Times,serif" font-size="14.00" fill="#000000">MessageReceivedFromPeer / AnswerToPeerMessage</text>
</g>
<!-- InitializeUserMCQ -->
<g id="node11" class="node">
<title>InitializeUserMCQ</title>
<path fill="none" stroke="#000000" d="M1805.6192,-74.3C1805.6192,-74.3 1905.6908,-74.3 1905.6908,-74.3 1911.6908,-74.3 1917.6908,-80.3 1917.6908,-86.3 1917.6908,-86.3 1917.6908,-98.3 1917.6908,-98.3 1917.6908,-104.3 1911.6908,-110.3 1905.6908,-110.3 1905.6908,-110.3 1805.6192,-110.3 1805.6192,-110.3 1799.6192,-110.3 1793.6192,-104.3 1793.6192,-98.3 1793.6192,-98.3 1793.6192,-86.3 1793.6192,-86.3 1793.6192,-80.3 1799.6192,-74.3 1805.6192,-74.3"/>
<text text-anchor="middle" x="1855.655" y="-88.2" font-family="Times,serif" font-size="14.00" fill="#000000">InitializeUserMCQ</text>
</g>
<!-- Connected&#45;&gt;InitializeUserMCQ -->
<g id="edge15" class="edge">
<title>Connected-&gt;InitializeUserMCQ</title>
<path fill="none" stroke="#000000" d="M1385.8467,-127.4093C1406.3015,-110.531 1435.8773,-89.6823 1466.1912,-80.5 1572.979,-48.153 1703.8403,-62.3882 1783.4207,-76.6069"/>
<polygon fill="#000000" stroke="#000000" points="1782.8769,-80.0654 1793.3443,-78.4275 1784.1401,-73.1803 1782.8769,-80.0654"/>
<text text-anchor="middle" x="1616.239" y="-85.5" font-family="Times,serif" font-size="14.00" fill="#000000">MCQToInitialize / InitializeUserMCQ</text>
</g>
<!-- AutoReconnection&#45;&gt;Created -->
<g id="edge19" class="edge">
<title>AutoReconnection-&gt;Created</title>
<path fill="none" stroke="#000000" d="M1794.6935,-306.8006C1785.2017,-305.1795 1775.4924,-303.6187 1766.2868,-302.3 1474.9245,-260.561 1398.7218,-276.3045 1107.846,-231.3 1059.1102,-223.7596 1048.0268,-215.3902 999.0886,-209.3 842.9152,-189.8648 802.7743,-192.3 645.3963,-192.3 241.3287,-192.3 241.3287,-192.3 241.3287,-192.3 196.267,-192.3 144.931,-198.9008 110.372,-204.3212"/>
<polygon fill="#000000" stroke="#000000" points="109.5276,-200.912 100.2109,-205.9569 110.6401,-207.823 109.5276,-200.912"/>
<text text-anchor="middle" x="792.6958" y="-199.5" font-family="Times,serif" font-size="14.00" fill="#000000">IncorrectCredentials</text>
</g>
<!-- AutoReconnection&#45;&gt;NotConnected -->
<g id="edge18" class="edge">
<title>AutoReconnection-&gt;NotConnected</title>
<path fill="none" stroke="#000000" d="M1836.0585,-336.378C1818.9961,-350.9499 1792.8856,-370.5623 1766.2868,-380.3 1595.3383,-442.8837 1540.5924,-419.3 1358.5481,-419.3 497.9516,-419.3 497.9516,-419.3 497.9516,-419.3 410.8804,-419.3 384.9947,-412.5073 307.7628,-372.3 291.8321,-364.0064 276.552,-351.1353 264.6712,-339.6232"/>
<polygon fill="#000000" stroke="#000000" points="266.9224,-336.924 257.382,-332.316 261.9665,-341.8677 266.9224,-336.924"/>
<text text-anchor="middle" x="933.7772" y="-423.5" font-family="Times,serif" font-size="14.00" fill="#000000">TooManyAttempts</text>
</g>
<!-- AutoReconnection&#45;&gt;Authenticated -->
<g id="edge20" class="edge">
<title>AutoReconnection-&gt;Authenticated</title>
<path fill="none" stroke="#000000" d="M1795.0933,-322.5206C1785.459,-323.1474 1775.6015,-323.7625 1766.2868,-324.3 1586.2681,-334.6873 1031.2621,-360.3518 850.3567,-368.6593"/>
<polygon fill="#000000" stroke="#000000" points="850.0785,-365.1683 840.2496,-369.1233 850.3996,-372.1609 850.0785,-365.1683"/>
<text text-anchor="middle" x="1179.3755" y="-360.5" font-family="Times,serif" font-size="14.00" fill="#000000">AuthenticationSucceeded</text>
</g>
<!-- AutoReconnection&#45;&gt;AutoReconnection -->
<g id="edge17" class="edge">
<title>AutoReconnection-&gt;AutoReconnection</title>
<path fill="none" stroke="#000000" d="M1812.8712,-336.3287C1805.6008,-345.9943 1819.862,-354.8 1855.655,-354.8 1878.0256,-354.8 1891.9854,-351.3603 1897.5343,-346.4207"/>
<polygon fill="#000000" stroke="#000000" points="1901.0321,-346.6012 1898.4388,-336.3287 1894.0601,-345.9763 1901.0321,-346.6012"/>
<text text-anchor="middle" x="1855.655" y="-359" font-family="Times,serif" font-size="14.00" fill="#000000">Disconnect</text>
</g>
<!-- StopMessageReceived&#45;&gt;NotConnected -->
<g id="edge21" class="edge">
<title>StopMessageReceived-&gt;NotConnected</title>
<path fill="none" stroke="#000000" d="M1784.1032,-17.7138C1705.6112,-10.9799 1576.1562,-4.5526 1466.1912,-21.3 1182.8071,-64.4586 1129.3523,-147.0312 850.4658,-213.3 650.9241,-260.7149 409.4018,-293.6719 300.1074,-307.2974"/>
<polygon fill="#000000" stroke="#000000" points="299.4432,-303.8529 289.9492,-308.5555 300.3036,-310.7998 299.4432,-303.8529"/>
<text text-anchor="middle" x="933.7772" y="-213.5" font-family="Times,serif" font-size="14.00" fill="#000000">Disconnect</text>
</g>
<!-- MessageFromPeer&#45;&gt;Connected -->
<g id="edge22" class="edge">
<title>MessageFromPeer-&gt;Connected</title>
<path fill="none" stroke="#000000" d="M1795.4654,-161.8612C1785.783,-159.6602 1775.813,-157.7459 1766.2868,-156.5 1662.0109,-142.8622 1541.4553,-143.6378 1458.6273,-146.6913"/>
<polygon fill="#000000" stroke="#000000" points="1458.3213,-143.2004 1448.4641,-147.0844 1458.5919,-150.1952 1458.3213,-143.2004"/>
<text text-anchor="middle" x="1616.239" y="-161.5" font-family="Times,serif" font-size="14.00" fill="#000000">MessageManaged</text>
</g>
<!-- InitializeUserMCQ&#45;&gt;Connected -->
<g id="edge23" class="edge">
<title>InitializeUserMCQ-&gt;Connected</title>
<path fill="none" stroke="#000000" d="M1793.2572,-96.1599C1699.6444,-102.172 1527.3166,-114.1575 1466.1912,-124.5 1463.6518,-124.9297 1461.0846,-125.3901 1458.4996,-125.8769"/>
<polygon fill="#000000" stroke="#000000" points="1457.5843,-122.4903 1448.4604,-127.8759 1458.9514,-129.3555 1457.5843,-122.4903"/>
<text text-anchor="middle" x="1616.239" y="-129.5" font-family="Times,serif" font-size="14.00" fill="#000000">MCQInitialized</text>
</g>
<!-- init -->
<g id="node12" class="node">
<title>init</title>
<ellipse fill="#000000" stroke="#000000" cx="1.8" cy="-211.3" rx="1.8" ry="1.8"/>
</g>
<!-- init&#45;&gt;Created -->
<g id="edge24" class="edge">
<title>init-&gt;Created</title>
<path fill="none" stroke="#000000" d="M3.7781,-211.3C8.0577,-211.3 18.7285,-211.3 30.3044,-211.3"/>
<polygon fill="#000000" stroke="#000000" points="30.5723,-214.8001 40.5723,-211.3 30.5723,-207.8001 30.5723,-214.8001"/>
</g>
</g>
</svg>