<?xml version="1.0" encoding="UTF-8" standalone="no"?><!DOCTYPE svg PUBLIC "-//W3C//DTD SVG 1.1//EN" "http://www.w3.org/Graphics/SVG/1.1/DTD/svg11.dtd"><!-- Generated by graphviz version 2.40.1 (20161225.0304)
 --><!-- Title: %0 Pages: 1 --><svg xmlns="http://www.w3.org/2000/svg" xmlns:xlink="http://www.w3.org/1999/xlink" width="2087pt" height="601pt" viewBox="0.00 0.00 2086.70 600.61">
<g id="graph0" class="graph" transform="scale(1 1) rotate(0) translate(4 596.6114)">
<title>%0</title>
<polygon fill="#ffffff" stroke="transparent" points="-4,4 -4,-596.6114 2082.7048,-596.6114 2082.7048,4 -4,4"/>
<!-- Created -->
<g id="node1" class="node">
<title>Created</title>
<path fill="none" stroke="#000000" d="M52.6,-447.8114C52.6,-447.8114 88.1316,-447.8114 88.1316,-447.8114 94.1316,-447.8114 100.1316,-453.8114 100.1316,-459.8114 100.1316,-459.8114 100.1316,-471.8114 100.1316,-471.8114 100.1316,-477.8114 94.1316,-483.8114 88.1316,-483.8114 88.1316,-483.8114 52.6,-483.8114 52.6,-483.8114 46.6,-483.8114 40.6,-477.8114 40.6,-471.8114 40.6,-471.8114 40.6,-459.8114 40.6,-459.8114 40.6,-453.8114 46.6,-447.8114 52.6,-447.8114"/>
<text text-anchor="middle" x="70.3658" y="-461.7114" font-family="Times,serif" font-size="14.00" fill="#000000">Created</text>
</g>
<!-- NotConnected -->
<g id="node2" class="node">
<title>NotConnected</title>
<path fill="none" stroke="#000000" d="M204.8946,-447.8114C204.8946,-447.8114 277.7628,-447.8114 277.7628,-447.8114 283.7628,-447.8114 289.7628,-453.8114 289.7628,-459.8114 289.7628,-459.8114 289.7628,-471.8114 289.7628,-471.8114 289.7628,-477.8114 283.7628,-483.8114 277.7628,-483.8114 277.7628,-483.8114 204.8946,-483.8114 204.8946,-483.8114 198.8946,-483.8114 192.8946,-477.8114 192.8946,-471.8114 192.8946,-471.8114 192.8946,-459.8114 192.8946,-459.8114 192.8946,-453.8114 198.8946,-447.8114 204.8946,-447.8114"/>
<text text-anchor="middle" x="241.3287" y="-461.7114" font-family="Times,serif" font-size="14.00" fill="#000000">NotConnected</text>
</g>
<!-- Created&#45;&gt;NotConnected -->
<g id="edge1" class="edge">
<title>Created-&gt;NotConnected</title>
<path fill="none" stroke="#000000" d="M100.1453,-465.8114C122.8948,-465.8114 154.9673,-465.8114 182.7953,-465.8114"/>
<polygon fill="#000000" stroke="#000000" points="182.8306,-469.3115 192.8306,-465.8114 182.8305,-462.3115 182.8306,-469.3115"/>
<text text-anchor="middle" x="146.5131" y="-470.0114" font-family="Times,serif" font-size="14.00" fill="#000000">Configure</text>
</g>
<!-- Connecting -->
<g id="node3" class="node">
<title>Connecting</title>
<path fill="none" stroke="#000000" d="M469.6781,-409.8114C469.6781,-409.8114 526.2251,-409.8114 526.2251,-409.8114 532.2251,-409.8114 538.2251,-415.8114 538.2251,-421.8114 538.2251,-421.8114 538.2251,-433.8114 538.2251,-433.8114 538.2251,-439.8114 532.2251,-445.8114 526.2251,-445.8114 526.2251,-445.8114 469.6781,-445.8114 469.6781,-445.8114 463.6781,-445.8114 457.6781,-439.8114 457.6781,-433.8114 457.6781,-433.8114 457.6781,-421.8114 457.6781,-421.8114 457.6781,-415.8114 463.6781,-409.8114 469.6781,-409.8114"/>
<text text-anchor="middle" x="497.9516" y="-423.7114" font-family="Times,serif" font-size="14.00" fill="#000000">Connecting</text>
</g>
<!-- NotConnected&#45;&gt;Connecting -->
<g id="edge2" class="edge">
<title>NotConnected-&gt;Connecting</title>
<path fill="none" stroke="#000000" d="M289.865,-455.2721C295.8792,-454.1012 301.9535,-452.9828 307.7628,-452.0114 354.7253,-444.1583 408.5895,-437.5253 446.9781,-433.2009"/>
<polygon fill="#000000" stroke="#000000" points="447.8253,-436.6283 457.3767,-432.0433 447.0508,-429.6713 447.8253,-436.6283"/>
<text text-anchor="middle" x="364.8996" y="-457.0114" font-family="Times,serif" font-size="14.00" fill="#000000">StartLogin</text>
</g>
<!-- ConnectionFailed -->
<g id="node4" class="node">
<title>ConnectionFailed</title>
<path fill="none" stroke="#000000" d="M746.9258,-447.8114C746.9258,-447.8114 838.4658,-447.8114 838.4658,-447.8114 844.4658,-447.8114 850.4658,-453.8114 850.4658,-459.8114 850.4658,-459.8114 850.4658,-471.8114 850.4658,-471.8114 850.4658,-477.8114 844.4658,-483.8114 838.4658,-483.8114 838.4658,-483.8114 746.9258,-483.8114 746.9258,-483.8114 740.9258,-483.8114 734.9258,-477.8114 734.9258,-471.8114 734.9258,-471.8114 734.9258,-459.8114 734.9258,-459.8114 734.9258,-453.8114 740.9258,-447.8114 746.9258,-447.8114"/>
<text text-anchor="middle" x="792.6958" y="-461.7114" font-family="Times,serif" font-size="14.00" fill="#000000">ConnectionFailed</text>
</g>
<!-- Connecting&#45;&gt;ConnectionFailed -->
<g id="edge3" class="edge">
<title>Connecting-&gt;ConnectionFailed</title>
<path fill="none" stroke="#000000" d="M538.4187,-431.4269C582.448,-435.5603 654.8587,-442.9409 716.9258,-452.0114 719.5636,-452.3969 722.2501,-452.806 724.9618,-453.2328"/>
<polygon fill="#000000" stroke="#000000" points="724.4152,-456.6898 734.8481,-454.8445 725.5415,-449.781 724.4152,-456.6898"/>
<text text-anchor="middle" x="645.3963" y="-457.0114" font-family="Times,serif" font-size="14.00" fill="#000000">Disconnect</text>
</g>
<!-- Authenticated -->
<g id="node5" class="node">
<title>Authenticated</title>
<path fill="none" stroke="#000000" d="M757.4321,-392.8114C757.4321,-392.8114 827.9595,-392.8114 827.9595,-392.8114 833.9595,-392.8114 839.9595,-398.8114 839.9595,-404.8114 839.9595,-404.8114 839.9595,-416.8114 839.9595,-416.8114 839.9595,-422.8114 833.9595,-428.8114 827.9595,-428.8114 827.9595,-428.8114 757.4321,-428.8114 757.4321,-428.8114 751.4321,-428.8114 745.4321,-422.8114 745.4321,-416.8114 745.4321,-416.8114 745.4321,-404.8114 745.4321,-404.8114 745.4321,-398.8114 751.4321,-392.8114 757.4321,-392.8114"/>
<text text-anchor="middle" x="792.6958" y="-406.7114" font-family="Times,serif" font-size="14.00" fill="#000000">Authenticated</text>
</g>
<!-- Connecting&#45;&gt;Authenticated -->
<g id="edge4" class="edge">
<title>Connecting-&gt;Authenticated</title>
<path fill="none" stroke="#000000" d="M538.2952,-417.8555C549.7212,-415.4621 562.2197,-413.2429 573.8668,-412.0114 628.2561,-406.2607 690.6743,-406.5982 734.8921,-407.9952"/>
<polygon fill="#000000" stroke="#000000" points="735.0478,-411.5025 745.1624,-408.349 735.2888,-404.5067 735.0478,-411.5025"/>
<text text-anchor="middle" x="645.3963" y="-417.0114" font-family="Times,serif" font-size="14.00" fill="#000000">AuthenticationSucceeded</text>
</g>
<!-- ConnectionFailed&#45;&gt;Created -->
<g id="edge6" class="edge">
<title>ConnectionFailed-&gt;Created</title>
<path fill="none" stroke="#000000" d="M747.8811,-447.7528C743.2124,-444.8326 738.7754,-441.5264 734.9258,-437.8114 722.6224,-425.9382 731.4632,-412.8119 716.9258,-403.8114 562.2416,-308.0424 487.5209,-387.9771 307.7628,-416.0114 237.599,-426.9538 156.866,-445.0881 109.9306,-456.192"/>
<polygon fill="#000000" stroke="#000000" points="109.0801,-452.7966 100.1624,-458.5171 110.701,-459.6064 109.0801,-452.7966"/>
<text text-anchor="middle" x="364.8996" y="-421.0114" font-family="Times,serif" font-size="14.00" fill="#000000">IncorrectCredentials</text>
</g>
<!-- ConnectionFailed&#45;&gt;NotConnected -->
<g id="edge5" class="edge">
<title>ConnectionFailed-&gt;NotConnected</title>
<path fill="none" stroke="#000000" d="M734.7864,-468.3402C728.7561,-468.5329 722.7172,-468.6968 716.9258,-468.8114 535.1112,-472.4093 489.5667,-472.9142 307.7628,-468.8114 305.2379,-468.7544 302.6594,-468.6852 300.0549,-468.6064"/>
<polygon fill="#000000" stroke="#000000" points="300.053,-465.1044 289.9389,-468.2598 299.8131,-472.1003 300.053,-465.1044"/>
<text text-anchor="middle" x="497.9516" y="-476.0114" font-family="Times,serif" font-size="14.00" fill="#000000">ServerNotReachable</text>
</g>
<!-- Initialized -->
<g id="node6" class="node">
<title>Initialized</title>
<path fill="none" stroke="#000000" d="M1029.0886,-386.8114C1029.0886,-386.8114 1077.846,-386.8114 1077.846,-386.8114 1083.846,-386.8114 1089.846,-392.8114 1089.846,-398.8114 1089.846,-398.8114 1089.846,-410.8114 1089.846,-410.8114 1089.846,-416.8114 1083.846,-422.8114 1077.846,-422.8114 1077.846,-422.8114 1029.0886,-422.8114 1029.0886,-422.8114 1023.0886,-422.8114 1017.0886,-416.8114 1017.0886,-410.8114 1017.0886,-410.8114 1017.0886,-398.8114 1017.0886,-398.8114 1017.0886,-392.8114 1023.0886,-386.8114 1029.0886,-386.8114"/>
<text text-anchor="middle" x="1053.4673" y="-400.7114" font-family="Times,serif" font-size="14.00" fill="#000000">Initialized</text>
</g>
<!-- Authenticated&#45;&gt;Initialized -->
<g id="edge7" class="edge">
<title>Authenticated-&gt;Initialized</title>
<path fill="none" stroke="#000000" d="M840.2221,-409.7179C887.4773,-408.6306 959.5265,-406.9728 1006.5628,-405.8906"/>
<polygon fill="#000000" stroke="#000000" points="1006.8673,-409.3846 1016.7841,-405.6554 1006.7062,-402.3865 1006.8673,-409.3846"/>
<text text-anchor="middle" x="933.7772" y="-414.0114" font-family="Times,serif" font-size="14.00" fill="#000000">InitializationPerformed</text>
</g>
<!-- AutoReconnection -->
<g id="node11" class="node">
<title>AutoReconnection</title>
<path fill="none" stroke="#000000" d="M1948.7356,-454.8114C1948.7356,-454.8114 2045.709,-454.8114 2045.709,-454.8114 2051.709,-454.8114 2057.709,-460.8114 2057.709,-466.8114 2057.709,-466.8114 2057.709,-478.8114 2057.709,-478.8114 2057.709,-484.8114 2051.709,-490.8114 2045.709,-490.8114 2045.709,-490.8114 1948.7356,-490.8114 1948.7356,-490.8114 1942.7356,-490.8114 1936.7356,-484.8114 1936.7356,-478.8114 1936.7356,-478.8114 1936.7356,-466.8114 1936.7356,-466.8114 1936.7356,-460.8114 1942.7356,-454.8114 1948.7356,-454.8114"/>
<text text-anchor="middle" x="1997.2223" y="-468.7114" font-family="Times,serif" font-size="14.00" fill="#000000">AutoReconnection</text>
</g>
<!-- Authenticated&#45;&gt;AutoReconnection -->
<g id="edge8" class="edge">
<title>Authenticated-&gt;AutoReconnection</title>
<path fill="none" stroke="#000000" d="M838.0939,-428.9198C842.4977,-431.5723 846.7149,-434.5326 850.4658,-437.8114 861.6043,-447.5478 855.5405,-458.614 868.4658,-465.8114 961.4305,-517.5783 1001.4453,-468.743 1107.846,-469.8114 1412.5375,-472.8708 1775.9714,-472.9961 1926.5267,-472.8929"/>
<polygon fill="#000000" stroke="#000000" points="1926.5669,-476.393 1936.5642,-472.8855 1926.5616,-469.393 1926.5669,-476.393"/>
<text text-anchor="middle" x="1179.3755" y="-476.0114" font-family="Times,serif" font-size="14.00" fill="#000000">Disconnect</text>
</g>
<!-- Connected -->
<g id="node7" class="node">
<title>Connected</title>
<path fill="none" stroke="#000000" d="M1280.905,-212.0114C1280.905,-212.0114 1555.9192,-212.0114 1555.9192,-212.0114 1561.9192,-212.0114 1567.9192,-218.0114 1567.9192,-224.0114 1567.9192,-224.0114 1567.9192,-249.6114 1567.9192,-249.6114 1567.9192,-255.6114 1561.9192,-261.6114 1555.9192,-261.6114 1555.9192,-261.6114 1280.905,-261.6114 1280.905,-261.6114 1274.905,-261.6114 1268.905,-255.6114 1268.905,-249.6114 1268.905,-249.6114 1268.905,-224.0114 1268.905,-224.0114 1268.905,-218.0114 1274.905,-212.0114 1280.905,-212.0114"/>
<text text-anchor="middle" x="1418.4121" y="-245.0114" font-family="Times,serif" font-size="14.00" fill="#000000">Connected</text>
<polyline fill="none" stroke="#000000" points="1268.905,-236.8114 1567.9192,-236.8114 "/>
<text text-anchor="middle" x="1418.4121" y="-220.2114" font-family="Times,serif" font-size="14.00" fill="#000000">entry / CheckConnectionConferenceAndMessages</text>
</g>
<!-- Initialized&#45;&gt;Connected -->
<g id="edge9" class="edge">
<title>Initialized-&gt;Connected</title>
<path fill="none" stroke="#000000" d="M1089.6617,-386.7779C1095.718,-383.8166 1101.9485,-380.8045 1107.846,-378.0114 1191.9834,-338.1634 1289.8799,-294.018 1352.9213,-265.8742"/>
<polygon fill="#000000" stroke="#000000" points="1354.6411,-268.9395 1362.3478,-261.6692 1351.7893,-262.5467 1354.6411,-268.9395"/>
<text text-anchor="middle" x="1179.3755" y="-383.0114" font-family="Times,serif" font-size="14.00" fill="#000000">Connect</text>
</g>
<!-- Initialized&#45;&gt;AutoReconnection -->
<g id="edge10" class="edge">
<title>Initialized-&gt;AutoReconnection</title>
<path fill="none" stroke="#000000" d="M1089.9117,-405.1794C1230.6922,-406.7981 1739.0298,-414.5169 1897.7398,-442.8114 1910.2117,-445.0348 1923.3273,-448.296 1935.7948,-451.8582"/>
<polygon fill="#000000" stroke="#000000" points="1935.048,-455.2871 1945.63,-454.7655 1937.0324,-448.5742 1935.048,-455.2871"/>
<text text-anchor="middle" x="1418.4121" y="-421.0114" font-family="Times,serif" font-size="14.00" fill="#000000">Disconnect</text>
</g>
<!-- AddVideoStream -->
<g id="node8" class="node">
<title>AddVideoStream</title>
<path fill="none" stroke="#000000" d="M1932.4081,-225.0114C1932.4081,-225.0114 2062.0365,-225.0114 2062.0365,-225.0114 2068.0365,-225.0114 2074.0365,-231.0114 2074.0365,-237.0114 2074.0365,-237.0114 2074.0365,-262.6114 2074.0365,-262.6114 2074.0365,-268.6114 2068.0365,-274.6114 2062.0365,-274.6114 2062.0365,-274.6114 1932.4081,-274.6114 1932.4081,-274.6114 1926.4081,-274.6114 1920.4081,-268.6114 1920.4081,-262.6114 1920.4081,-262.6114 1920.4081,-237.0114 1920.4081,-237.0114 1920.4081,-231.0114 1926.4081,-225.0114 1932.4081,-225.0114"/>
<text text-anchor="middle" x="1997.2223" y="-258.0114" font-family="Times,serif" font-size="14.00" fill="#000000">AddVideoStream</text>
<polyline fill="none" stroke="#000000" points="1920.4081,-249.8114 2074.0365,-249.8114 "/>
<text text-anchor="middle" x="1997.2223" y="-233.2114" font-family="Times,serif" font-size="14.00" fill="#000000">entry / AddVideoStream</text>
</g>
<!-- Connected&#45;&gt;AddVideoStream -->
<g id="edge13" class="edge">
<title>Connected-&gt;AddVideoStream</title>
<path fill="none" stroke="#000000" d="M1568.119,-253.7011C1574.1269,-254.1245 1580.0779,-254.4984 1585.9192,-254.8114 1724.3077,-262.2255 1759.1966,-258.2908 1897.7398,-254.8114 1901.8726,-254.7076 1906.1011,-254.5796 1910.3713,-254.4328"/>
<polygon fill="#000000" stroke="#000000" points="1910.5233,-257.9296 1920.3857,-254.0587 1910.2619,-250.9345 1910.5233,-257.9296"/>
<text text-anchor="middle" x="1741.8295" y="-264.0114" font-family="Times,serif" font-size="14.00" fill="#000000">VideoStreamAvailable</text>
</g>
<!-- AddSharingStream -->
<g id="node9" class="node">
<title>AddSharingStream</title>
<path fill="none" stroke="#000000" d="M1927.7398,-153.0114C1927.7398,-153.0114 2066.7048,-153.0114 2066.7048,-153.0114 2072.7048,-153.0114 2078.7048,-159.0114 2078.7048,-165.0114 2078.7048,-165.0114 2078.7048,-190.6114 2078.7048,-190.6114 2078.7048,-196.6114 2072.7048,-202.6114 2066.7048,-202.6114 2066.7048,-202.6114 1927.7398,-202.6114 1927.7398,-202.6114 1921.7398,-202.6114 1915.7398,-196.6114 1915.7398,-190.6114 1915.7398,-190.6114 1915.7398,-165.0114 1915.7398,-165.0114 1915.7398,-159.0114 1921.7398,-153.0114 1927.7398,-153.0114"/>
<text text-anchor="middle" x="1997.2223" y="-186.0114" font-family="Times,serif" font-size="14.00" fill="#000000">AddSharingStream</text>
<polyline fill="none" stroke="#000000" points="1915.7398,-177.8114 2078.7048,-177.8114 "/>
<text text-anchor="middle" x="1997.2223" y="-161.2114" font-family="Times,serif" font-size="14.00" fill="#000000">entry / AddSharingStream</text>
</g>
<!-- Connected&#45;&gt;AddSharingStream -->
<g id="edge14" class="edge">
<title>Connected-&gt;AddSharingStream</title>
<path fill="none" stroke="#000000" d="M1550.3426,-212.0039C1562.3472,-210.1512 1574.3406,-208.4483 1585.9192,-207.0114 1695.2051,-193.4491 1821.6685,-185.6423 1905.2022,-181.5712"/>
<polygon fill="#000000" stroke="#000000" points="1905.6052,-185.056 1915.4261,-181.0811 1905.27,-178.064 1905.6052,-185.056"/>
<text text-anchor="middle" x="1741.8295" y="-212.0114" font-family="Times,serif" font-size="14.00" fill="#000000">SharingStreamAvailable</text>
</g>
<!-- JoinConference -->
<g id="node10" class="node">
<title>JoinConference</title>
<path fill="none" stroke="#000000" d="M1957.2966,-10.8114C1957.2966,-10.8114 2037.148,-10.8114 2037.148,-10.8114 2043.148,-10.8114 2049.148,-16.8114 2049.148,-22.8114 2049.148,-22.8114 2049.148,-34.8114 2049.148,-34.8114 2049.148,-40.8114 2043.148,-46.8114 2037.148,-46.8114 2037.148,-46.8114 1957.2966,-46.8114 1957.2966,-46.8114 1951.2966,-46.8114 1945.2966,-40.8114 1945.2966,-34.8114 1945.2966,-34.8114 1945.2966,-22.8114 1945.2966,-22.8114 1945.2966,-16.8114 1951.2966,-10.8114 1957.2966,-10.8114"/>
<text text-anchor="middle" x="1997.2223" y="-24.7114" font-family="Times,serif" font-size="14.00" fill="#000000">JoinConference</text>
</g>
<!-- Connected&#45;&gt;JoinConference -->
<g id="edge12" class="edge">
<title>Connected-&gt;JoinConference</title>
<path fill="none" stroke="#000000" d="M1430.4679,-211.7194C1453.48,-167.0936 1508.3708,-75.1365 1585.9192,-38.0114 1699.3623,16.2979 1851.3476,.2459 1935.1764,-15.0665"/>
<polygon fill="#000000" stroke="#000000" points="1934.5796,-18.5155 1945.0544,-16.9254 1935.8742,-11.6363 1934.5796,-18.5155"/>
<text text-anchor="middle" x="1741.8295" y="-43.0114" font-family="Times,serif" font-size="14.00" fill="#000000">ConferenceAvailable / JoinConference</text>
</g>
<!-- Connected&#45;&gt;AutoReconnection -->
<g id="edge11" class="edge">
<title>Connected-&gt;AutoReconnection</title>
<path fill="none" stroke="#000000" d="M1439.4807,-261.8595C1468.6004,-294.464 1524.5511,-350.1799 1585.9192,-374.8114 1714.8885,-426.5761 1767.6532,-349.1225 1897.7398,-398.0114 1926.2352,-408.7204 1953.4945,-430.2944 1972.249,-447.5325"/>
<polygon fill="#000000" stroke="#000000" points="1970.0711,-450.2897 1979.7448,-454.6105 1974.877,-445.2002 1970.0711,-450.2897"/>
<text text-anchor="middle" x="1741.8295" y="-403.0114" font-family="Times,serif" font-size="14.00" fill="#000000">Disconnect</text>
</g>
<!-- BubbleInvitationReceived -->
<g id="node12" class="node">
<title>BubbleInvitationReceived</title>
<path fill="none" stroke="#000000" d="M1927.7398,-318.8114C1927.7398,-318.8114 2066.7048,-318.8114 2066.7048,-318.8114 2072.7048,-318.8114 2078.7048,-324.8114 2078.7048,-330.8114 2078.7048,-330.8114 2078.7048,-342.8114 2078.7048,-342.8114 2078.7048,-348.8114 2072.7048,-354.8114 2066.7048,-354.8114 2066.7048,-354.8114 1927.7398,-354.8114 1927.7398,-354.8114 1921.7398,-354.8114 1915.7398,-348.8114 1915.7398,-342.8114 1915.7398,-342.8114 1915.7398,-330.8114 1915.7398,-330.8114 1915.7398,-324.8114 1921.7398,-318.8114 1927.7398,-318.8114"/>
<text text-anchor="middle" x="1997.2223" y="-332.7114" font-family="Times,serif" font-size="14.00" fill="#000000">BubbleInvitationReceived</text>
</g>
<!-- Connected&#45;&gt;BubbleInvitationReceived -->
<g id="edge15" class="edge">
<title>Connected-&gt;BubbleInvitationReceived</title>
<path fill="none" stroke="#000000" d="M1449.4765,-261.8165C1481.4895,-285.8586 1533.9229,-320.5827 1585.9192,-334.8114 1692.6424,-364.0159 1820.8568,-358.5994 1905.4468,-349.7732"/>
<polygon fill="#000000" stroke="#000000" points="1905.9761,-353.2365 1915.5421,-348.682 1905.2238,-346.277 1905.9761,-353.2365"/>
<text text-anchor="middle" x="1741.8295" y="-361.0114" font-family="Times,serif" font-size="14.00" fill="#000000">BubbleInvitationReceived / AnswerToBubbleInvitation</text>
</g>
<!-- StopMessageReceived -->
<g id="node13" class="node">
<title>StopMessageReceived</title>
<path fill="none" stroke="#000000" d="M1937.8541,-78.0114C1937.8541,-78.0114 2056.5905,-78.0114 2056.5905,-78.0114 2062.5905,-78.0114 2068.5905,-84.0114 2068.5905,-90.0114 2068.5905,-90.0114 2068.5905,-115.6114 2068.5905,-115.6114 2068.5905,-121.6114 2062.5905,-127.6114 2056.5905,-127.6114 2056.5905,-127.6114 1937.8541,-127.6114 1937.8541,-127.6114 1931.8541,-127.6114 1925.8541,-121.6114 1925.8541,-115.6114 1925.8541,-115.6114 1925.8541,-90.0114 1925.8541,-90.0114 1925.8541,-84.0114 1931.8541,-78.0114 1937.8541,-78.0114"/>
<text text-anchor="middle" x="1997.2223" y="-111.0114" font-family="Times,serif" font-size="14.00" fill="#000000">StopMessageReceived</text>
<polyline fill="none" stroke="#000000" points="1925.8541,-102.8114 2068.5905,-102.8114 "/>
<text text-anchor="middle" x="1997.2223" y="-86.2114" font-family="Times,serif" font-size="14.00" fill="#000000">entry / StopBot</text>
</g>
<!-- Connected&#45;&gt;StopMessageReceived -->
<g id="edge16" class="edge">
<title>Connected-&gt;StopMessageReceived</title>
<path fill="none" stroke="#000000" d="M1446.5506,-211.8978C1478.0293,-185.7093 1531.7464,-145.8805 1585.9192,-128.0114 1644.9529,-108.5388 1813.3737,-103.891 1915.4663,-102.9141"/>
<polygon fill="#000000" stroke="#000000" points="1915.7736,-106.4117 1925.7432,-102.826 1915.7135,-99.4119 1915.7736,-106.4117"/>
<text text-anchor="middle" x="1741.8295" y="-133.0114" font-family="Times,serif" font-size="14.00" fill="#000000">StopMessage</text>
</g>
<!-- AddVideoStream&#45;&gt;Connected -->
<g id="edge17" class="edge">
<title>AddVideoStream-&gt;Connected</title>
<path fill="none" stroke="#000000" d="M1920.2442,-236.359C1912.6591,-235.4027 1905.0619,-234.5892 1897.7398,-234.0114 1791.482,-225.6259 1671.5635,-226.3322 1578.2528,-229.1318"/>
<polygon fill="#000000" stroke="#000000" points="1578.047,-225.6364 1568.1608,-229.4458 1578.2648,-232.633 1578.047,-225.6364"/>
<text text-anchor="middle" x="1741.8295" y="-239.0114" font-family="Times,serif" font-size="14.00" fill="#000000">ActionDone</text>
</g>
<!-- AddSharingStream&#45;&gt;Connected -->
<g id="edge18" class="edge">
<title>AddSharingStream-&gt;Connected</title>
<path fill="none" stroke="#000000" d="M1915.4343,-162.9326C1831.6967,-150.4229 1698.2669,-138.0665 1585.9192,-162.0114 1545.0942,-170.7125 1502.1664,-190.1098 1469.9893,-206.9706"/>
<polygon fill="#000000" stroke="#000000" points="1467.9647,-204.0837 1460.7871,-211.8769 1471.258,-210.2606 1467.9647,-204.0837"/>
<text text-anchor="middle" x="1741.8295" y="-167.0114" font-family="Times,serif" font-size="14.00" fill="#000000">ActionDone</text>
</g>
<!-- JoinConference&#45;&gt;Connected -->
<g id="edge19" class="edge">
<title>JoinConference-&gt;Connected</title>
<path fill="none" stroke="#000000" d="M1945.1748,-44.147C1929.9945,-48.1471 1913.3027,-52.0932 1897.7398,-54.8114 1760.6624,-78.7529 1713.1769,-26.7184 1585.9192,-83.0114 1525.4993,-109.7384 1472.4939,-167.2429 1443.0273,-203.8666"/>
<polygon fill="#000000" stroke="#000000" points="1440.2137,-201.782 1436.7525,-211.7955 1445.7028,-206.126 1440.2137,-201.782"/>
<text text-anchor="middle" x="1741.8295" y="-88.0114" font-family="Times,serif" font-size="14.00" fill="#000000">ActionDone</text>
</g>
<!-- AutoReconnection&#45;&gt;Created -->
<g id="edge22" class="edge">
<title>AutoReconnection-&gt;Created</title>
<path fill="none" stroke="#000000" d="M1965.5546,-491.0286C1946.5051,-501.1479 1921.4294,-513.0293 1897.7398,-519.8114 1691.5402,-578.8444 1632.8956,-575.8114 1418.4121,-575.8114 241.3287,-575.8114 241.3287,-575.8114 241.3287,-575.8114 179.509,-575.8114 122.2501,-524.3165 92.251,-491.7928"/>
<polygon fill="#000000" stroke="#000000" points="94.513,-489.0736 85.2252,-483.9756 89.3067,-493.7528 94.513,-489.0736"/>
<text text-anchor="middle" x="792.6958" y="-580.0114" font-family="Times,serif" font-size="14.00" fill="#000000">IncorrectCredentials</text>
</g>
<!-- AutoReconnection&#45;&gt;NotConnected -->
<g id="edge21" class="edge">
<title>AutoReconnection-&gt;NotConnected</title>
<path fill="none" stroke="#000000" d="M1936.5828,-482.74C1831.416,-499.0709 1608.2432,-529.8114 1418.4121,-529.8114 497.9516,-529.8114 497.9516,-529.8114 497.9516,-529.8114 426.3441,-529.8114 346.748,-506.0612 295.4696,-487.497"/>
<polygon fill="#000000" stroke="#000000" points="296.5111,-484.1508 285.9176,-483.98 294.0924,-490.7197 296.5111,-484.1508"/>
<text text-anchor="middle" x="933.7772" y="-534.0114" font-family="Times,serif" font-size="14.00" fill="#000000">TooManyAttempts</text>
</g>
<!-- AutoReconnection&#45;&gt;Authenticated -->
<g id="edge23" class="edge">
<title>AutoReconnection-&gt;Authenticated</title>
<path fill="none" stroke="#000000" d="M1936.7238,-470.3471C1923.8558,-469.8318 1910.3486,-469.2976 1897.7398,-468.8114 1840.5615,-466.6064 925.0654,-439.2201 868.4658,-430.8114 862.3721,-429.9061 856.0636,-428.6953 849.8068,-427.3154"/>
<polygon fill="#000000" stroke="#000000" points="850.5909,-423.9044 840.0557,-425.0275 848.9918,-430.7193 850.5909,-423.9044"/>
<text text-anchor="middle" x="1179.3755" y="-452.0114" font-family="Times,serif" font-size="14.00" fill="#000000">AuthenticationSucceeded</text>
</g>
<!-- AutoReconnection&#45;&gt;AutoReconnection -->
<g id="edge20" class="edge">
<title>AutoReconnection-&gt;AutoReconnection</title>
<path fill="none" stroke="#000000" d="M1951.5623,-490.8401C1943.8031,-500.5057 1959.0231,-509.3114 1997.2223,-509.3114 2021.0968,-509.3114 2035.9951,-505.8717 2041.9171,-500.9321"/>
<polygon fill="#000000" stroke="#000000" points="2045.4142,-501.1279 2042.8823,-490.8401 2038.446,-500.4614 2045.4142,-501.1279"/>
<text text-anchor="middle" x="1997.2223" y="-513.5114" font-family="Times,serif" font-size="14.00" fill="#000000">Disconnect</text>
</g>
<!-- BubbleInvitationReceived&#45;&gt;Connected -->
<g id="edge24" class="edge">
<title>BubbleInvitationReceived-&gt;Connected</title>
<path fill="none" stroke="#000000" d="M1922.9924,-318.7811C1914.5048,-317.0226 1905.9537,-315.3849 1897.7398,-314.0114 1760.2781,-291.0255 1723.0009,-305.9646 1585.9192,-280.8114 1562.0059,-276.4235 1536.4876,-270.4178 1512.7638,-264.2541"/>
<polygon fill="#000000" stroke="#000000" points="1513.6307,-260.8631 1503.069,-261.7012 1511.8481,-267.6324 1513.6307,-260.8631"/>
<text text-anchor="middle" x="1741.8295" y="-319.0114" font-family="Times,serif" font-size="14.00" fill="#000000">BubbleInvitationManaged</text>
</g>
<!-- StopMessageReceived&#45;&gt;NotConnected -->
<g id="edge25" class="edge">
<title>StopMessageReceived-&gt;NotConnected</title>
<path fill="none" stroke="#000000" d="M1951.9956,-77.7989C1935.4296,-69.8772 1916.2096,-62.0775 1897.7398,-57.8114 1690.0819,-9.8465 1631.5375,-43.8114 1418.4121,-43.8114 792.6958,-43.8114 792.6958,-43.8114 792.6958,-43.8114 510.7135,-43.8114 531.4254,-286.1921 290.0633,-442.1833"/>
<polygon fill="#000000" stroke="#000000" points="287.9388,-439.386 281.3658,-447.6954 291.686,-445.2986 287.9388,-439.386"/>
<text text-anchor="middle" x="933.7772" y="-48.0114" font-family="Times,serif" font-size="14.00" fill="#000000">Disconnect</text>
</g>
<!-- init -->
<g id="node14" class="node">
<title>init</title>
<ellipse fill="#000000" stroke="#000000" cx="1.8" cy="-465.8114" rx="1.8" ry="1.8"/>
</g>
<!-- init&#45;&gt;Created -->
<g id="edge26" class="edge">
<title>init-&gt;Created</title>
<path fill="none" stroke="#000000" d="M3.7781,-465.8114C8.0577,-465.8114 18.7285,-465.8114 30.3044,-465.8114"/>
<polygon fill="#000000" stroke="#000000" points="30.5723,-469.3115 40.5723,-465.8114 30.5723,-462.3115 30.5723,-469.3115"/>
</g>
</g>
</svg>