<?xml version="1.0" encoding="UTF-8" standalone="no"?><!DOCTYPE svg PUBLIC "-//W3C//DTD SVG 1.1//EN" "http://www.w3.org/Graphics/SVG/1.1/DTD/svg11.dtd"><!-- Generated by graphviz version 2.40.1 (20161225.0304)
 --><!-- Title: %0 Pages: 1 --><svg xmlns="http://www.w3.org/2000/svg" xmlns:xlink="http://www.w3.org/1999/xlink" width="2096pt" height="749pt" viewBox="0.00 0.00 2096.04 749.10">
<g id="graph0" class="graph" transform="scale(1 1) rotate(0) translate(4 745.1)">
<title>%0</title>
<polygon fill="#ffffff" stroke="transparent" points="-4,4 -4,-745.1 2092.0414,-745.1 2092.0414,4 -4,4"/>
<!-- Created -->
<g id="node1" class="node">
<title>Created</title>
<path fill="none" stroke="#000000" d="M52.6,-609.3C52.6,-609.3 88.1316,-609.3 88.1316,-609.3 94.1316,-609.3 100.1316,-615.3 100.1316,-621.3 100.1316,-621.3 100.1316,-633.3 100.1316,-633.3 100.1316,-639.3 94.1316,-645.3 88.1316,-645.3 88.1316,-645.3 52.6,-645.3 52.6,-645.3 46.6,-645.3 40.6,-639.3 40.6,-633.3 40.6,-633.3 40.6,-621.3 40.6,-621.3 40.6,-615.3 46.6,-609.3 52.6,-609.3"/>
<text text-anchor="middle" x="70.3658" y="-623.2" font-family="Times,serif" font-size="14.00" fill="#000000">Created</text>
</g>
<!-- NotConnected -->
<g id="node2" class="node">
<title>NotConnected</title>
<path fill="none" stroke="#000000" d="M204.8946,-504.3C204.8946,-504.3 277.7628,-504.3 277.7628,-504.3 283.7628,-504.3 289.7628,-510.3 289.7628,-516.3 289.7628,-516.3 289.7628,-528.3 289.7628,-528.3 289.7628,-534.3 283.7628,-540.3 277.7628,-540.3 277.7628,-540.3 204.8946,-540.3 204.8946,-540.3 198.8946,-540.3 192.8946,-534.3 192.8946,-528.3 192.8946,-528.3 192.8946,-516.3 192.8946,-516.3 192.8946,-510.3 198.8946,-504.3 204.8946,-504.3"/>
<text text-anchor="middle" x="241.3287" y="-518.2" font-family="Times,serif" font-size="14.00" fill="#000000">NotConnected</text>
</g>
<!-- Created&#45;&gt;NotConnected -->
<g id="edge1" class="edge">
<title>Created-&gt;NotConnected</title>
<path fill="none" stroke="#000000" d="M98.0578,-609.2405C104.6146,-605.021 111.6002,-600.5713 118.1316,-596.5 146.0609,-579.0904 177.8903,-559.9374 202.1992,-545.452"/>
<polygon fill="#000000" stroke="#000000" points="203.9895,-548.4595 210.7936,-540.3383 200.4101,-542.4438 203.9895,-548.4595"/>
<text text-anchor="middle" x="146.5131" y="-601.5" font-family="Times,serif" font-size="14.00" fill="#000000">Configure</text>
</g>
<!-- Connecting -->
<g id="node3" class="node">
<title>Connecting</title>
<path fill="none" stroke="#000000" d="M469.6781,-557.3C469.6781,-557.3 526.2251,-557.3 526.2251,-557.3 532.2251,-557.3 538.2251,-563.3 538.2251,-569.3 538.2251,-569.3 538.2251,-581.3 538.2251,-581.3 538.2251,-587.3 532.2251,-593.3 526.2251,-593.3 526.2251,-593.3 469.6781,-593.3 469.6781,-593.3 463.6781,-593.3 457.6781,-587.3 457.6781,-581.3 457.6781,-581.3 457.6781,-569.3 457.6781,-569.3 457.6781,-563.3 463.6781,-557.3 469.6781,-557.3"/>
<text text-anchor="middle" x="497.9516" y="-571.2" font-family="Times,serif" font-size="14.00" fill="#000000">Connecting</text>
</g>
<!-- NotConnected&#45;&gt;Connecting -->
<g id="edge2" class="edge">
<title>NotConnected-&gt;Connecting</title>
<path fill="none" stroke="#000000" d="M289.9411,-532.5762C295.9422,-533.8354 301.9927,-535.1004 307.7628,-536.3 355.1718,-546.1561 409.2657,-557.2321 447.6114,-565.0549"/>
<polygon fill="#000000" stroke="#000000" points="447.0003,-568.5023 457.498,-567.071 448.399,-561.6434 447.0003,-568.5023"/>
<text text-anchor="middle" x="364.8996" y="-564.5" font-family="Times,serif" font-size="14.00" fill="#000000">StartLogin</text>
</g>
<!-- ConnectionFailed -->
<g id="node4" class="node">
<title>ConnectionFailed</title>
<path fill="none" stroke="#000000" d="M746.9258,-523.3C746.9258,-523.3 838.4658,-523.3 838.4658,-523.3 844.4658,-523.3 850.4658,-529.3 850.4658,-535.3 850.4658,-535.3 850.4658,-547.3 850.4658,-547.3 850.4658,-553.3 844.4658,-559.3 838.4658,-559.3 838.4658,-559.3 746.9258,-559.3 746.9258,-559.3 740.9258,-559.3 734.9258,-553.3 734.9258,-547.3 734.9258,-547.3 734.9258,-535.3 734.9258,-535.3 734.9258,-529.3 740.9258,-523.3 746.9258,-523.3"/>
<text text-anchor="middle" x="792.6958" y="-537.2" font-family="Times,serif" font-size="14.00" fill="#000000">ConnectionFailed</text>
</g>
<!-- Connecting&#45;&gt;ConnectionFailed -->
<g id="edge3" class="edge">
<title>Connecting-&gt;ConnectionFailed</title>
<path fill="none" stroke="#000000" d="M538.3988,-566.5979C549.8258,-564.3621 562.2989,-562.1305 573.8668,-560.5 624.2107,-553.404 681.4638,-548.4918 724.7778,-545.4133"/>
<polygon fill="#000000" stroke="#000000" points="725.1827,-548.8937 734.9156,-544.7081 724.6968,-541.9106 725.1827,-548.8937"/>
<text text-anchor="middle" x="645.3963" y="-565.5" font-family="Times,serif" font-size="14.00" fill="#000000">Disconnect</text>
</g>
<!-- Authenticated -->
<g id="node5" class="node">
<title>Authenticated</title>
<path fill="none" stroke="#000000" d="M757.4321,-578.3C757.4321,-578.3 827.9595,-578.3 827.9595,-578.3 833.9595,-578.3 839.9595,-584.3 839.9595,-590.3 839.9595,-590.3 839.9595,-602.3 839.9595,-602.3 839.9595,-608.3 833.9595,-614.3 827.9595,-614.3 827.9595,-614.3 757.4321,-614.3 757.4321,-614.3 751.4321,-614.3 745.4321,-608.3 745.4321,-602.3 745.4321,-602.3 745.4321,-590.3 745.4321,-590.3 745.4321,-584.3 751.4321,-578.3 757.4321,-578.3"/>
<text text-anchor="middle" x="792.6958" y="-592.2" font-family="Times,serif" font-size="14.00" fill="#000000">Authenticated</text>
</g>
<!-- Connecting&#45;&gt;Authenticated -->
<g id="edge4" class="edge">
<title>Connecting-&gt;Authenticated</title>
<path fill="none" stroke="#000000" d="M538.3165,-578.1759C589.2572,-581.8054 677.2069,-588.0716 735.1699,-592.2014"/>
<polygon fill="#000000" stroke="#000000" points="735.0482,-595.7015 745.2717,-592.9211 735.5457,-588.7192 735.0482,-595.7015"/>
<text text-anchor="middle" x="645.3963" y="-595.5" font-family="Times,serif" font-size="14.00" fill="#000000">AuthenticationSucceeded</text>
</g>
<!-- ConnectionFailed&#45;&gt;Created -->
<g id="edge6" class="edge">
<title>ConnectionFailed-&gt;Created</title>
<path fill="none" stroke="#000000" d="M745.5201,-559.4887C741.6653,-562.0862 738.056,-565.0129 734.9258,-568.3 720.3552,-583.6009 734.3301,-600.3205 716.9258,-612.3 524.7373,-744.5851 218.5527,-671.9999 110.0616,-639.9751"/>
<polygon fill="#000000" stroke="#000000" points="110.7742,-636.5348 100.1901,-637.0108 108.7609,-643.239 110.7742,-636.5348"/>
<text text-anchor="middle" x="364.8996" y="-693.5" font-family="Times,serif" font-size="14.00" fill="#000000">IncorrectCredentials</text>
</g>
<!-- ConnectionFailed&#45;&gt;NotConnected -->
<g id="edge5" class="edge">
<title>ConnectionFailed-&gt;NotConnected</title>
<path fill="none" stroke="#000000" d="M734.7977,-538.344C686.8566,-535.9723 616.9485,-532.6887 555.8668,-530.5 466.6636,-527.3036 363.1872,-524.8468 300.0017,-523.4878"/>
<polygon fill="#000000" stroke="#000000" points="299.9055,-519.985 289.8331,-523.2711 299.7563,-526.9835 299.9055,-519.985"/>
<text text-anchor="middle" x="497.9516" y="-535.5" font-family="Times,serif" font-size="14.00" fill="#000000">ServerNotReachable</text>
</g>
<!-- Initialized -->
<g id="node6" class="node">
<title>Initialized</title>
<path fill="none" stroke="#000000" d="M1029.0886,-578.3C1029.0886,-578.3 1077.846,-578.3 1077.846,-578.3 1083.846,-578.3 1089.846,-584.3 1089.846,-590.3 1089.846,-590.3 1089.846,-602.3 1089.846,-602.3 1089.846,-608.3 1083.846,-614.3 1077.846,-614.3 1077.846,-614.3 1029.0886,-614.3 1029.0886,-614.3 1023.0886,-614.3 1017.0886,-608.3 1017.0886,-602.3 1017.0886,-602.3 1017.0886,-590.3 1017.0886,-590.3 1017.0886,-584.3 1023.0886,-578.3 1029.0886,-578.3"/>
<text text-anchor="middle" x="1053.4673" y="-592.2" font-family="Times,serif" font-size="14.00" fill="#000000">Initialized</text>
</g>
<!-- Authenticated&#45;&gt;Initialized -->
<g id="edge7" class="edge">
<title>Authenticated-&gt;Initialized</title>
<path fill="none" stroke="#000000" d="M840.2221,-596.3C887.4773,-596.3 959.5265,-596.3 1006.5628,-596.3"/>
<polygon fill="#000000" stroke="#000000" points="1006.7842,-599.8001 1016.7841,-596.3 1006.7841,-592.8001 1006.7842,-599.8001"/>
<text text-anchor="middle" x="933.7772" y="-600.5" font-family="Times,serif" font-size="14.00" fill="#000000">InitializationPerformed</text>
</g>
<!-- AutoReconnection -->
<g id="node9" class="node">
<title>AutoReconnection</title>
<path fill="none" stroke="#000000" d="M1958.0722,-570.3C1958.0722,-570.3 2055.0456,-570.3 2055.0456,-570.3 2061.0456,-570.3 2067.0456,-576.3 2067.0456,-582.3 2067.0456,-582.3 2067.0456,-594.3 2067.0456,-594.3 2067.0456,-600.3 2061.0456,-606.3 2055.0456,-606.3 2055.0456,-606.3 1958.0722,-606.3 1958.0722,-606.3 1952.0722,-606.3 1946.0722,-600.3 1946.0722,-594.3 1946.0722,-594.3 1946.0722,-582.3 1946.0722,-582.3 1946.0722,-576.3 1952.0722,-570.3 1958.0722,-570.3"/>
<text text-anchor="middle" x="2006.5589" y="-584.2" font-family="Times,serif" font-size="14.00" fill="#000000">AutoReconnection</text>
</g>
<!-- Authenticated&#45;&gt;AutoReconnection -->
<g id="edge8" class="edge">
<title>Authenticated-&gt;AutoReconnection</title>
<path fill="none" stroke="#000000" d="M840.2485,-588.6257C885.5595,-581.7268 955.7663,-572.1112 1017.0886,-568.3 1360.8749,-546.9338 1773.0107,-571.2962 1935.6221,-582.8698"/>
<polygon fill="#000000" stroke="#000000" points="1935.7437,-586.3875 1945.9688,-583.6131 1936.2453,-579.4055 1935.7437,-586.3875"/>
<text text-anchor="middle" x="1179.3755" y="-568.5" font-family="Times,serif" font-size="14.00" fill="#000000">Disconnect</text>
</g>
<!-- Connected -->
<g id="node7" class="node">
<title>Connected</title>
<path fill="none" stroke="#000000" d="M1280.905,-254.5C1280.905,-254.5 1565.2558,-254.5 1565.2558,-254.5 1571.2558,-254.5 1577.2558,-260.5 1577.2558,-266.5 1577.2558,-266.5 1577.2558,-292.1 1577.2558,-292.1 1577.2558,-298.1 1571.2558,-304.1 1565.2558,-304.1 1565.2558,-304.1 1280.905,-304.1 1280.905,-304.1 1274.905,-304.1 1268.905,-298.1 1268.905,-292.1 1268.905,-292.1 1268.905,-266.5 1268.905,-266.5 1268.905,-260.5 1274.905,-254.5 1280.905,-254.5"/>
<text text-anchor="middle" x="1423.0804" y="-287.5" font-family="Times,serif" font-size="14.00" fill="#000000">Connected</text>
<polyline fill="none" stroke="#000000" points="1268.905,-279.3 1577.2558,-279.3 "/>
<text text-anchor="middle" x="1423.0804" y="-262.7" font-family="Times,serif" font-size="14.00" fill="#000000">entry / CheckConnectedStateAndDequeudMessages</text>
</g>
<!-- Initialized&#45;&gt;Connected -->
<g id="edge9" class="edge">
<title>Initialized-&gt;Connected</title>
<path fill="none" stroke="#000000" d="M1062.3669,-578.194C1071.9515,-559.8342 1088.4621,-531.2471 1107.846,-510.5 1187.9964,-424.7126 1303.7626,-349.2969 1370.4162,-309.4061"/>
<polygon fill="#000000" stroke="#000000" points="1372.282,-312.3687 1379.0894,-304.2502 1368.705,-306.3516 1372.282,-312.3687"/>
<text text-anchor="middle" x="1179.3755" y="-515.5" font-family="Times,serif" font-size="14.00" fill="#000000">Connect</text>
</g>
<!-- Initialized&#45;&gt;AutoReconnection -->
<g id="edge10" class="edge">
<title>Initialized-&gt;AutoReconnection</title>
<path fill="none" stroke="#000000" d="M1089.9552,-595.9937C1231.5358,-594.8053 1746.0612,-590.4865 1935.7221,-588.8946"/>
<polygon fill="#000000" stroke="#000000" points="1935.8862,-592.3934 1945.8565,-588.8095 1935.8274,-585.3937 1935.8862,-592.3934"/>
<text text-anchor="middle" x="1423.0804" y="-599.5" font-family="Times,serif" font-size="14.00" fill="#000000">Disconnect</text>
</g>
<!-- JoinConference -->
<g id="node8" class="node">
<title>JoinConference</title>
<path fill="none" stroke="#000000" d="M1946.805,-305.5C1946.805,-305.5 2066.3128,-305.5 2066.3128,-305.5 2072.3128,-305.5 2078.3128,-311.5 2078.3128,-317.5 2078.3128,-317.5 2078.3128,-343.1 2078.3128,-343.1 2078.3128,-349.1 2072.3128,-355.1 2066.3128,-355.1 2066.3128,-355.1 1946.805,-355.1 1946.805,-355.1 1940.805,-355.1 1934.805,-349.1 1934.805,-343.1 1934.805,-343.1 1934.805,-317.5 1934.805,-317.5 1934.805,-311.5 1940.805,-305.5 1946.805,-305.5"/>
<text text-anchor="middle" x="2006.5589" y="-338.5" font-family="Times,serif" font-size="14.00" fill="#000000">JoinConference</text>
<polyline fill="none" stroke="#000000" points="1934.805,-330.3 2078.3128,-330.3 "/>
<text text-anchor="middle" x="2006.5589" y="-313.7" font-family="Times,serif" font-size="14.00" fill="#000000">entry / JoinConference</text>
</g>
<!-- Connected&#45;&gt;JoinConference -->
<g id="edge14" class="edge">
<title>Connected-&gt;JoinConference</title>
<path fill="none" stroke="#000000" d="M1481.2363,-304.1579C1514.05,-316.8329 1556.1918,-330.8971 1595.2558,-337.3 1708.2394,-355.8189 1841.0123,-348.3987 1924.482,-340.2645"/>
<polygon fill="#000000" stroke="#000000" points="1925.0626,-343.724 1934.664,-339.2448 1924.365,-336.7588 1925.0626,-343.724"/>
<text text-anchor="middle" x="1751.1661" y="-353.5" font-family="Times,serif" font-size="14.00" fill="#000000">ConferenceAvailable</text>
</g>
<!-- Connected&#45;&gt;AutoReconnection -->
<g id="edge11" class="edge">
<title>Connected-&gt;AutoReconnection</title>
<path fill="none" stroke="#000000" d="M1439.042,-304.3196C1465.8626,-343.9023 1524.0848,-419.895 1595.2558,-453.3 1721.1874,-512.4076 1782.1933,-419.2081 1907.0764,-480.5 1943.4784,-498.3659 1973.0834,-535.7106 1990.2642,-561.3918"/>
<polygon fill="#000000" stroke="#000000" points="1987.4323,-563.4574 1995.8139,-569.9381 1993.3031,-559.645 1987.4323,-563.4574"/>
<text text-anchor="middle" x="1751.1661" y="-485.5" font-family="Times,serif" font-size="14.00" fill="#000000">Disconnect</text>
</g>
<!-- BubbleInvitationReceived -->
<g id="node10" class="node">
<title>BubbleInvitationReceived</title>
<path fill="none" stroke="#000000" d="M1937.0764,-74.3C1937.0764,-74.3 2076.0414,-74.3 2076.0414,-74.3 2082.0414,-74.3 2088.0414,-80.3 2088.0414,-86.3 2088.0414,-86.3 2088.0414,-98.3 2088.0414,-98.3 2088.0414,-104.3 2082.0414,-110.3 2076.0414,-110.3 2076.0414,-110.3 1937.0764,-110.3 1937.0764,-110.3 1931.0764,-110.3 1925.0764,-104.3 1925.0764,-98.3 1925.0764,-98.3 1925.0764,-86.3 1925.0764,-86.3 1925.0764,-80.3 1931.0764,-74.3 1937.0764,-74.3"/>
<text text-anchor="middle" x="2006.5589" y="-88.2" font-family="Times,serif" font-size="14.00" fill="#000000">BubbleInvitationReceived</text>
</g>
<!-- Connected&#45;&gt;BubbleInvitationReceived -->
<g id="edge12" class="edge">
<title>Connected-&gt;BubbleInvitationReceived</title>
<path fill="none" stroke="#000000" d="M1435.4019,-254.3678C1459.1323,-209.565 1515.933,-116.7373 1595.2558,-80.5 1650.0426,-55.4715 1811.1242,-68.5373 1914.6884,-80.3702"/>
<polygon fill="#000000" stroke="#000000" points="1914.5004,-83.8718 1924.837,-81.5468 1915.3066,-76.9184 1914.5004,-83.8718"/>
<text text-anchor="middle" x="1751.1661" y="-85.5" font-family="Times,serif" font-size="14.00" fill="#000000">BubbleInvitationReceived / AnswerToBubbleInvitation</text>
</g>
<!-- UserInvitationReceived -->
<g id="node11" class="node">
<title>UserInvitationReceived</title>
<path fill="none" stroke="#000000" d="M1944.0841,-401.3C1944.0841,-401.3 2069.0337,-401.3 2069.0337,-401.3 2075.0337,-401.3 2081.0337,-407.3 2081.0337,-413.3 2081.0337,-413.3 2081.0337,-425.3 2081.0337,-425.3 2081.0337,-431.3 2075.0337,-437.3 2069.0337,-437.3 2069.0337,-437.3 1944.0841,-437.3 1944.0841,-437.3 1938.0841,-437.3 1932.0841,-431.3 1932.0841,-425.3 1932.0841,-425.3 1932.0841,-413.3 1932.0841,-413.3 1932.0841,-407.3 1938.0841,-401.3 1944.0841,-401.3"/>
<text text-anchor="middle" x="2006.5589" y="-415.2" font-family="Times,serif" font-size="14.00" fill="#000000">UserInvitationReceived</text>
</g>
<!-- Connected&#45;&gt;UserInvitationReceived -->
<g id="edge13" class="edge">
<title>Connected-&gt;UserInvitationReceived</title>
<path fill="none" stroke="#000000" d="M1443.889,-304.1495C1473.4993,-337.3639 1531.338,-394.6711 1595.2558,-417.3 1653.2343,-437.8262 1819.4232,-431.6336 1921.9392,-425.3864"/>
<polygon fill="#000000" stroke="#000000" points="1922.1989,-428.8771 1931.9623,-424.7631 1921.7643,-421.8906 1922.1989,-428.8771"/>
<text text-anchor="middle" x="1751.1661" y="-436.5" font-family="Times,serif" font-size="14.00" fill="#000000">UserInvitationReceived / AnswerToUserInvitation</text>
</g>
<!-- StopMessageReceived -->
<g id="node12" class="node">
<title>StopMessageReceived</title>
<path fill="none" stroke="#000000" d="M1947.1907,-.5C1947.1907,-.5 2065.9271,-.5 2065.9271,-.5 2071.9271,-.5 2077.9271,-6.5 2077.9271,-12.5 2077.9271,-12.5 2077.9271,-38.1 2077.9271,-38.1 2077.9271,-44.1 2071.9271,-50.1 2065.9271,-50.1 2065.9271,-50.1 1947.1907,-50.1 1947.1907,-50.1 1941.1907,-50.1 1935.1907,-44.1 1935.1907,-38.1 1935.1907,-38.1 1935.1907,-12.5 1935.1907,-12.5 1935.1907,-6.5 1941.1907,-.5 1947.1907,-.5"/>
<text text-anchor="middle" x="2006.5589" y="-33.5" font-family="Times,serif" font-size="14.00" fill="#000000">StopMessageReceived</text>
<polyline fill="none" stroke="#000000" points="1935.1907,-25.3 2077.9271,-25.3 "/>
<text text-anchor="middle" x="2006.5589" y="-8.7" font-family="Times,serif" font-size="14.00" fill="#000000">entry / LogoutBot</text>
</g>
<!-- Connected&#45;&gt;StopMessageReceived -->
<g id="edge15" class="edge">
<title>Connected-&gt;StopMessageReceived</title>
<path fill="none" stroke="#000000" d="M1432.6741,-254.4906C1453.5218,-204.45 1508.1989,-92.2215 1595.2558,-45.5 1650.2759,-15.9719 1821.7161,-17.3358 1925.0786,-21.1816"/>
<polygon fill="#000000" stroke="#000000" points="1925.043,-24.6828 1935.1711,-21.573 1925.3143,-17.6881 1925.043,-24.6828"/>
<text text-anchor="middle" x="1751.1661" y="-50.5" font-family="Times,serif" font-size="14.00" fill="#000000">StopMessage</text>
</g>
<!-- HelpMessageReceived -->
<g id="node13" class="node">
<title>HelpMessageReceived</title>
<path fill="none" stroke="#000000" d="M1946.4214,-249.3C1946.4214,-249.3 2066.6964,-249.3 2066.6964,-249.3 2072.6964,-249.3 2078.6964,-255.3 2078.6964,-261.3 2078.6964,-261.3 2078.6964,-273.3 2078.6964,-273.3 2078.6964,-279.3 2072.6964,-285.3 2066.6964,-285.3 2066.6964,-285.3 1946.4214,-285.3 1946.4214,-285.3 1940.4214,-285.3 1934.4214,-279.3 1934.4214,-273.3 1934.4214,-273.3 1934.4214,-261.3 1934.4214,-261.3 1934.4214,-255.3 1940.4214,-249.3 1946.4214,-249.3"/>
<text text-anchor="middle" x="2006.5589" y="-263.2" font-family="Times,serif" font-size="14.00" fill="#000000">HelpMessageReceived</text>
</g>
<!-- Connected&#45;&gt;HelpMessageReceived -->
<g id="edge16" class="edge">
<title>Connected-&gt;HelpMessageReceived</title>
<path fill="none" stroke="#000000" d="M1577.5278,-276.1236C1688.7101,-273.837 1834.354,-270.8416 1924.1354,-268.9951"/>
<polygon fill="#000000" stroke="#000000" points="1924.3358,-272.4919 1934.2617,-268.7869 1924.1918,-265.4933 1924.3358,-272.4919"/>
<text text-anchor="middle" x="1751.1661" y="-280.5" font-family="Times,serif" font-size="14.00" fill="#000000">HelpMessage / AnswerToMenuMessage</text>
</g>
<!-- MessageFromPeer -->
<g id="node14" class="node">
<title>MessageFromPeer</title>
<path fill="none" stroke="#000000" d="M1958.467,-161.3C1958.467,-161.3 2054.6508,-161.3 2054.6508,-161.3 2060.6508,-161.3 2066.6508,-167.3 2066.6508,-173.3 2066.6508,-173.3 2066.6508,-185.3 2066.6508,-185.3 2066.6508,-191.3 2060.6508,-197.3 2054.6508,-197.3 2054.6508,-197.3 1958.467,-197.3 1958.467,-197.3 1952.467,-197.3 1946.467,-191.3 1946.467,-185.3 1946.467,-185.3 1946.467,-173.3 1946.467,-173.3 1946.467,-167.3 1952.467,-161.3 1958.467,-161.3"/>
<text text-anchor="middle" x="2006.5589" y="-175.2" font-family="Times,serif" font-size="14.00" fill="#000000">MessageFromPeer</text>
</g>
<!-- Connected&#45;&gt;MessageFromPeer -->
<g id="edge17" class="edge">
<title>Connected-&gt;MessageFromPeer</title>
<path fill="none" stroke="#000000" d="M1484.6672,-254.4262C1517.0698,-242.3274 1557.7573,-228.6677 1595.2558,-220.5 1713.221,-194.8055 1853.7674,-185.0892 1936.2717,-181.447"/>
<polygon fill="#000000" stroke="#000000" points="1936.4437,-184.943 1946.2864,-181.0223 1936.147,-177.9492 1936.4437,-184.943"/>
<text text-anchor="middle" x="1751.1661" y="-225.5" font-family="Times,serif" font-size="14.00" fill="#000000">MessageReceivedFromPeer / AnswerToPeerMessage</text>
</g>
<!-- JoinConference&#45;&gt;Connected -->
<g id="edge18" class="edge">
<title>JoinConference-&gt;Connected</title>
<path fill="none" stroke="#000000" d="M1934.6403,-319.6613C1925.378,-318.486 1916.0117,-317.3935 1907.0764,-316.5 1768.9161,-302.6842 1733.6291,-308.7879 1595.2558,-297.3 1592.7006,-297.0879 1590.1244,-296.8699 1587.5316,-296.6467"/>
<polygon fill="#000000" stroke="#000000" points="1587.7252,-293.1503 1577.4571,-295.7611 1587.1122,-300.1234 1587.7252,-293.1503"/>
<text text-anchor="middle" x="1751.1661" y="-321.5" font-family="Times,serif" font-size="14.00" fill="#000000">ActionDone</text>
</g>
<!-- AutoReconnection&#45;&gt;Created -->
<g id="edge21" class="edge">
<title>AutoReconnection-&gt;Created</title>
<path fill="none" stroke="#000000" d="M1984.7825,-606.5635C1965.585,-621.6304 1936.2081,-642.2614 1907.0764,-653.3 1703.7708,-730.3365 1640.4919,-724.3 1423.0804,-724.3 241.3287,-724.3 241.3287,-724.3 241.3287,-724.3 183.1285,-724.3 126.5972,-681.2494 95.3416,-652.5087"/>
<polygon fill="#000000" stroke="#000000" points="97.6317,-649.8575 87.9543,-645.545 92.8301,-654.9512 97.6317,-649.8575"/>
<text text-anchor="middle" x="792.6958" y="-728.5" font-family="Times,serif" font-size="14.00" fill="#000000">IncorrectCredentials</text>
</g>
<!-- AutoReconnection&#45;&gt;NotConnected -->
<g id="edge20" class="edge">
<title>AutoReconnection-&gt;NotConnected</title>
<path fill="none" stroke="#000000" d="M1946.1464,-570.2763C1933.3335,-566.9126 1919.8263,-563.7045 1907.0764,-561.3 1762.3416,-534.0042 1277.3023,-476.3 1053.4673,-476.3 497.9516,-476.3 497.9516,-476.3 497.9516,-476.3 429.2089,-476.3 351.7102,-492.4901 300.0393,-505.6604"/>
<polygon fill="#000000" stroke="#000000" points="298.8608,-502.3502 290.0597,-508.2485 300.6182,-509.126 298.8608,-502.3502"/>
<text text-anchor="middle" x="933.7772" y="-480.5" font-family="Times,serif" font-size="14.00" fill="#000000">TooManyAttempts</text>
</g>
<!-- AutoReconnection&#45;&gt;Authenticated -->
<g id="edge23" class="edge">
<title>AutoReconnection-&gt;Authenticated</title>
<path fill="none" stroke="#000000" d="M1971.1456,-606.3703C1952.5678,-614.945 1929.1366,-624.3739 1907.0764,-629.3 1763.8447,-661.2839 1723.972,-641.7434 1577.2558,-645.3 1262.0849,-652.9402 1179.1799,-670.6646 868.4658,-617.3 862.3739,-616.2537 856.0665,-614.9206 849.8105,-613.4348"/>
<polygon fill="#000000" stroke="#000000" points="850.6107,-610.0272 840.0601,-610.9935 848.9106,-616.8176 850.6107,-610.0272"/>
<text text-anchor="middle" x="1179.3755" y="-659.5" font-family="Times,serif" font-size="14.00" fill="#000000">AuthenticationSucceeded</text>
</g>
<!-- AutoReconnection&#45;&gt;Initialized -->
<g id="edge22" class="edge">
<title>AutoReconnection-&gt;Initialized</title>
<path fill="none" stroke="#000000" d="M1945.974,-600.0019C1933.1731,-602.095 1919.7145,-604.0154 1907.0764,-605.3 1624.8566,-633.9854 1552.512,-622.4602 1268.905,-616.3 1197.2725,-614.7441 1178.8038,-619.2306 1107.846,-609.3 1105.1889,-608.9281 1102.4716,-608.485 1099.7382,-607.9904"/>
<polygon fill="#000000" stroke="#000000" points="1100.3405,-604.5416 1089.8477,-606.0089 1098.9653,-611.4052 1100.3405,-604.5416"/>
<text text-anchor="middle" x="1423.0804" y="-628.5" font-family="Times,serif" font-size="14.00" fill="#000000">InitializationPerformed</text>
</g>
<!-- AutoReconnection&#45;&gt;AutoReconnection -->
<g id="edge19" class="edge">
<title>AutoReconnection-&gt;AutoReconnection</title>
<path fill="none" stroke="#000000" d="M1960.8989,-606.3287C1953.1397,-615.9943 1968.3597,-624.8 2006.5589,-624.8 2030.4334,-624.8 2045.3317,-621.3603 2051.2537,-616.4207"/>
<polygon fill="#000000" stroke="#000000" points="2054.7508,-616.6165 2052.2189,-606.3287 2047.7826,-615.95 2054.7508,-616.6165"/>
<text text-anchor="middle" x="2006.5589" y="-629" font-family="Times,serif" font-size="14.00" fill="#000000">Disconnect</text>
</g>
<!-- BubbleInvitationReceived&#45;&gt;Connected -->
<g id="edge24" class="edge">
<title>BubbleInvitationReceived-&gt;Connected</title>
<path fill="none" stroke="#000000" d="M1924.6893,-96.9381C1809.033,-103.689 1610.1177,-116.1112 1595.2558,-122.5 1532.7538,-149.3682 1478.0279,-208.6626 1447.8604,-246.1457"/>
<polygon fill="#000000" stroke="#000000" points="1444.9058,-244.2391 1441.4443,-254.2525 1450.3947,-248.5833 1444.9058,-244.2391"/>
<text text-anchor="middle" x="1751.1661" y="-127.5" font-family="Times,serif" font-size="14.00" fill="#000000">BubbleInvitationManaged</text>
</g>
<!-- UserInvitationReceived&#45;&gt;Connected -->
<g id="edge25" class="edge">
<title>UserInvitationReceived-&gt;Connected</title>
<path fill="none" stroke="#000000" d="M1933.1715,-401.2525C1924.4123,-399.463 1915.5677,-397.823 1907.0764,-396.5 1769.659,-375.0899 1728.7203,-409.4045 1595.2558,-370.3 1549.3881,-356.861 1501.6746,-330.5147 1468.1409,-309.6145"/>
<polygon fill="#000000" stroke="#000000" points="1469.8253,-306.5387 1459.5021,-304.155 1466.0857,-312.456 1469.8253,-306.5387"/>
<text text-anchor="middle" x="1751.1661" y="-401.5" font-family="Times,serif" font-size="14.00" fill="#000000">UserInvitationManaged</text>
</g>
<!-- StopMessageReceived&#45;&gt;NotConnected -->
<g id="edge26" class="edge">
<title>StopMessageReceived-&gt;NotConnected</title>
<path fill="none" stroke="#000000" d="M1935.1754,-21.4779C1825.227,-15.9296 1607.7945,-6.3 1423.0804,-6.3 497.9516,-6.3 497.9516,-6.3 497.9516,-6.3 387.9328,-6.3 277.5497,-387.1246 248.6257,-494.4501"/>
<polygon fill="#000000" stroke="#000000" points="245.2105,-493.6732 246.0102,-504.2378 251.9732,-495.4804 245.2105,-493.6732"/>
<text text-anchor="middle" x="933.7772" y="-10.5" font-family="Times,serif" font-size="14.00" fill="#000000">Disconnect</text>
</g>
<!-- HelpMessageReceived&#45;&gt;Connected -->
<g id="edge27" class="edge">
<title>HelpMessageReceived-&gt;Connected</title>
<path fill="none" stroke="#000000" d="M1934.2244,-252.8191C1925.1172,-251.4503 1915.9022,-250.2834 1907.0764,-249.5 1769.0322,-237.2474 1733.3342,-237.6389 1595.2558,-249.5 1584.611,-250.4144 1573.6365,-251.6412 1562.6244,-253.0772"/>
<polygon fill="#000000" stroke="#000000" points="1561.9466,-249.637 1552.509,-254.4517 1562.8892,-256.5733 1561.9466,-249.637"/>
<text text-anchor="middle" x="1751.1661" y="-254.5" font-family="Times,serif" font-size="14.00" fill="#000000">MessageManaged</text>
</g>
<!-- MessageFromPeer&#45;&gt;Connected -->
<g id="edge28" class="edge">
<title>MessageFromPeer-&gt;Connected</title>
<path fill="none" stroke="#000000" d="M1946.3892,-164.5829C1864.8082,-147.3567 1715.4916,-125.5656 1595.2558,-162.5 1541.3028,-179.0734 1489.0669,-218.9304 1456.5531,-247.4724"/>
<polygon fill="#000000" stroke="#000000" points="1453.8509,-245.193 1448.7227,-254.464 1458.5131,-250.4145 1453.8509,-245.193"/>
<text text-anchor="middle" x="1751.1661" y="-167.5" font-family="Times,serif" font-size="14.00" fill="#000000">MessageManaged</text>
</g>
<!-- init -->
<g id="node15" class="node">
<title>init</title>
<ellipse fill="#000000" stroke="#000000" cx="1.8" cy="-627.3" rx="1.8" ry="1.8"/>
</g>
<!-- init&#45;&gt;Created -->
<g id="edge29" class="edge">
<title>init-&gt;Created</title>
<path fill="none" stroke="#000000" d="M3.7781,-627.3C8.0577,-627.3 18.7285,-627.3 30.3044,-627.3"/>
<polygon fill="#000000" stroke="#000000" points="30.5723,-630.8001 40.5723,-627.3 30.5723,-623.8001 30.5723,-630.8001"/>
</g>
</g>
</svg>