<?xml version="1.0" encoding="UTF-8" standalone="no"?><!DOCTYPE svg PUBLIC "-//W3C//DTD SVG 1.1//EN" "http://www.w3.org/Graphics/SVG/1.1/DTD/svg11.dtd"><!-- Generated by graphviz version 2.40.1 (20161225.0304)
 --><!-- Title: %0 Pages: 1 --><svg xmlns="http://www.w3.org/2000/svg" xmlns:xlink="http://www.w3.org/1999/xlink" width="2087pt" height="834pt" viewBox="0.00 0.00 2086.70 834.23">
<g id="graph0" class="graph" transform="scale(1 1) rotate(0) translate(4 830.2333)">
<title>%0</title>
<polygon fill="#ffffff" stroke="transparent" points="-4,4 -4,-830.2333 2082.7048,-830.2333 2082.7048,4 -4,4"/>
<!-- Created -->
<g id="node1" class="node">
<title>Created</title>
<path fill="none" stroke="#000000" d="M52.6,-582.4333C52.6,-582.4333 88.1316,-582.4333 88.1316,-582.4333 94.1316,-582.4333 100.1316,-588.4333 100.1316,-594.4333 100.1316,-594.4333 100.1316,-606.4333 100.1316,-606.4333 100.1316,-612.4333 94.1316,-618.4333 88.1316,-618.4333 88.1316,-618.4333 52.6,-618.4333 52.6,-618.4333 46.6,-618.4333 40.6,-612.4333 40.6,-606.4333 40.6,-606.4333 40.6,-594.4333 40.6,-594.4333 40.6,-588.4333 46.6,-582.4333 52.6,-582.4333"/>
<text text-anchor="middle" x="70.3658" y="-596.3333" font-family="Times,serif" font-size="14.00" fill="#000000">Created</text>
</g>
<!-- NotConnected -->
<g id="node2" class="node">
<title>NotConnected</title>
<path fill="none" stroke="#000000" d="M204.8946,-582.4333C204.8946,-582.4333 277.7628,-582.4333 277.7628,-582.4333 283.7628,-582.4333 289.7628,-588.4333 289.7628,-594.4333 289.7628,-594.4333 289.7628,-606.4333 289.7628,-606.4333 289.7628,-612.4333 283.7628,-618.4333 277.7628,-618.4333 277.7628,-618.4333 204.8946,-618.4333 204.8946,-618.4333 198.8946,-618.4333 192.8946,-612.4333 192.8946,-606.4333 192.8946,-606.4333 192.8946,-594.4333 192.8946,-594.4333 192.8946,-588.4333 198.8946,-582.4333 204.8946,-582.4333"/>
<text text-anchor="middle" x="241.3287" y="-596.3333" font-family="Times,serif" font-size="14.00" fill="#000000">NotConnected</text>
</g>
<!-- Created&#45;&gt;NotConnected -->
<g id="edge1" class="edge">
<title>Created-&gt;NotConnected</title>
<path fill="none" stroke="#000000" d="M100.1453,-600.4333C122.8948,-600.4333 154.9673,-600.4333 182.7953,-600.4333"/>
<polygon fill="#000000" stroke="#000000" points="182.8306,-603.9334 192.8306,-600.4333 182.8305,-596.9334 182.8306,-603.9334"/>
<text text-anchor="middle" x="146.5131" y="-604.6333" font-family="Times,serif" font-size="14.00" fill="#000000">Configure</text>
</g>
<!-- Connecting -->
<g id="node3" class="node">
<title>Connecting</title>
<path fill="none" stroke="#000000" d="M469.6781,-544.4333C469.6781,-544.4333 526.2251,-544.4333 526.2251,-544.4333 532.2251,-544.4333 538.2251,-550.4333 538.2251,-556.4333 538.2251,-556.4333 538.2251,-568.4333 538.2251,-568.4333 538.2251,-574.4333 532.2251,-580.4333 526.2251,-580.4333 526.2251,-580.4333 469.6781,-580.4333 469.6781,-580.4333 463.6781,-580.4333 457.6781,-574.4333 457.6781,-568.4333 457.6781,-568.4333 457.6781,-556.4333 457.6781,-556.4333 457.6781,-550.4333 463.6781,-544.4333 469.6781,-544.4333"/>
<text text-anchor="middle" x="497.9516" y="-558.3333" font-family="Times,serif" font-size="14.00" fill="#000000">Connecting</text>
</g>
<!-- NotConnected&#45;&gt;Connecting -->
<g id="edge2" class="edge">
<title>NotConnected-&gt;Connecting</title>
<path fill="none" stroke="#000000" d="M289.865,-589.894C295.8792,-588.7231 301.9535,-587.6047 307.7628,-586.6333 354.7253,-578.7802 408.5895,-572.1472 446.9781,-567.8228"/>
<polygon fill="#000000" stroke="#000000" points="447.8253,-571.2502 457.3767,-566.6653 447.0508,-564.2932 447.8253,-571.2502"/>
<text text-anchor="middle" x="364.8996" y="-591.6333" font-family="Times,serif" font-size="14.00" fill="#000000">StartLogin</text>
</g>
<!-- ConnectionFailed -->
<g id="node4" class="node">
<title>ConnectionFailed</title>
<path fill="none" stroke="#000000" d="M746.9258,-599.4333C746.9258,-599.4333 838.4658,-599.4333 838.4658,-599.4333 844.4658,-599.4333 850.4658,-605.4333 850.4658,-611.4333 850.4658,-611.4333 850.4658,-623.4333 850.4658,-623.4333 850.4658,-629.4333 844.4658,-635.4333 838.4658,-635.4333 838.4658,-635.4333 746.9258,-635.4333 746.9258,-635.4333 740.9258,-635.4333 734.9258,-629.4333 734.9258,-623.4333 734.9258,-623.4333 734.9258,-611.4333 734.9258,-611.4333 734.9258,-605.4333 740.9258,-599.4333 746.9258,-599.4333"/>
<text text-anchor="middle" x="792.6958" y="-613.3333" font-family="Times,serif" font-size="14.00" fill="#000000">ConnectionFailed</text>
</g>
<!-- Connecting&#45;&gt;ConnectionFailed -->
<g id="edge3" class="edge">
<title>Connecting-&gt;ConnectionFailed</title>
<path fill="none" stroke="#000000" d="M538.5016,-563.5771C582.9105,-565.5973 655.9343,-571.1843 716.9258,-586.6333 726.0237,-588.9378 735.4743,-592.1053 744.4892,-595.5367"/>
<polygon fill="#000000" stroke="#000000" points="743.477,-598.9005 754.0629,-599.3353 746.0586,-592.3939 743.477,-598.9005"/>
<text text-anchor="middle" x="645.3963" y="-591.6333" font-family="Times,serif" font-size="14.00" fill="#000000">Disconnect</text>
</g>
<!-- Authenticated -->
<g id="node5" class="node">
<title>Authenticated</title>
<path fill="none" stroke="#000000" d="M757.4321,-157.4333C757.4321,-157.4333 827.9595,-157.4333 827.9595,-157.4333 833.9595,-157.4333 839.9595,-163.4333 839.9595,-169.4333 839.9595,-169.4333 839.9595,-181.4333 839.9595,-181.4333 839.9595,-187.4333 833.9595,-193.4333 827.9595,-193.4333 827.9595,-193.4333 757.4321,-193.4333 757.4321,-193.4333 751.4321,-193.4333 745.4321,-187.4333 745.4321,-181.4333 745.4321,-181.4333 745.4321,-169.4333 745.4321,-169.4333 745.4321,-163.4333 751.4321,-157.4333 757.4321,-157.4333"/>
<text text-anchor="middle" x="792.6958" y="-171.3333" font-family="Times,serif" font-size="14.00" fill="#000000">Authenticated</text>
</g>
<!-- Connecting&#45;&gt;Authenticated -->
<g id="edge4" class="edge">
<title>Connecting-&gt;Authenticated</title>
<path fill="none" stroke="#000000" d="M511.7724,-544.2866C559.3469,-481.821 716.4876,-275.4949 772.5795,-201.846"/>
<polygon fill="#000000" stroke="#000000" points="775.6303,-203.6169 778.9049,-193.5408 770.0615,-199.3756 775.6303,-203.6169"/>
<text text-anchor="middle" x="645.3963" y="-463.6333" font-family="Times,serif" font-size="14.00" fill="#000000">AuthenticationSucceeded</text>
</g>
<!-- ConnectionFailed&#45;&gt;Created -->
<g id="edge6" class="edge">
<title>ConnectionFailed-&gt;Created</title>
<path fill="none" stroke="#000000" d="M772.411,-635.4587C705.9178,-692.2765 488.4497,-860.1286 307.7628,-795.4333 212.7455,-761.4122 128.492,-671.1474 91.0023,-626.3714"/>
<polygon fill="#000000" stroke="#000000" points="93.6208,-624.0456 84.5543,-618.5639 88.2235,-628.5031 93.6208,-624.0456"/>
<text text-anchor="middle" x="364.8996" y="-813.6333" font-family="Times,serif" font-size="14.00" fill="#000000">IncorrectCredentials</text>
</g>
<!-- ConnectionFailed&#45;&gt;NotConnected -->
<g id="edge5" class="edge">
<title>ConnectionFailed-&gt;NotConnected</title>
<path fill="none" stroke="#000000" d="M734.8348,-616.0671C643.9036,-613.8514 461.9992,-609.1418 307.7628,-603.4333 305.239,-603.3399 302.6614,-603.2405 300.0576,-603.1369"/>
<polygon fill="#000000" stroke="#000000" points="300.0795,-599.635 289.9437,-602.7199 299.791,-606.629 300.0795,-599.635"/>
<text text-anchor="middle" x="497.9516" y="-615.6333" font-family="Times,serif" font-size="14.00" fill="#000000">ServerNotReachable</text>
</g>
<!-- Initialized -->
<g id="node6" class="node">
<title>Initialized</title>
<path fill="none" stroke="#000000" d="M1029.0886,-182.4333C1029.0886,-182.4333 1077.846,-182.4333 1077.846,-182.4333 1083.846,-182.4333 1089.846,-188.4333 1089.846,-194.4333 1089.846,-194.4333 1089.846,-206.4333 1089.846,-206.4333 1089.846,-212.4333 1083.846,-218.4333 1077.846,-218.4333 1077.846,-218.4333 1029.0886,-218.4333 1029.0886,-218.4333 1023.0886,-218.4333 1017.0886,-212.4333 1017.0886,-206.4333 1017.0886,-206.4333 1017.0886,-194.4333 1017.0886,-194.4333 1017.0886,-188.4333 1023.0886,-182.4333 1029.0886,-182.4333"/>
<text text-anchor="middle" x="1053.4673" y="-196.3333" font-family="Times,serif" font-size="14.00" fill="#000000">Initialized</text>
</g>
<!-- Authenticated&#45;&gt;Initialized -->
<g id="edge7" class="edge">
<title>Authenticated-&gt;Initialized</title>
<path fill="none" stroke="#000000" d="M840.2221,-179.9896C887.4773,-184.5199 959.5265,-191.4273 1006.5628,-195.9366"/>
<polygon fill="#000000" stroke="#000000" points="1006.4957,-199.4461 1016.7841,-196.9165 1007.1638,-192.4781 1006.4957,-199.4461"/>
<text text-anchor="middle" x="933.7772" y="-199.6333" font-family="Times,serif" font-size="14.00" fill="#000000">InitializationPerformed</text>
</g>
<!-- AutoReconnection -->
<g id="node12" class="node">
<title>AutoReconnection</title>
<path fill="none" stroke="#000000" d="M1948.7356,-107.4333C1948.7356,-107.4333 2045.709,-107.4333 2045.709,-107.4333 2051.709,-107.4333 2057.709,-113.4333 2057.709,-119.4333 2057.709,-119.4333 2057.709,-131.4333 2057.709,-131.4333 2057.709,-137.4333 2051.709,-143.4333 2045.709,-143.4333 2045.709,-143.4333 1948.7356,-143.4333 1948.7356,-143.4333 1942.7356,-143.4333 1936.7356,-137.4333 1936.7356,-131.4333 1936.7356,-131.4333 1936.7356,-119.4333 1936.7356,-119.4333 1936.7356,-113.4333 1942.7356,-107.4333 1948.7356,-107.4333"/>
<text text-anchor="middle" x="1997.2223" y="-121.3333" font-family="Times,serif" font-size="14.00" fill="#000000">AutoReconnection</text>
</g>
<!-- Authenticated&#45;&gt;AutoReconnection -->
<g id="edge8" class="edge">
<title>Authenticated-&gt;AutoReconnection</title>
<path fill="none" stroke="#000000" d="M840.0739,-173.0956C963.1011,-167.0658 1302.852,-150.6739 1585.9192,-139.4333 1705.3883,-134.6892 1844.4179,-130.1651 1926.386,-127.6006"/>
<polygon fill="#000000" stroke="#000000" points="1926.6982,-131.0927 1936.5842,-127.2825 1926.4798,-124.0961 1926.6982,-131.0927"/>
<text text-anchor="middle" x="1179.3755" y="-164.6333" font-family="Times,serif" font-size="14.00" fill="#000000">Disconnect</text>
</g>
<!-- Connected -->
<g id="node7" class="node">
<title>Connected</title>
<path fill="none" stroke="#000000" d="M1280.905,-444.6333C1280.905,-444.6333 1555.9192,-444.6333 1555.9192,-444.6333 1561.9192,-444.6333 1567.9192,-450.6333 1567.9192,-456.6333 1567.9192,-456.6333 1567.9192,-482.2333 1567.9192,-482.2333 1567.9192,-488.2333 1561.9192,-494.2333 1555.9192,-494.2333 1555.9192,-494.2333 1280.905,-494.2333 1280.905,-494.2333 1274.905,-494.2333 1268.905,-488.2333 1268.905,-482.2333 1268.905,-482.2333 1268.905,-456.6333 1268.905,-456.6333 1268.905,-450.6333 1274.905,-444.6333 1280.905,-444.6333"/>
<text text-anchor="middle" x="1418.4121" y="-477.6333" font-family="Times,serif" font-size="14.00" fill="#000000">Connected</text>
<polyline fill="none" stroke="#000000" points="1268.905,-469.4333 1567.9192,-469.4333 "/>
<text text-anchor="middle" x="1418.4121" y="-452.8333" font-family="Times,serif" font-size="14.00" fill="#000000">entry / CheckConnectionConferenceAndMessages</text>
</g>
<!-- Initialized&#45;&gt;Connected -->
<g id="edge9" class="edge">
<title>Initialized-&gt;Connected</title>
<path fill="none" stroke="#000000" d="M1077.979,-218.5008C1139.2249,-263.645 1299.5129,-381.793 1376.2648,-438.3666"/>
<polygon fill="#000000" stroke="#000000" points="1374.6297,-441.5095 1384.756,-444.6255 1378.7831,-435.8747 1374.6297,-441.5095"/>
<text text-anchor="middle" x="1179.3755" y="-347.6333" font-family="Times,serif" font-size="14.00" fill="#000000">Connect</text>
</g>
<!-- Initialized&#45;&gt;AutoReconnection -->
<g id="edge10" class="edge">
<title>Initialized-&gt;AutoReconnection</title>
<path fill="none" stroke="#000000" d="M1089.8965,-197.9476C1241.2917,-187.5976 1816.6361,-148.06 1897.7398,-139.4333 1907.0722,-138.4406 1916.8765,-137.2468 1926.5421,-135.9801"/>
<polygon fill="#000000" stroke="#000000" points="1927.093,-139.4377 1936.5389,-134.6392 1926.1623,-132.4998 1927.093,-139.4377"/>
<text text-anchor="middle" x="1418.4121" y="-189.6333" font-family="Times,serif" font-size="14.00" fill="#000000">Disconnect</text>
</g>
<!-- AddVideoStream -->
<g id="node8" class="node">
<title>AddVideoStream</title>
<path fill="none" stroke="#000000" d="M1932.4081,-419.6333C1932.4081,-419.6333 2062.0365,-419.6333 2062.0365,-419.6333 2068.0365,-419.6333 2074.0365,-425.6333 2074.0365,-431.6333 2074.0365,-431.6333 2074.0365,-457.2333 2074.0365,-457.2333 2074.0365,-463.2333 2068.0365,-469.2333 2062.0365,-469.2333 2062.0365,-469.2333 1932.4081,-469.2333 1932.4081,-469.2333 1926.4081,-469.2333 1920.4081,-463.2333 1920.4081,-457.2333 1920.4081,-457.2333 1920.4081,-431.6333 1920.4081,-431.6333 1920.4081,-425.6333 1926.4081,-419.6333 1932.4081,-419.6333"/>
<text text-anchor="middle" x="1997.2223" y="-452.6333" font-family="Times,serif" font-size="14.00" fill="#000000">AddVideoStream</text>
<polyline fill="none" stroke="#000000" points="1920.4081,-444.4333 2074.0365,-444.4333 "/>
<text text-anchor="middle" x="1997.2223" y="-427.8333" font-family="Times,serif" font-size="14.00" fill="#000000">entry / AddVideoStream</text>
</g>
<!-- Connected&#45;&gt;AddVideoStream -->
<g id="edge14" class="edge">
<title>Connected-&gt;AddVideoStream</title>
<path fill="none" stroke="#000000" d="M1508.6019,-444.5833C1533.4575,-438.8221 1560.5617,-433.5317 1585.9192,-430.6333 1723.6096,-414.8949 1759.4819,-421.0896 1897.7398,-430.6333 1901.7353,-430.9091 1905.8146,-431.2465 1909.9306,-431.6322"/>
<polygon fill="#000000" stroke="#000000" points="1909.9064,-435.1479 1920.2105,-432.683 1910.6182,-428.1842 1909.9064,-435.1479"/>
<text text-anchor="middle" x="1741.8295" y="-435.6333" font-family="Times,serif" font-size="14.00" fill="#000000">VideoStreamAvailable</text>
</g>
<!-- AddSharingStream -->
<g id="node9" class="node">
<title>AddSharingStream</title>
<path fill="none" stroke="#000000" d="M1927.7398,-337.6333C1927.7398,-337.6333 2066.7048,-337.6333 2066.7048,-337.6333 2072.7048,-337.6333 2078.7048,-343.6333 2078.7048,-349.6333 2078.7048,-349.6333 2078.7048,-375.2333 2078.7048,-375.2333 2078.7048,-381.2333 2072.7048,-387.2333 2066.7048,-387.2333 2066.7048,-387.2333 1927.7398,-387.2333 1927.7398,-387.2333 1921.7398,-387.2333 1915.7398,-381.2333 1915.7398,-375.2333 1915.7398,-375.2333 1915.7398,-349.6333 1915.7398,-349.6333 1915.7398,-343.6333 1921.7398,-337.6333 1927.7398,-337.6333"/>
<text text-anchor="middle" x="1997.2223" y="-370.6333" font-family="Times,serif" font-size="14.00" fill="#000000">AddSharingStream</text>
<polyline fill="none" stroke="#000000" points="1915.7398,-362.4333 2078.7048,-362.4333 "/>
<text text-anchor="middle" x="1997.2223" y="-345.8333" font-family="Times,serif" font-size="14.00" fill="#000000">entry / AddSharingStream</text>
</g>
<!-- Connected&#45;&gt;AddSharingStream -->
<g id="edge15" class="edge">
<title>Connected-&gt;AddSharingStream</title>
<path fill="none" stroke="#000000" d="M1468.0439,-444.4759C1500.7054,-429.2107 1544.8581,-410.7324 1585.9192,-400.6333 1644.3839,-386.2538 1803.0964,-374.3036 1905.4016,-367.782"/>
<polygon fill="#000000" stroke="#000000" points="1905.669,-371.2722 1915.4284,-367.1487 1905.2276,-364.2861 1905.669,-371.2722"/>
<text text-anchor="middle" x="1741.8295" y="-405.6333" font-family="Times,serif" font-size="14.00" fill="#000000">SharingStreamAvailable</text>
</g>
<!-- JoinConference -->
<g id="node10" class="node">
<title>JoinConference</title>
<path fill="none" stroke="#000000" d="M1957.2966,-515.4333C1957.2966,-515.4333 2037.148,-515.4333 2037.148,-515.4333 2043.148,-515.4333 2049.148,-521.4333 2049.148,-527.4333 2049.148,-527.4333 2049.148,-539.4333 2049.148,-539.4333 2049.148,-545.4333 2043.148,-551.4333 2037.148,-551.4333 2037.148,-551.4333 1957.2966,-551.4333 1957.2966,-551.4333 1951.2966,-551.4333 1945.2966,-545.4333 1945.2966,-539.4333 1945.2966,-539.4333 1945.2966,-527.4333 1945.2966,-527.4333 1945.2966,-521.4333 1951.2966,-515.4333 1957.2966,-515.4333"/>
<text text-anchor="middle" x="1997.2223" y="-529.3333" font-family="Times,serif" font-size="14.00" fill="#000000">JoinConference</text>
</g>
<!-- Connected&#45;&gt;JoinConference -->
<g id="edge12" class="edge">
<title>Connected-&gt;JoinConference</title>
<path fill="none" stroke="#000000" d="M1475.7286,-494.3729C1507.5327,-506.9024 1548.1825,-520.8016 1585.9192,-527.4333 1708.1753,-548.9182 1854.0253,-543.9939 1935.0703,-538.618"/>
<polygon fill="#000000" stroke="#000000" points="1935.3704,-542.1057 1945.1066,-537.9278 1934.89,-535.1222 1935.3704,-542.1057"/>
<text text-anchor="middle" x="1741.8295" y="-547.6333" font-family="Times,serif" font-size="14.00" fill="#000000">ConferenceAvailable / JoinConference</text>
</g>
<!-- QuitConference -->
<g id="node11" class="node">
<title>QuitConference</title>
<path fill="none" stroke="#000000" d="M1936.6921,-649.6333C1936.6921,-649.6333 2057.7525,-649.6333 2057.7525,-649.6333 2063.7525,-649.6333 2069.7525,-655.6333 2069.7525,-661.6333 2069.7525,-661.6333 2069.7525,-687.2333 2069.7525,-687.2333 2069.7525,-693.2333 2063.7525,-699.2333 2057.7525,-699.2333 2057.7525,-699.2333 1936.6921,-699.2333 1936.6921,-699.2333 1930.6921,-699.2333 1924.6921,-693.2333 1924.6921,-687.2333 1924.6921,-687.2333 1924.6921,-661.6333 1924.6921,-661.6333 1924.6921,-655.6333 1930.6921,-649.6333 1936.6921,-649.6333"/>
<text text-anchor="middle" x="1997.2223" y="-682.6333" font-family="Times,serif" font-size="14.00" fill="#000000">QuitConference</text>
<polyline fill="none" stroke="#000000" points="1924.6921,-674.4333 2069.7525,-674.4333 "/>
<text text-anchor="middle" x="1997.2223" y="-657.8333" font-family="Times,serif" font-size="14.00" fill="#000000">entry / QuitConference</text>
</g>
<!-- Connected&#45;&gt;QuitConference -->
<g id="edge13" class="edge">
<title>Connected-&gt;QuitConference</title>
<path fill="none" stroke="#000000" d="M1434.0254,-494.5351C1460.0358,-533.8223 1516.3193,-608.7226 1585.9192,-641.4333 1614.8002,-655.0069 1802.7433,-665.6726 1914.3279,-670.9023"/>
<polygon fill="#000000" stroke="#000000" points="1914.3966,-674.4092 1924.548,-671.3762 1914.7208,-667.4167 1914.3966,-674.4092"/>
<text text-anchor="middle" x="1741.8295" y="-674.6333" font-family="Times,serif" font-size="14.00" fill="#000000">ConferenceQuit</text>
</g>
<!-- Connected&#45;&gt;AutoReconnection -->
<g id="edge11" class="edge">
<title>Connected-&gt;AutoReconnection</title>
<path fill="none" stroke="#000000" d="M1432.4521,-444.5079C1464.2104,-389.0916 1542.1944,-258.5804 1585.9192,-233.6333 1706.7161,-164.7128 1768.9285,-259.8697 1897.7398,-207.4333 1928.1195,-195.0663 1956.3177,-169.9871 1974.8767,-150.8024"/>
<polygon fill="#000000" stroke="#000000" points="1977.4302,-153.1961 1981.7404,-143.5176 1972.3354,-148.3958 1977.4302,-153.1961"/>
<text text-anchor="middle" x="1741.8295" y="-238.6333" font-family="Times,serif" font-size="14.00" fill="#000000">Disconnect</text>
</g>
<!-- BubbleInvitationReceived -->
<g id="node13" class="node">
<title>BubbleInvitationReceived</title>
<path fill="none" stroke="#000000" d="M1927.7398,-582.4333C1927.7398,-582.4333 2066.7048,-582.4333 2066.7048,-582.4333 2072.7048,-582.4333 2078.7048,-588.4333 2078.7048,-594.4333 2078.7048,-594.4333 2078.7048,-606.4333 2078.7048,-606.4333 2078.7048,-612.4333 2072.7048,-618.4333 2066.7048,-618.4333 2066.7048,-618.4333 1927.7398,-618.4333 1927.7398,-618.4333 1921.7398,-618.4333 1915.7398,-612.4333 1915.7398,-606.4333 1915.7398,-606.4333 1915.7398,-594.4333 1915.7398,-594.4333 1915.7398,-588.4333 1921.7398,-582.4333 1927.7398,-582.4333"/>
<text text-anchor="middle" x="1997.2223" y="-596.3333" font-family="Times,serif" font-size="14.00" fill="#000000">BubbleInvitationReceived</text>
</g>
<!-- Connected&#45;&gt;BubbleInvitationReceived -->
<g id="edge17" class="edge">
<title>Connected-&gt;BubbleInvitationReceived</title>
<path fill="none" stroke="#000000" d="M1438.4887,-494.3118C1467.1015,-527.5599 1523.1471,-584.9061 1585.9192,-607.4333 1642.5156,-627.7442 1802.6179,-618.306 1905.5691,-609.4675"/>
<polygon fill="#000000" stroke="#000000" points="1905.9997,-612.9433 1915.6578,-608.5877 1905.3915,-605.9698 1905.9997,-612.9433"/>
<text text-anchor="middle" x="1741.8295" y="-624.6333" font-family="Times,serif" font-size="14.00" fill="#000000">BubbleInvitationReceived / AnswerToBubbleInvitation</text>
</g>
<!-- MessageFromPeer -->
<g id="node14" class="node">
<title>MessageFromPeer</title>
<path fill="none" stroke="#000000" d="M1949.1304,-266.4333C1949.1304,-266.4333 2045.3142,-266.4333 2045.3142,-266.4333 2051.3142,-266.4333 2057.3142,-272.4333 2057.3142,-278.4333 2057.3142,-278.4333 2057.3142,-290.4333 2057.3142,-290.4333 2057.3142,-296.4333 2051.3142,-302.4333 2045.3142,-302.4333 2045.3142,-302.4333 1949.1304,-302.4333 1949.1304,-302.4333 1943.1304,-302.4333 1937.1304,-296.4333 1937.1304,-290.4333 1937.1304,-290.4333 1937.1304,-278.4333 1937.1304,-278.4333 1937.1304,-272.4333 1943.1304,-266.4333 1949.1304,-266.4333"/>
<text text-anchor="middle" x="1997.2223" y="-280.3333" font-family="Times,serif" font-size="14.00" fill="#000000">MessageFromPeer</text>
</g>
<!-- Connected&#45;&gt;MessageFromPeer -->
<g id="edge16" class="edge">
<title>Connected-&gt;MessageFromPeer</title>
<path fill="none" stroke="#000000" d="M1437.0264,-444.3633C1464.9254,-408.9852 1521.2661,-345.6103 1585.9192,-317.6333 1616.2927,-304.4899 1817.1232,-293.0226 1926.5021,-287.6599"/>
<polygon fill="#000000" stroke="#000000" points="1926.9744,-291.1412 1936.7928,-287.1601 1926.6348,-284.1494 1926.9744,-291.1412"/>
<text text-anchor="middle" x="1741.8295" y="-322.6333" font-family="Times,serif" font-size="14.00" fill="#000000">MessageReceivedFromPeer / AnswerToPeerMessage</text>
</g>
<!-- StopMessageReceived -->
<g id="node15" class="node">
<title>StopMessageReceived</title>
<path fill="none" stroke="#000000" d="M1937.8541,-740.6333C1937.8541,-740.6333 2056.5905,-740.6333 2056.5905,-740.6333 2062.5905,-740.6333 2068.5905,-746.6333 2068.5905,-752.6333 2068.5905,-752.6333 2068.5905,-778.2333 2068.5905,-778.2333 2068.5905,-784.2333 2062.5905,-790.2333 2056.5905,-790.2333 2056.5905,-790.2333 1937.8541,-790.2333 1937.8541,-790.2333 1931.8541,-790.2333 1925.8541,-784.2333 1925.8541,-778.2333 1925.8541,-778.2333 1925.8541,-752.6333 1925.8541,-752.6333 1925.8541,-746.6333 1931.8541,-740.6333 1937.8541,-740.6333"/>
<text text-anchor="middle" x="1997.2223" y="-773.6333" font-family="Times,serif" font-size="14.00" fill="#000000">StopMessageReceived</text>
<polyline fill="none" stroke="#000000" points="1925.8541,-765.4333 2068.5905,-765.4333 "/>
<text text-anchor="middle" x="1997.2223" y="-748.8333" font-family="Times,serif" font-size="14.00" fill="#000000">entry / StopBot</text>
</g>
<!-- Connected&#45;&gt;StopMessageReceived -->
<g id="edge18" class="edge">
<title>Connected-&gt;StopMessageReceived</title>
<path fill="none" stroke="#000000" d="M1426.4313,-494.5123C1444.8751,-547.5922 1495.7885,-670.8087 1585.9192,-724.4333 1645.6796,-759.9886 1828.6675,-742.6018 1897.7398,-750.6333 1903.5732,-751.3116 1909.591,-752.0671 1915.644,-752.8678"/>
<polygon fill="#000000" stroke="#000000" points="1915.4574,-756.3746 1925.8375,-754.2525 1916.3997,-749.4383 1915.4574,-756.3746"/>
<text text-anchor="middle" x="1741.8295" y="-754.6333" font-family="Times,serif" font-size="14.00" fill="#000000">StopMessage</text>
</g>
<!-- AddVideoStream&#45;&gt;Connected -->
<g id="edge19" class="edge">
<title>AddVideoStream-&gt;Connected</title>
<path fill="none" stroke="#000000" d="M1920.2924,-447.7561C1833.4203,-451.5082 1689.6658,-457.7173 1578.2225,-462.5308"/>
<polygon fill="#000000" stroke="#000000" points="1578.0625,-459.0343 1568.2228,-462.9627 1578.3646,-466.0278 1578.0625,-459.0343"/>
<text text-anchor="middle" x="1741.8295" y="-466.6333" font-family="Times,serif" font-size="14.00" fill="#000000">ActionDone</text>
</g>
<!-- AddSharingStream&#45;&gt;Connected -->
<g id="edge20" class="edge">
<title>AddSharingStream-&gt;Connected</title>
<path fill="none" stroke="#000000" d="M1915.6108,-350.192C1909.573,-349.5688 1903.5672,-349.0356 1897.7398,-348.6333 1828.6108,-343.8614 1651.8589,-327.3368 1585.9192,-348.6333 1532.1336,-366.0044 1481.0716,-407.7879 1449.7739,-437.3314"/>
<polygon fill="#000000" stroke="#000000" points="1447.0398,-435.1045 1442.2531,-444.5564 1451.8893,-440.1526 1447.0398,-435.1045"/>
<text text-anchor="middle" x="1741.8295" y="-353.6333" font-family="Times,serif" font-size="14.00" fill="#000000">ActionDone</text>
</g>
<!-- JoinConference&#45;&gt;Connected -->
<g id="edge21" class="edge">
<title>JoinConference-&gt;Connected</title>
<path fill="none" stroke="#000000" d="M1945.2292,-517.4411C1930.05,-513.3144 1913.3451,-509.2913 1897.7398,-506.6333 1760.7428,-483.2993 1724.4577,-494.3762 1585.9192,-483.4333 1583.3737,-483.2322 1580.8064,-483.0285 1578.222,-482.8227"/>
<polygon fill="#000000" stroke="#000000" points="1578.4249,-479.3278 1568.1775,-482.0186 1577.8663,-486.3055 1578.4249,-479.3278"/>
<text text-anchor="middle" x="1741.8295" y="-511.6333" font-family="Times,serif" font-size="14.00" fill="#000000">ActionDone</text>
</g>
<!-- QuitConference&#45;&gt;Connected -->
<g id="edge22" class="edge">
<title>QuitConference-&gt;Connected</title>
<path fill="none" stroke="#000000" d="M1924.3958,-684.8143C1822.5082,-697.9797 1643.4357,-715.7736 1585.9192,-687.4333 1507.8882,-648.9848 1456.0625,-554.7897 1432.6789,-503.7106"/>
<polygon fill="#000000" stroke="#000000" points="1435.7914,-502.0972 1428.5127,-494.3984 1429.4017,-504.9558 1435.7914,-502.0972"/>
<text text-anchor="middle" x="1741.8295" y="-707.6333" font-family="Times,serif" font-size="14.00" fill="#000000">ActionDone</text>
</g>
<!-- AutoReconnection&#45;&gt;Created -->
<g id="edge25" class="edge">
<title>AutoReconnection-&gt;Created</title>
<path fill="none" stroke="#000000" d="M1978.0202,-107.3588C1959.1605,-90.785 1928.7752,-67.1003 1897.7398,-55.4333 1697.2046,19.9532 1632.6491,-4.4333 1418.4121,-4.4333 241.3287,-4.4333 241.3287,-4.4333 241.3287,-4.4333 121.6759,-4.4333 80.9099,-453.8856 72.2524,-572.1835"/>
<polygon fill="#000000" stroke="#000000" points="68.7533,-572.0474 71.534,-582.2708 75.7356,-572.5447 68.7533,-572.0474"/>
<text text-anchor="middle" x="792.6958" y="-8.6333" font-family="Times,serif" font-size="14.00" fill="#000000">IncorrectCredentials</text>
</g>
<!-- AutoReconnection&#45;&gt;NotConnected -->
<g id="edge24" class="edge">
<title>AutoReconnection-&gt;NotConnected</title>
<path fill="none" stroke="#000000" d="M1936.7326,-112.1951C1831.792,-90.4206 1608.9509,-49.4333 1418.4121,-49.4333 497.9516,-49.4333 497.9516,-49.4333 497.9516,-49.4333 381.2836,-49.4333 274.7048,-460.5041 247.8259,-572.53"/>
<polygon fill="#000000" stroke="#000000" points="244.384,-571.8754 245.4758,-582.4138 251.1941,-573.4947 244.384,-571.8754"/>
<text text-anchor="middle" x="933.7772" y="-53.6333" font-family="Times,serif" font-size="14.00" fill="#000000">TooManyAttempts</text>
</g>
<!-- AutoReconnection&#45;&gt;Authenticated -->
<g id="edge27" class="edge">
<title>AutoReconnection-&gt;Authenticated</title>
<path fill="none" stroke="#000000" d="M1936.47,-123.5191C1792.4065,-119.5196 1418.8357,-112.315 1107.846,-133.6333 1000.9385,-140.9618 974.5024,-146.9681 868.4658,-162.4333 862.6279,-163.2847 856.547,-164.2297 850.4811,-165.2106"/>
<polygon fill="#000000" stroke="#000000" points="849.6291,-161.8037 840.3322,-166.885 850.7686,-168.7104 849.6291,-161.8037"/>
<text text-anchor="middle" x="1179.3755" y="-138.6333" font-family="Times,serif" font-size="14.00" fill="#000000">AuthenticationSucceeded</text>
</g>
<!-- AutoReconnection&#45;&gt;Initialized -->
<g id="edge26" class="edge">
<title>AutoReconnection-&gt;Initialized</title>
<path fill="none" stroke="#000000" d="M1959.2927,-143.5005C1941.0668,-151.4458 1918.6779,-160.1536 1897.7398,-165.4333 1754.7104,-201.499 1715.1407,-193.2693 1567.9192,-202.4333 1427.285,-211.1873 1391.8086,-205.5444 1250.905,-206.4333 1187.3245,-206.8344 1171.3318,-209.9251 1107.846,-206.4333 1105.315,-206.2941 1102.7208,-206.1187 1100.104,-205.9162"/>
<polygon fill="#000000" stroke="#000000" points="1100.255,-202.4159 1089.9851,-205.0198 1099.6372,-209.3886 1100.255,-202.4159"/>
<text text-anchor="middle" x="1418.4121" y="-211.6333" font-family="Times,serif" font-size="14.00" fill="#000000">InitializationPerformed</text>
</g>
<!-- AutoReconnection&#45;&gt;AutoReconnection -->
<g id="edge23" class="edge">
<title>AutoReconnection-&gt;AutoReconnection</title>
<path fill="none" stroke="#000000" d="M1951.5623,-143.462C1943.8031,-153.1276 1959.0231,-161.9333 1997.2223,-161.9333 2021.0968,-161.9333 2035.9951,-158.4936 2041.9171,-153.554"/>
<polygon fill="#000000" stroke="#000000" points="2045.4142,-153.7498 2042.8823,-143.462 2038.446,-153.0833 2045.4142,-153.7498"/>
<text text-anchor="middle" x="1997.2223" y="-166.1333" font-family="Times,serif" font-size="14.00" fill="#000000">Disconnect</text>
</g>
<!-- BubbleInvitationReceived&#45;&gt;Connected -->
<g id="edge28" class="edge">
<title>BubbleInvitationReceived-&gt;Connected</title>
<path fill="none" stroke="#000000" d="M1915.5701,-588.6606C1909.5418,-587.9283 1903.5492,-587.2423 1897.7398,-586.6333 1759.5594,-572.1467 1718.9159,-604.6274 1585.9192,-564.4333 1539.7963,-550.4941 1492.5158,-522.1405 1459.9993,-500.0202"/>
<polygon fill="#000000" stroke="#000000" points="1461.865,-497.0552 1451.6471,-494.2542 1457.888,-502.8158 1461.865,-497.0552"/>
<text text-anchor="middle" x="1741.8295" y="-591.6333" font-family="Times,serif" font-size="14.00" fill="#000000">BubbleInvitationManaged</text>
</g>
<!-- MessageFromPeer&#45;&gt;Connected -->
<g id="edge29" class="edge">
<title>MessageFromPeer-&gt;Connected</title>
<path fill="none" stroke="#000000" d="M1936.9041,-273.2945C1924.024,-271.3539 1910.4663,-269.6376 1897.7398,-268.6333 1828.6611,-263.1819 1648.6781,-239.2581 1585.9192,-268.6333 1512.2938,-303.0947 1459.7123,-387.5882 1434.757,-435.2625"/>
<polygon fill="#000000" stroke="#000000" points="1431.5814,-433.7848 1430.1362,-444.2806 1437.8112,-436.9769 1431.5814,-433.7848"/>
<text text-anchor="middle" x="1741.8295" y="-273.6333" font-family="Times,serif" font-size="14.00" fill="#000000">MessageManaged</text>
</g>
<!-- StopMessageReceived&#45;&gt;NotConnected -->
<g id="edge30" class="edge">
<title>StopMessageReceived-&gt;NotConnected</title>
<path fill="none" stroke="#000000" d="M1925.503,-768.6904C1816.1423,-773.3686 1601.1186,-781.4333 1418.4121,-781.4333 497.9516,-781.4333 497.9516,-781.4333 497.9516,-781.4333 391.7834,-781.4333 298.6443,-676.7002 260.145,-626.571"/>
<polygon fill="#000000" stroke="#000000" points="262.8359,-624.3263 254.02,-618.45 257.2472,-628.5414 262.8359,-624.3263"/>
<text text-anchor="middle" x="933.7772" y="-785.6333" font-family="Times,serif" font-size="14.00" fill="#000000">Disconnect</text>
</g>
<!-- init -->
<g id="node16" class="node">
<title>init</title>
<ellipse fill="#000000" stroke="#000000" cx="1.8" cy="-600.4333" rx="1.8" ry="1.8"/>
</g>
<!-- init&#45;&gt;Created -->
<g id="edge31" class="edge">
<title>init-&gt;Created</title>
<path fill="none" stroke="#000000" d="M3.7781,-600.4333C8.0577,-600.4333 18.7285,-600.4333 30.3044,-600.4333"/>
<polygon fill="#000000" stroke="#000000" points="30.5723,-603.9334 40.5723,-600.4333 30.5723,-596.9334 30.5723,-603.9334"/>
</g>
</g>
</svg>