<?xml version="1.0" encoding="UTF-8" standalone="no"?>
<!DOCTYPE svg PUBLIC "-//W3C//DTD SVG 1.1//EN"
 "http://www.w3.org/Graphics/SVG/1.1/DTD/svg11.dtd">
<!-- Generated by graphviz version 12.1.1 (20240910.0053)
 -->
<!-- Pages: 1 -->
<svg width="1448pt" height="792pt"
 viewBox="0.00 0.00 1448.24 791.56" xmlns="http://www.w3.org/2000/svg" xmlns:xlink="http://www.w3.org/1999/xlink">
<g id="graph0" class="graph" transform="scale(1 1) rotate(0) translate(4 787.56)">
<polygon fill="white" stroke="none" points="-4,4 -4,-787.56 1444.24,-787.56 1444.24,4 -4,4"/>
<g id="clust1" class="cluster">
<title>clusterConnected</title>
<polygon fill="none" stroke="black" points="207.45,-191.76 207.45,-740.76 995.14,-740.76 995.14,-191.76 207.45,-191.76"/>
<text text-anchor="middle" x="601.29" y="-724.16" font-family="Times,serif" font-size="14.00">Connected</text>
<text text-anchor="middle" x="601.29" y="-707.36" font-family="Times,serif" font-size="14.00">&#45;&#45;&#45;&#45;&#45;&#45;&#45;&#45;&#45;&#45;</text>
<text text-anchor="middle" x="601.29" y="-690.56" font-family="Times,serif" font-size="14.00">entry / OnEntryConnectedAsync</text>
</g>
<!-- CheckingDataAvailability -->
<g id="node1" class="node">
<title>CheckingDataAvailability</title>
<path fill="none" stroke="black" d="M227.45,-392.96C227.45,-392.96 472.16,-392.96 472.16,-392.96 478.16,-392.96 484.16,-398.96 484.16,-404.96 484.16,-404.96 484.16,-430.56 484.16,-430.56 484.16,-436.56 478.16,-442.56 472.16,-442.56 472.16,-442.56 227.45,-442.56 227.45,-442.56 221.45,-442.56 215.45,-436.56 215.45,-430.56 215.45,-430.56 215.45,-404.96 215.45,-404.96 215.45,-398.96 221.45,-392.96 227.45,-392.96"/>
<text text-anchor="middle" x="349.8" y="-425.96" font-family="Times,serif" font-size="14.00">CheckingDataAvailability</text>
<polyline fill="none" stroke="black" points="215.45,-417.76 484.16,-417.76"/>
<text text-anchor="middle" x="349.8" y="-401.16" font-family="Times,serif" font-size="14.00">entry / OnEntryCheckDataAvailabilityAsync</text>
</g>
<!-- CheckingDataAvailability&#45;&gt;CheckingDataAvailability -->
<g id="edge12" class="edge">
<title>CheckingDataAvailability&#45;&gt;CheckingDataAvailability</title>
<path fill="none" stroke="black" d="M315.54,-442.68C313.61,-452.67 325.03,-461.06 349.8,-461.06 364.9,-461.06 375.04,-457.95 380.22,-453.25"/>
<polygon fill="black" stroke="black" points="383.42,-454.7 383.55,-444.1 376.84,-452.3 383.42,-454.7"/>
<text text-anchor="middle" x="349.8" y="-465.26" font-family="Times,serif" font-size="14.00">NextStep / OnEntryCheckDataAvailabilityAsync</text>
</g>
<!-- ManageBubbleInvitationReceived -->
<g id="node2" class="node">
<title>ManageBubbleInvitationReceived</title>
<path fill="none" stroke="black" d="M657.35,-212.96C657.35,-212.96 965.04,-212.96 965.04,-212.96 971.04,-212.96 977.04,-218.96 977.04,-224.96 977.04,-224.96 977.04,-250.56 977.04,-250.56 977.04,-256.56 971.04,-262.56 965.04,-262.56 965.04,-262.56 657.35,-262.56 657.35,-262.56 651.35,-262.56 645.35,-256.56 645.35,-250.56 645.35,-250.56 645.35,-224.96 645.35,-224.96 645.35,-218.96 651.35,-212.96 657.35,-212.96"/>
<text text-anchor="middle" x="811.19" y="-245.96" font-family="Times,serif" font-size="14.00">ManageBubbleInvitationReceived</text>
<polyline fill="none" stroke="black" points="645.35,-237.76 977.04,-237.76"/>
<text text-anchor="middle" x="811.19" y="-221.16" font-family="Times,serif" font-size="14.00">entry / OnEntryManageBubbleInvitationReceivedAsync</text>
</g>
<!-- CheckingDataAvailability&#45;&gt;ManageBubbleInvitationReceived -->
<g id="edge13" class="edge">
<title>CheckingDataAvailability&#45;&gt;ManageBubbleInvitationReceived</title>
<path fill="none" stroke="black" d="M360.92,-392.59C380.46,-347.82 428.11,-255.65 502.16,-218.96 570.35,-185.18 657.69,-194.67 721.94,-209.82"/>
<polygon fill="black" stroke="black" points="720.84,-213.15 731.38,-212.13 722.51,-206.35 720.84,-213.15"/>
<text text-anchor="middle" x="559.7" y="-223.16" font-family="Times,serif" font-size="14.00">BubbleInvitation</text>
</g>
<!-- ManageUserInvitationReceived -->
<g id="node3" class="node">
<title>ManageUserInvitationReceived</title>
<path fill="none" stroke="black" d="M664.35,-283.96C664.35,-283.96 958.03,-283.96 958.03,-283.96 964.03,-283.96 970.03,-289.96 970.03,-295.96 970.03,-295.96 970.03,-321.56 970.03,-321.56 970.03,-327.56 964.03,-333.56 958.03,-333.56 958.03,-333.56 664.35,-333.56 664.35,-333.56 658.35,-333.56 652.35,-327.56 652.35,-321.56 652.35,-321.56 652.35,-295.96 652.35,-295.96 652.35,-289.96 658.35,-283.96 664.35,-283.96"/>
<text text-anchor="middle" x="811.19" y="-316.96" font-family="Times,serif" font-size="14.00">ManageUserInvitationReceived</text>
<polyline fill="none" stroke="black" points="652.35,-308.76 970.03,-308.76"/>
<text text-anchor="middle" x="811.19" y="-292.16" font-family="Times,serif" font-size="14.00">entry / OnEntryManageUserInvitationReceivedAsync</text>
</g>
<!-- CheckingDataAvailability&#45;&gt;ManageUserInvitationReceived -->
<g id="edge14" class="edge">
<title>CheckingDataAvailability&#45;&gt;ManageUserInvitationReceived</title>
<path fill="none" stroke="black" d="M372.64,-392.57C399.64,-363.54 448.64,-317.46 502.16,-298.96 551.86,-281.79 608.81,-279.24 660.11,-282.63"/>
<polygon fill="black" stroke="black" points="659.56,-286.1 669.79,-283.35 660.08,-279.12 659.56,-286.1"/>
<text text-anchor="middle" x="559.7" y="-303.16" font-family="Times,serif" font-size="14.00">UserInvitation</text>
</g>
<!-- ManageAckMessageReceived -->
<g id="node4" class="node">
<title>ManageAckMessageReceived</title>
<path fill="none" stroke="black" d="M668.63,-363.96C668.63,-363.96 953.75,-363.96 953.75,-363.96 959.75,-363.96 965.75,-369.96 965.75,-375.96 965.75,-375.96 965.75,-401.56 965.75,-401.56 965.75,-407.56 959.75,-413.56 953.75,-413.56 953.75,-413.56 668.63,-413.56 668.63,-413.56 662.63,-413.56 656.63,-407.56 656.63,-401.56 656.63,-401.56 656.63,-375.96 656.63,-375.96 656.63,-369.96 662.63,-363.96 668.63,-363.96"/>
<text text-anchor="middle" x="811.19" y="-396.96" font-family="Times,serif" font-size="14.00">ManageAckMessageReceived</text>
<polyline fill="none" stroke="black" points="656.63,-388.76 965.75,-388.76"/>
<text text-anchor="middle" x="811.19" y="-372.16" font-family="Times,serif" font-size="14.00">entry / OnEntryManageAckMessageReceivedAsync</text>
</g>
<!-- CheckingDataAvailability&#45;&gt;ManageAckMessageReceived -->
<g id="edge15" class="edge">
<title>CheckingDataAvailability&#45;&gt;ManageAckMessageReceived</title>
<path fill="none" stroke="black" d="M433.75,-392.52C455.77,-386.91 479.69,-381.8 502.16,-378.96 548.26,-373.15 598.53,-372.41 644.83,-373.96"/>
<polygon fill="black" stroke="black" points="644.56,-377.46 654.69,-374.34 644.83,-370.46 644.56,-377.46"/>
<text text-anchor="middle" x="559.7" y="-383.16" font-family="Times,serif" font-size="14.00">AckMessage</text>
</g>
<!-- ManageApplicationMessageReceived -->
<g id="node5" class="node">
<title>ManageApplicationMessageReceived</title>
<path fill="none" stroke="black" d="M647.24,-444.96C647.24,-444.96 975.14,-444.96 975.14,-444.96 981.14,-444.96 987.14,-450.96 987.14,-456.96 987.14,-456.96 987.14,-482.56 987.14,-482.56 987.14,-488.56 981.14,-494.56 975.14,-494.56 975.14,-494.56 647.24,-494.56 647.24,-494.56 641.24,-494.56 635.24,-488.56 635.24,-482.56 635.24,-482.56 635.24,-456.96 635.24,-456.96 635.24,-450.96 641.24,-444.96 647.24,-444.96"/>
<text text-anchor="middle" x="811.19" y="-477.96" font-family="Times,serif" font-size="14.00">ManageApplicationMessageReceived</text>
<polyline fill="none" stroke="black" points="635.24,-469.76 987.14,-469.76"/>
<text text-anchor="middle" x="811.19" y="-453.16" font-family="Times,serif" font-size="14.00">entry / OnEntryManageApplicationMessageReceivedAsync</text>
</g>
<!-- CheckingDataAvailability&#45;&gt;ManageApplicationMessageReceived -->
<g id="edge16" class="edge">
<title>CheckingDataAvailability&#45;&gt;ManageApplicationMessageReceived</title>
<path fill="none" stroke="black" d="M484.6,-432.91C528.13,-437.84 577.25,-443.4 623.9,-448.68"/>
<polygon fill="black" stroke="black" points="623.23,-452.12 633.56,-449.77 624.02,-445.17 623.23,-452.12"/>
<text text-anchor="middle" x="559.7" y="-451.08" font-family="Times,serif" font-size="14.00">ApplicationMessage</text>
</g>
<!-- ManageInternalMessageReceived -->
<g id="node6" class="node">
<title>ManageInternalMessageReceived</title>
<path fill="none" stroke="black" d="M658.53,-525.96C658.53,-525.96 963.86,-525.96 963.86,-525.96 969.86,-525.96 975.86,-531.96 975.86,-537.96 975.86,-537.96 975.86,-563.56 975.86,-563.56 975.86,-569.56 969.86,-575.56 963.86,-575.56 963.86,-575.56 658.53,-575.56 658.53,-575.56 652.53,-575.56 646.53,-569.56 646.53,-563.56 646.53,-563.56 646.53,-537.96 646.53,-537.96 646.53,-531.96 652.53,-525.96 658.53,-525.96"/>
<text text-anchor="middle" x="811.19" y="-558.96" font-family="Times,serif" font-size="14.00">ManageInternalMessageReceived</text>
<polyline fill="none" stroke="black" points="646.53,-550.76 975.86,-550.76"/>
<text text-anchor="middle" x="811.19" y="-534.16" font-family="Times,serif" font-size="14.00">entry / OnEntryManageInternalMessageReceivedAsync</text>
</g>
<!-- CheckingDataAvailability&#45;&gt;ManageInternalMessageReceived -->
<g id="edge17" class="edge">
<title>CheckingDataAvailability&#45;&gt;ManageInternalMessageReceived</title>
<path fill="none" stroke="black" d="M389.36,-442.93C419.03,-461.16 461.69,-484.93 502.16,-498.76 544.27,-513.15 591.02,-523.66 635.12,-531.3"/>
<polygon fill="black" stroke="black" points="634.34,-534.71 644.78,-532.92 635.5,-527.81 634.34,-534.71"/>
<text text-anchor="middle" x="559.7" y="-530.86" font-family="Times,serif" font-size="14.00">InternalMessage</text>
</g>
<!-- ManageInstantMessageReceived -->
<g id="node7" class="node">
<title>ManageInstantMessageReceived</title>
<path fill="none" stroke="black" d="M661.24,-607.96C661.24,-607.96 961.14,-607.96 961.14,-607.96 967.14,-607.96 973.14,-613.96 973.14,-619.96 973.14,-619.96 973.14,-645.56 973.14,-645.56 973.14,-651.56 967.14,-657.56 961.14,-657.56 961.14,-657.56 661.24,-657.56 661.24,-657.56 655.24,-657.56 649.24,-651.56 649.24,-645.56 649.24,-645.56 649.24,-619.96 649.24,-619.96 649.24,-613.96 655.24,-607.96 661.24,-607.96"/>
<text text-anchor="middle" x="811.19" y="-640.96" font-family="Times,serif" font-size="14.00">ManageInstantMessageReceived</text>
<polyline fill="none" stroke="black" points="649.24,-632.76 973.14,-632.76"/>
<text text-anchor="middle" x="811.19" y="-616.16" font-family="Times,serif" font-size="14.00">entry / OnEntryManageInstantMessageReceivedAsync</text>
</g>
<!-- CheckingDataAvailability&#45;&gt;ManageInstantMessageReceived -->
<g id="edge18" class="edge">
<title>CheckingDataAvailability&#45;&gt;ManageInstantMessageReceived</title>
<path fill="none" stroke="black" d="M364.88,-443.01C387.99,-481.79 437.89,-555.16 502.16,-589.76 526.62,-602.93 581.17,-612.46 637.68,-619.15"/>
<polygon fill="black" stroke="black" points="637.17,-622.61 647.5,-620.28 637.96,-615.66 637.17,-622.61"/>
<text text-anchor="middle" x="559.7" y="-620.05" font-family="Times,serif" font-size="14.00">InstantMessage</text>
</g>
<!-- ManageBubbleInvitationReceived&#45;&gt;CheckingDataAvailability -->
<g id="edge19" class="edge">
<title>ManageBubbleInvitationReceived&#45;&gt;CheckingDataAvailability</title>
<path fill="none" stroke="black" d="M645.01,-239.8C586.2,-242.71 528.13,-248.77 502.16,-260.96 445.42,-287.62 398.72,-345.45 372.84,-382.94"/>
<polygon fill="black" stroke="black" points="369.95,-380.97 367.25,-391.21 375.75,-384.89 369.95,-380.97"/>
<text text-anchor="middle" x="559.7" y="-265.16" font-family="Times,serif" font-size="14.00">NextStep</text>
</g>
<!-- ManageUserInvitationReceived&#45;&gt;CheckingDataAvailability -->
<g id="edge20" class="edge">
<title>ManageUserInvitationReceived&#45;&gt;CheckingDataAvailability</title>
<path fill="none" stroke="black" d="M652.18,-322.59C603.5,-329.07 550.11,-338.45 502.16,-351.96 470.74,-360.82 437.3,-374.83 409.87,-387.65"/>
<polygon fill="black" stroke="black" points="408.57,-384.39 401.03,-391.84 411.57,-390.71 408.57,-384.39"/>
<text text-anchor="middle" x="559.7" y="-356.16" font-family="Times,serif" font-size="14.00">NextStep</text>
</g>
<!-- ManageAckMessageReceived&#45;&gt;CheckingDataAvailability -->
<g id="edge21" class="edge">
<title>ManageAckMessageReceived&#45;&gt;CheckingDataAvailability</title>
<path fill="none" stroke="black" d="M656.32,-398.48C604.6,-401.74 547.1,-405.37 496.07,-408.59"/>
<polygon fill="black" stroke="black" points="495.87,-405.1 486.11,-409.22 496.32,-412.08 495.87,-405.1"/>
<text text-anchor="middle" x="559.7" y="-411.76" font-family="Times,serif" font-size="14.00">NextStep</text>
</g>
<!-- ManageApplicationMessageReceived&#45;&gt;CheckingDataAvailability -->
<g id="edge22" class="edge">
<title>ManageApplicationMessageReceived&#45;&gt;CheckingDataAvailability</title>
<path fill="none" stroke="black" d="M635.08,-478.08C591.44,-477.56 544.9,-474.78 502.16,-467.76 475.87,-463.45 447.96,-455.31 423.35,-446.83"/>
<polygon fill="black" stroke="black" points="424.68,-443.59 414.09,-443.56 422.35,-450.19 424.68,-443.59"/>
<text text-anchor="middle" x="559.7" y="-481.78" font-family="Times,serif" font-size="14.00">NextStep</text>
</g>
<!-- ManageInternalMessageReceived&#45;&gt;CheckingDataAvailability -->
<g id="edge23" class="edge">
<title>ManageInternalMessageReceived&#45;&gt;CheckingDataAvailability</title>
<path fill="none" stroke="black" d="M646.04,-569.99C598.37,-570.08 547.09,-564.66 502.16,-547.76 450.74,-528.43 404.94,-483.16 377.54,-451.51"/>
<polygon fill="black" stroke="black" points="380.42,-449.49 371.28,-444.13 375.08,-454.02 380.42,-449.49"/>
<text text-anchor="middle" x="559.7" y="-573.52" font-family="Times,serif" font-size="14.00">NextStep</text>
</g>
<!-- ManageInstantMessageReceived&#45;&gt;CheckingDataAvailability -->
<g id="edge24" class="edge">
<title>ManageInstantMessageReceived&#45;&gt;CheckingDataAvailability</title>
<path fill="none" stroke="black" d="M701.67,-658.06C639.82,-666.74 562.82,-667.49 502.16,-635.76 428.56,-597.26 383.56,-504.88 363.38,-453.6"/>
<polygon fill="black" stroke="black" points="366.71,-452.52 359.88,-444.42 360.18,-455.02 366.71,-452.52"/>
<text text-anchor="middle" x="559.7" y="-667.02" font-family="Times,serif" font-size="14.00">NextStep</text>
</g>
<!-- Created -->
<g id="node8" class="node">
<title>Created</title>
<path fill="none" stroke="black" d="M60.77,-35.76C60.77,-35.76 96.3,-35.76 96.3,-35.76 102.3,-35.76 108.3,-41.76 108.3,-47.76 108.3,-47.76 108.3,-59.76 108.3,-59.76 108.3,-65.76 102.3,-71.76 96.3,-71.76 96.3,-71.76 60.77,-71.76 60.77,-71.76 54.77,-71.76 48.77,-65.76 48.77,-59.76 48.77,-59.76 48.77,-47.76 48.77,-47.76 48.77,-41.76 54.77,-35.76 60.77,-35.76"/>
<text text-anchor="middle" x="78.53" y="-49.66" font-family="Times,serif" font-size="14.00">Created</text>
</g>
<!-- NotConnected -->
<g id="node10" class="node">
<title>NotConnected</title>
<path fill="none" stroke="black" d="M313.37,-35.76C313.37,-35.76 386.24,-35.76 386.24,-35.76 392.24,-35.76 398.24,-41.76 398.24,-47.76 398.24,-47.76 398.24,-59.76 398.24,-59.76 398.24,-65.76 392.24,-71.76 386.24,-71.76 386.24,-71.76 313.37,-71.76 313.37,-71.76 307.37,-71.76 301.37,-65.76 301.37,-59.76 301.37,-59.76 301.37,-47.76 301.37,-47.76 301.37,-41.76 307.37,-35.76 313.37,-35.76"/>
<text text-anchor="middle" x="349.8" y="-49.66" font-family="Times,serif" font-size="14.00">NotConnected</text>
</g>
<!-- Created&#45;&gt;NotConnected -->
<g id="edge1" class="edge">
<title>Created&#45;&gt;NotConnected</title>
<path fill="none" stroke="black" d="M108.61,-53.76C151.86,-53.76 234.08,-53.76 290.15,-53.76"/>
<polygon fill="black" stroke="black" points="289.84,-57.26 299.84,-53.76 289.84,-50.26 289.84,-57.26"/>
<text text-anchor="middle" x="165.96" y="-57.96" font-family="Times,serif" font-size="14.00">Configure</text>
</g>
<!-- Stopped -->
<g id="node9" class="node">
<title>Stopped</title>
<path fill="none" stroke="black" d="M730.43,-88.96C730.43,-88.96 891.96,-88.96 891.96,-88.96 897.96,-88.96 903.96,-94.96 903.96,-100.96 903.96,-100.96 903.96,-126.56 903.96,-126.56 903.96,-132.56 897.96,-138.56 891.96,-138.56 891.96,-138.56 730.43,-138.56 730.43,-138.56 724.43,-138.56 718.43,-132.56 718.43,-126.56 718.43,-126.56 718.43,-100.96 718.43,-100.96 718.43,-94.96 724.43,-88.96 730.43,-88.96"/>
<text text-anchor="middle" x="811.19" y="-121.96" font-family="Times,serif" font-size="14.00">Stopped</text>
<polyline fill="none" stroke="black" points="718.43,-113.76 903.96,-113.76"/>
<text text-anchor="middle" x="811.19" y="-97.16" font-family="Times,serif" font-size="14.00">entry / OnEntryStoppedAsync</text>
</g>
<!-- Connecting -->
<g id="node11" class="node">
<title>Connecting</title>
<path fill="none" stroke="black" d="M1098.12,-58.76C1098.12,-58.76 1154.66,-58.76 1154.66,-58.76 1160.66,-58.76 1166.66,-64.76 1166.66,-70.76 1166.66,-70.76 1166.66,-82.76 1166.66,-82.76 1166.66,-88.76 1160.66,-94.76 1154.66,-94.76 1154.66,-94.76 1098.12,-94.76 1098.12,-94.76 1092.12,-94.76 1086.12,-88.76 1086.12,-82.76 1086.12,-82.76 1086.12,-70.76 1086.12,-70.76 1086.12,-64.76 1092.12,-58.76 1098.12,-58.76"/>
<text text-anchor="middle" x="1126.39" y="-72.66" font-family="Times,serif" font-size="14.00">Connecting</text>
</g>
<!-- Stopped&#45;&gt;Connecting -->
<g id="edge2" class="edge">
<title>Stopped&#45;&gt;Connecting</title>
<path fill="none" stroke="black" d="M904.05,-102.91C959.79,-96.33 1028.82,-88.17 1074.82,-82.74"/>
<polygon fill="black" stroke="black" points="1074.98,-86.24 1084.5,-81.59 1074.16,-79.29 1074.98,-86.24"/>
<text text-anchor="middle" x="1036.63" y="-95.06" font-family="Times,serif" font-size="14.00">StartLogin</text>
</g>
<!-- NotConnected&#45;&gt;Stopped -->
<g id="edge4" class="edge">
<title>NotConnected&#45;&gt;Stopped</title>
<path fill="none" stroke="black" d="M398.67,-60.01C471.17,-69.48 610.59,-87.69 706.92,-100.27"/>
<polygon fill="black" stroke="black" points="706.28,-103.72 716.65,-101.55 707.19,-96.78 706.28,-103.72"/>
<text text-anchor="middle" x="559.7" y="-91.56" font-family="Times,serif" font-size="14.00">Stop</text>
</g>
<!-- NotConnected&#45;&gt;Connecting -->
<g id="edge3" class="edge">
<title>NotConnected&#45;&gt;Connecting</title>
<path fill="none" stroke="black" d="M398.55,-52.96C505.49,-51.48 772.35,-49.6 995.14,-62.96 1021.38,-64.54 1050.47,-67.5 1074.5,-70.28"/>
<polygon fill="black" stroke="black" points="1074.01,-73.75 1084.35,-71.45 1074.83,-66.8 1074.01,-73.75"/>
<text text-anchor="middle" x="811.19" y="-67.16" font-family="Times,serif" font-size="14.00">StartLogin</text>
</g>
<!-- Connecting&#45;&gt;NotConnected -->
<g id="edge5" class="edge">
<title>Connecting&#45;&gt;NotConnected</title>
<path fill="none" stroke="black" d="M1085.84,-58.92C1060.5,-48.48 1026.57,-36.33 995.14,-30.96 782.06,5.41 523.79,-26.07 409.77,-43.73"/>
<polygon fill="black" stroke="black" points="409.37,-40.25 400.03,-45.26 410.45,-47.16 409.37,-40.25"/>
<text text-anchor="middle" x="811.19" y="-35.16" font-family="Times,serif" font-size="14.00">Disconnect</text>
</g>
<!-- Authenticated -->
<g id="node12" class="node">
<title>Authenticated</title>
<path fill="none" stroke="black" d="M1357.72,-58.76C1357.72,-58.76 1428.24,-58.76 1428.24,-58.76 1434.24,-58.76 1440.24,-64.76 1440.24,-70.76 1440.24,-70.76 1440.24,-82.76 1440.24,-82.76 1440.24,-88.76 1434.24,-94.76 1428.24,-94.76 1428.24,-94.76 1357.72,-94.76 1357.72,-94.76 1351.72,-94.76 1345.72,-88.76 1345.72,-82.76 1345.72,-82.76 1345.72,-70.76 1345.72,-70.76 1345.72,-64.76 1351.72,-58.76 1357.72,-58.76"/>
<text text-anchor="middle" x="1392.98" y="-72.66" font-family="Times,serif" font-size="14.00">Authenticated</text>
</g>
<!-- Connecting&#45;&gt;Authenticated -->
<g id="edge7" class="edge">
<title>Connecting&#45;&gt;Authenticated</title>
<path fill="none" stroke="black" d="M1167,-76.76C1211.27,-76.76 1283.37,-76.76 1333.99,-76.76"/>
<polygon fill="black" stroke="black" points="1333.89,-80.26 1343.89,-76.76 1333.89,-73.26 1333.89,-80.26"/>
<text text-anchor="middle" x="1256.19" y="-80.96" font-family="Times,serif" font-size="14.00">AuthenticationSucceeded</text>
</g>
<!-- Connected -->
<g id="node13" class="node">
<title>Connected</title>
<path fill="none" stroke="black" d="M52.6,-219.76C52.6,-219.76 104.47,-219.76 104.47,-219.76 110.47,-219.76 116.47,-225.76 116.47,-231.76 116.47,-231.76 116.47,-243.76 116.47,-243.76 116.47,-249.76 110.47,-255.76 104.47,-255.76 104.47,-255.76 52.6,-255.76 52.6,-255.76 46.6,-255.76 40.6,-249.76 40.6,-243.76 40.6,-243.76 40.6,-231.76 40.6,-231.76 40.6,-225.76 46.6,-219.76 52.6,-219.76"/>
<text text-anchor="middle" x="78.53" y="-233.66" font-family="Times,serif" font-size="14.00">Connected</text>
</g>
<!-- Connecting&#45;&gt;Connected -->
<g id="edge6" class="edge">
<title>Connecting&#45;&gt;Connected</title>
<path fill="none" stroke="black" d="M1100.54,-95.21C1075.43,-112.62 1034.79,-137.53 995.14,-147.76 825.44,-191.57 378.69,-150.41 207.45,-187.76 180.08,-193.73 150.88,-204.76 127.31,-214.94"/>
<polygon fill="black" stroke="black" points="126.01,-211.68 118.28,-218.92 128.84,-218.09 126.01,-211.68"/>
<text text-anchor="middle" x="559.7" y="-174.39" font-family="Times,serif" font-size="14.00">Connect</text>
</g>
<!-- Authenticated&#45;&gt;NotConnected -->
<g id="edge9" class="edge">
<title>Authenticated&#45;&gt;NotConnected</title>
<path fill="none" stroke="black" d="M1345.44,-64.89C1282.88,-49.53 1167.96,-23.37 1068.12,-11.96 876.97,9.89 827.57,-4.71 635.24,-9.76 576.03,-11.32 560.76,-8.14 502.16,-16.76 471.09,-21.34 437.08,-29.37 409.17,-36.79"/>
<polygon fill="black" stroke="black" points="408.61,-33.31 399.87,-39.3 410.44,-40.07 408.61,-33.31"/>
<text text-anchor="middle" x="1036.63" y="-16.16" font-family="Times,serif" font-size="14.00">Disconnect</text>
</g>
<!-- Authenticated&#45;&gt;Connected -->
<g id="edge8" class="edge">
<title>Authenticated&#45;&gt;Connected</title>
<path fill="none" stroke="black" d="M1389.14,-95.22C1371.77,-204.95 1275.58,-766.76 1127.39,-766.76 348.8,-766.76 348.8,-766.76 348.8,-766.76 285.22,-766.76 254.44,-787.59 207.45,-744.76 135.3,-679.02 94.1,-365.95 82.77,-267.48"/>
<polygon fill="black" stroke="black" points="86.25,-267.11 81.65,-257.56 79.29,-267.89 86.25,-267.11"/>
<text text-anchor="middle" x="811.19" y="-770.96" font-family="Times,serif" font-size="14.00">Connect</text>
</g>
<!-- Connected&#45;&gt;CheckingDataAvailability -->
<g id="edge10" class="edge">
<title>Connected&#45;&gt;CheckingDataAvailability</title>
<path fill="none" stroke="black" d="M107.09,-256.18C152.95,-286.84 245.49,-348.7 301.82,-386.35"/>
<polygon fill="black" stroke="black" points="299.7,-389.15 309.96,-391.79 303.59,-383.33 299.7,-389.15"/>
<text text-anchor="middle" x="165.96" y="-315.84" font-family="Times,serif" font-size="14.00">NextStep</text>
</g>
<!-- Connected&#45;&gt;NotConnected -->
<g id="edge11" class="edge">
<title>Connected&#45;&gt;NotConnected</title>
<path fill="none" stroke="black" d="M85.02,-219.44C92.64,-196.88 108.52,-158.77 134.47,-135.96 178.71,-97.07 243.32,-75.69 290.03,-64.56"/>
<polygon fill="black" stroke="black" points="290.75,-67.99 299.72,-62.35 289.19,-61.16 290.75,-67.99"/>
<text text-anchor="middle" x="165.96" y="-140.16" font-family="Times,serif" font-size="14.00">Disconnect</text>
</g>
<!-- init -->
<g id="node14" class="node">
<title>init</title>
<ellipse fill="black" stroke="black" cx="1.8" cy="-53.76" rx="1.8" ry="1.8"/>
</g>
<!-- init&#45;&gt;Created -->
<g id="edge25" class="edge">
<title>init&#45;&gt;Created</title>
<path fill="none" stroke="black" d="M4.1,-53.76C8.36,-53.76 22.51,-53.76 37.27,-53.76"/>
<polygon fill="black" stroke="black" points="37.01,-57.26 47.01,-53.76 37.01,-50.26 37.01,-57.26"/>
</g>
</g>
</svg>
